<?xml version="1.0" encoding="UTF-8"?>
<svg width="15px" height="14px" viewBox="0 0 15 14" version="1.1" xmlns="http://www.w3.org/2000/svg" xmlns:xlink="http://www.w3.org/1999/xlink">
    <!-- Generator: Sketch 41.2 (35397) - http://www.bohemiancoding.com/sketch -->
    <title>Shape Copy 3</title>
    <desc>Created with Sketch.</desc>
    <defs></defs>
    <g id="Page-1" stroke="none" stroke-width="1" fill="none" fill-rule="evenodd">
        <g id="01.IT" transform="translate(-370.000000, -930.000000)" fill="#6E8693">
            <path d="M377.090573,930.000371 C376.995376,929.998663 376.898404,930.003274 376.80303,930.005664 C376.294368,930.018641 375.787993,930.087421 375.285443,930.213779 C371.549766,931.153072 369.273509,934.959911 370.210845,938.703458 C371.148182,942.446981 374.947031,944.728014 378.682708,943.788713 C382.418384,942.849396 384.694644,939.042575 383.757306,935.299028 C383.723782,935.110928 383.588586,934.957155 383.406599,934.900132 C383.224612,934.84311 383.026082,934.892315 382.891602,935.027774 C382.757121,935.163232 382.709042,935.36243 382.766881,935.544504 C383.56975,938.750996 381.637525,941.991648 378.437764,942.796206 C375.23799,943.600765 372.004128,941.664484 371.201271,938.457982 C370.3984,935.25149 372.330625,932.010837 375.530387,931.206279 C377.246952,930.774665 379.063335,931.126981 380.493163,932.172114 C380.640035,932.290072 380.839708,932.317616 381.012923,932.243812 C381.186137,932.170009 381.304873,932.006797 381.321999,931.818962 C381.339126,931.631128 381.251872,931.449055 381.094873,931.345017 C379.917552,930.484475 378.518534,930.022449 377.090573,930.000337 L377.090573,930.000371 Z M384.460188,930.672707 C384.32777,930.680754 384.203658,930.740067 384.114072,930.838117 C382.298127,932.742074 379.057785,936.286481 377.122522,938.329951 L374.598535,936.099488 C374.461562,935.977479 374.270039,935.937966 374.096111,935.995833 C373.922183,936.053701 373.792274,936.200157 373.75532,936.380033 C373.718365,936.559909 373.779979,936.745878 373.916953,936.867887 L376.81368,939.429196 C377.018601,939.612316 377.33127,939.600533 377.521887,939.402507 C379.425422,937.40677 382.96585,933.522129 384.848904,931.547821 C384.999603,931.397921 385.042151,931.170278 384.955804,930.975886 C384.869457,930.781493 384.672191,930.660821 384.460188,930.672707 L384.460188,930.672707 Z" id="Shape-Copy-3"></path>
        </g>
    </g>
</svg>