<?xml version="1.0" encoding="utf-8"?>
<!-- Generator: Adobe Illustrator 19.0.0, SVG Export Plug-In . SVG Version: 6.00 Build 0)  -->
<svg version="1.1" id="Шар_1" xmlns="http://www.w3.org/2000/svg" xmlns:xlink="http://www.w3.org/1999/xlink" x="0px" y="0px"
	 viewBox="-298 390 15 14" style="enable-background:new -298 390 15 14;" xml:space="preserve">
<style type="text/css">
	.st0{fill:#71BA51;}
</style>
<title>Shape Copy 3</title>
<desc>Created with Sketch.</desc>
<g id="Page-1">
	<g id="_x30_1.IT" transform="translate(-370.000000, -930.000000)">
		<path id="Shape-Copy-3" class="st0" d="M79.1,1320c-0.1,0-0.2,0-0.3,0c-0.5,0-1,0.1-1.5,0.2c-3.7,0.9-6,4.7-5.1,8.5
			c0.9,3.7,4.7,6,8.5,5.1s6-4.7,5.1-8.5c0-0.2-0.2-0.3-0.4-0.4c-0.2-0.1-0.4,0-0.5,0.1c-0.1,0.1-0.2,0.3-0.1,0.5
			c0.8,3.2-1.1,6.4-4.3,7.3c-3.2,0.8-6.4-1.1-7.2-4.3s1.1-6.4,4.3-7.3c1.7-0.4,3.5-0.1,5,1c0.1,0.1,0.3,0.1,0.5,0.1
			c0.2-0.1,0.3-0.2,0.3-0.4s-0.1-0.4-0.2-0.5C81.9,1320.5,80.5,1320,79.1,1320L79.1,1320z M86.5,1320.7c-0.1,0-0.3,0.1-0.3,0.2
			c-1.8,1.9-5.1,5.4-7,7.5l-2.5-2.2c-0.1-0.1-0.3-0.2-0.5-0.1c-0.2,0.1-0.3,0.2-0.3,0.4c0,0.2,0,0.4,0.2,0.5l2.9,2.6
			c0.2,0.2,0.5,0.2,0.7,0c1.9-2,5.4-5.9,7.3-7.9c0.2-0.1,0.2-0.4,0.1-0.6C86.9,1320.8,86.7,1320.7,86.5,1320.7L86.5,1320.7z"/>
	</g>
</g>
</svg>
