<?xml version="1.0" encoding="UTF-8"?>
<svg width="560px" height="320px" viewBox="0 0 560 320" version="1.1" xmlns="http://www.w3.org/2000/svg" xmlns:xlink="http://www.w3.org/1999/xlink">
    <!-- Generator: Sketch 41.2 (35397) - http://www.bohemiancoding.com/sketch -->
    <title>Group 22</title>
    <desc>Created with Sketch.</desc>
    <defs>
        <linearGradient x1="47.6774691%" y1="94.4772727%" x2="47.6774691%" y2="-3.49090909%" id="linearGradient-1">
            <stop stop-color="#5F6767" offset="2.43902%"></stop>
            <stop stop-color="#676B6C" offset="47.56%"></stop>
            <stop stop-color="#717576" offset="51.37%"></stop>
            <stop stop-color="#878A8B" offset="61.92%"></stop>
            <stop stop-color="#949899" offset="72.02%"></stop>
            <stop stop-color="#999C9D" offset="81.1%"></stop>
        </linearGradient>
        <linearGradient x1="49.7966527%" y1="98.7500988%" x2="49.7966527%" y2="1.74110588%" id="linearGradient-2">
            <stop stop-color="#5F6767" offset="2.43902%"></stop>
            <stop stop-color="#676B6C" offset="47.56%"></stop>
            <stop stop-color="#717576" offset="51.37%"></stop>
            <stop stop-color="#878A8B" offset="61.92%"></stop>
            <stop stop-color="#949899" offset="72.02%"></stop>
            <stop stop-color="#999C9D" offset="81.1%"></stop>
        </linearGradient>
    </defs>
    <g id="Page-1" stroke="none" stroke-width="1" fill="none" fill-rule="evenodd">
        <g id="01.IT" transform="translate(-370.000000, -1311.000000)">
            <g id="Group-22" transform="translate(370.000000, 1311.000000)">
                <g id="Group-15">
                    <path d="M235.552995,312 L430,312 L430,314 L235.552995,314 L140,314 L140,312 L235.552995,312 Z" id="Combined-Shape" fill="#E8E9EB"></path>
                    <rect id="Rectangle-11" fill="#E8E9EB" x="428" y="258" width="2" height="55"></rect>
                    <rect id="Rectangle-10-Copy-3" fill="#E8E9EB" transform="translate(82.000000, 132.000000) scale(-1, 1) translate(-82.000000, -132.000000) " x="22" y="131" width="120" height="2"></rect>
                    <rect id="Rectangle-11" fill="#E8E9EB" transform="translate(141.000000, 222.000000) scale(-1, 1) translate(-141.000000, -222.000000) " x="140" y="131" width="2" height="182"></rect>
                    <rect id="Rectangle-11-Copy" fill="#E8E9EB" transform="translate(23.000000, 105.000000) scale(-1, 1) translate(-23.000000, -105.000000) " x="22" y="77" width="2" height="56"></rect>
                    <rect id="Rectangle-10-Copy-4" fill="#E8E9EB" x="78" y="9" width="120" height="2"></rect>
                    <rect id="Rectangle-11-Copy-2" fill="#E8E9EB" x="196" y="9" width="2" height="36"></rect>
                    <polygon id="Shape" fill="#EDEADA" points="211.034058 55.0172119 201.024048 45.0066528 181 45 181 85 211 85"></polygon>
                    <polygon id="Shape" fill="#CEC9AE" points="201 45 201 55 211 55"></polygon>
                    <path d="M196,77.3448276 L187.666667,77.3448276 C187.298667,77.3448276 187,77.0365517 187,76.6551724 C187,76.2737931 187.298667,75.9655172 187.666667,75.9655172 L196,75.9655172 L204.333333,75.9655172 C204.701333,75.9655172 205,76.2737931 205,76.6551724 C205,77.0365517 204.701333,77.3448276 204.333333,77.3448276 L196,77.3448276 Z M196,72.3448276 L187.666667,72.3448276 C187.298667,72.3448276 187,72.0365517 187,71.6551724 C187,71.2737931 187.298667,70.9655172 187.666667,70.9655172 L196,70.9655172 L204.333333,70.9655172 C204.701333,70.9655172 205,71.2737931 205,71.6551724 C205,72.0365517 204.701333,72.3448276 204.333333,72.3448276 L196,72.3448276 Z M196,67.7586207 L187.666667,67.7586207 C187.298667,67.7586207 187,67.4503448 187,67.0689655 C187,66.6875862 187.298667,66.3793103 187.666667,66.3793103 L196,66.3793103 L204.333333,66.3793103 C204.701333,66.3793103 205,66.6875862 205,67.0689655 C205,67.4503448 204.701333,67.7586207 204.333333,67.7586207 L196,67.7586207 Z M196,63.1724138 L187.666667,63.1724138 C187.298667,63.1724138 187,62.8641379 187,62.4827586 C187,62.1013793 187.298667,61.7931034 187.666667,61.7931034 L196,61.7931034 L204.333333,61.7931034 C204.701333,61.7931034 205,62.1013793 205,62.4827586 C205,62.8641379 204.701333,63.1724138 204.333333,63.1724138 L196,63.1724138 Z" id="Combined-Shape" fill="#CEC9AE"></path>
                    <g id="Group-21" transform="translate(47.000000, 168.000000)">
                        <path d="M59.9796585,10.9184752 C60.0373171,10.9184752 30.7581951,0.272930693 30.0089268,0 C29.4326341,0.218316832 -0.0194634146,10.9184752 0.038195122,10.9184752 L0.038195122,31.0084752 C0.038195122,44.929604 4.24565854,63.1089505 30.0089268,69.878297 C55.7145366,63.1088119 59.922,44.6019208 59.922,31.0084752 C59.9796585,24.129901 59.9796585,10.9184752 59.9796585,10.9184752 Z" id="Shape" fill="#F3F3F3"></path>
                        <path d="M0.038195122,31.0086139 C0.038195122,44.9297426 4.24565854,63.1090891 30.0089268,69.8784356 L30.0089268,0 C28.9138537,0.382158416 0.038195122,10.9184752 0.038195122,10.9184752 C0.038195122,10.9184752 0.0383414634,31.0086139 0.038195122,31.0086139 Z" id="Shape" fill="#E7E7E7"></path>
                        <path d="M54.1285369,14.610754 C54.1861954,14.610754 30.5554149,5.60293222 29.9214637,5.38461538 C29.4026832,5.54845697 5.65673201,14.2285956 5.71439055,14.1739817 L5.71439055,31.0430114 C5.71439055,42.7258035 8.13517103,58.6668134 29.9214637,64.3444372 C51.6502442,58.6668134 54.1285369,42.4528728 54.1285369,31.0430114 C54.1861954,25.2562986 54.1861954,14.610754 54.1285369,14.610754 Z" id="Shape" fill="#25AE88"></path>
                        <path d="M28.5894291,40.3846154 C28.1841987,40.3846154 27.7789684,40.2069275 27.4730747,39.8587311 L24.3195312,36.2690772 C23.7030134,35.5672998 23.7030134,34.4329692 24.3195312,33.7311919 C24.9360489,33.0294145 25.9325687,33.0294145 26.5490864,33.7311919 L28.7045334,36.1847203 L35.4862287,30.0087208 C36.1642406,29.3895055 37.1591836,29.5151434 37.7015931,30.2887138 C38.2455793,31.064079 38.1352053,32.1930252 37.4556167,32.8122405 L29.5717579,39.9915483 C29.2847854,40.2553878 28.9363189,40.3846154 28.5894291,40.3846154 Z" id="Shape" fill="#FFFFFF"></path>
                    </g>
                    <g id="Group-20" transform="translate(0.000000, 4.000000)" fill="#3D8EB9">
                        <path d="M9.34347805,20.0833734 C8.71901346,20.0833734 8.09426922,19.8482057 7.61774093,19.3775944 C6.66468435,18.4369237 6.66468435,16.9119222 7.61774093,15.9709755 C11.7602371,11.8820392 17.2763876,9.63000528 23.149375,9.63000528 C29.0223625,9.63000528 34.538513,11.8817632 38.6810092,15.9709755 C39.6340657,16.9116462 39.6340657,18.4369237 38.6810092,19.3778704 C37.7279526,20.318265 36.1825915,20.318541 35.2295349,19.3778704 C32.0084945,16.1986907 27.7186213,14.4479061 23.1490954,14.4479061 C18.5798491,14.4479061 14.2896963,16.1986907 11.0686559,19.3778704 C10.5929665,19.8482057 9.96794265,20.0833734 9.34347805,20.0833734 Z" id="Shape"></path>
                        <path d="M43.8590595,13.2698597 C43.2345949,13.2698597 42.6098507,13.034692 42.1333224,12.5640807 C31.6659199,2.23271268 14.6342284,2.23243666 4.16626668,12.5640807 C3.21321011,13.5047513 1.66784901,13.5047513 0.714792431,12.5640807 C-0.238264144,11.62341 -0.238264144,10.0981325 0.714792431,9.15746181 C13.0857912,-3.05248727 33.2143572,-3.05248727 45.5847966,9.15746181 C46.5378532,10.0981325 46.5378532,11.623134 45.5847966,12.5640807 C45.1082683,13.034968 44.4835241,13.2698597 43.8590595,13.2698597 Z" id="Shape"></path>
                        <path d="M30.0526032,26.8968871 C29.4281386,26.8968871 28.8033944,26.6617194 28.3268661,26.1911081 C26.9439832,24.8261972 25.1052664,24.0745992 23.1496547,24.0745992 C21.194043,24.0745992 19.3553262,24.8261972 17.9724433,26.1911081 C17.0193868,27.1317788 15.4740257,27.1317788 14.5209691,26.1911081 C13.5679125,25.2504375 13.5679125,23.7254359 14.5209691,22.7844893 C19.278981,18.0880365 27.0208877,18.0880365 31.77862,22.7844893 C32.7316766,23.7251599 32.7316766,25.2501615 31.77862,26.1911081 C31.301812,26.6614434 30.6773474,26.8968871 30.0526032,26.8968871 Z" id="Shape"></path>
                        <ellipse id="Oval-4" cx="23.0104167" cy="31.5972222" rx="3.42708333" ry="3.40277778"></ellipse>
                    </g>
                    <g id="Group-19" transform="translate(215.000000, 141.000000)">
                        <circle id="Oval-3" fill="#E8E9EB" cx="70" cy="172" r="7"></circle>
                        <rect id="Rectangle-11" fill="#E8E9EB" x="69" y="129" width="2" height="36"></rect>
                        <g id="server">
                            <path d="M139.748703,33.9252475 L139.748703,33.340396 L90.0317155,33.9252475 L0.172217573,33.9252475 L0.172217573,135.935347 C0.172217573,143.539307 12.8609623,149.622475 28.5488703,149.622475 L107.103808,149.622475 C125.214184,149.622475 139.863808,142.486337 139.863808,133.829703 L139.863808,34.0422772 C139.748703,34.0422772 139.748703,33.9252475 139.748703,33.9252475 Z" id="Shape" fill="#C4C8CA"></path>
                            <path d="M18.6284937,38.6046535 L0.172217573,38.6046535 L0.172217573,135.935347 C0.172217573,141.784455 7.9009205,146.81495 18.6284937,148.803564 L18.6284937,38.6046535 Z M139.748703,35.0952475 L121.292427,35.0952475 L121.292427,148.101683 C132.250795,145.527921 139.748703,140.146634 139.748703,133.829703 L139.748703,35.0952475 L139.748703,35.0952475 Z" id="Shape" fill="#D0D3D5"></path>
                            <path d="M106.98841,118.15396 L28.4334728,118.15396 C12.7455649,118.15396 0.0568200837,111.953762 0.0568200837,104.466832 L0.0568200837,78.6133663 L0.0568200837,136.052376 C0.0568200837,143.656337 12.7455649,149.739505 28.4334728,149.739505 L106.98841,149.739505 C125.098787,149.739505 139.74841,142.603366 139.74841,133.946733 L139.74841,74.9866337 L139.74841,102.360891 C139.748703,111.017822 125.098787,118.15396 106.98841,118.15396 Z M139.748703,67.2659406 C139.748703,76.039604 124.406695,83.0587129 105.604519,83.0587129 L27.2800837,83.0587129 C12.2842678,83.0587129 0.172217573,76.9755446 0.172217573,69.3715842 L0.172217573,62.0016832 L0.172217573,100.957426 C0.172217573,108.561386 12.8609623,114.644554 28.5488703,114.644554 L107.103808,114.644554 C125.214184,114.644554 139.863808,107.508416 139.863808,98.8517822 L139.863808,62.0013861 C139.748703,63.8732673 139.748703,65.6281188 139.748703,67.2659406 Z M27.2800837,79.5490099 L105.604519,79.5490099 C124.522385,79.5490099 139.748703,72.529901 139.748703,63.7562376 L139.748703,33.9252475 L0.172217573,33.9252475 L0.172217573,65.8618812 C0.172217573,73.4658416 12.2842678,79.5490099 27.2800837,79.5490099 Z" id="Shape" fill="#DADFE1"></path>
                            <path d="M77.4583682,69.020495 C79.4192469,69.020495 80.9188285,67.499703 80.9188285,65.5110891 C80.9188285,63.5224752 79.4192469,62.0016832 77.4583682,62.0016832 C75.4974895,62.0016832 73.9979079,63.5224752 73.9979079,65.5110891 C73.9979079,67.499703 75.4971967,69.020495 77.4583682,69.020495 Z M77.4583682,97.0966337 C75.4974895,97.0966337 73.9979079,98.6174257 73.9979079,100.60604 C73.9979079,102.594653 75.4974895,104.115446 77.4583682,104.115446 C79.4192469,104.115446 80.9188285,102.594653 80.9188285,100.60604 C80.9188285,98.6174257 79.4192469,97.0966337 77.4583682,97.0966337 Z M77.4583682,132.191881 C75.4974895,132.191881 73.9979079,133.712673 73.9979079,135.701287 C73.9979079,137.689901 75.4974895,139.210693 77.4583682,139.210693 C79.4192469,139.210693 80.9188285,137.689901 80.9188285,135.701287 C80.9188285,133.829703 79.4192469,132.191881 77.4583682,132.191881 Z" id="Shape" fill="#54AAEF" opacity="0.5"></path>
                            <path d="M88.993431,62.0013861 C87.0325523,62.0013861 85.5329707,63.5221782 85.5329707,65.5107921 C85.5329707,67.4994059 87.0325523,69.020198 88.993431,69.020198 C90.9543096,69.020198 92.4538912,67.4994059 92.4538912,65.5107921 C92.4538912,63.5221782 90.9546025,62.0013861 88.993431,62.0013861 Z M100.528787,69.020495 C102.489665,69.020495 103.989247,67.499703 103.989247,65.5110891 C103.989247,63.5224752 102.489665,62.0016832 100.528787,62.0016832 C98.5679079,62.0016832 97.0683264,63.5224752 97.0683264,65.5110891 C97.0683264,67.499703 98.5676151,69.020495 100.528787,69.020495 Z M88.993431,97.0966337 C87.0325523,97.0966337 85.5329707,98.6174257 85.5329707,100.60604 C85.5329707,102.594653 87.0325523,104.115446 88.993431,104.115446 C90.9543096,104.115446 92.4538912,102.594653 92.4538912,100.60604 C92.4538912,98.6174257 90.9546025,97.0966337 88.993431,97.0966337 Z M100.528787,97.0966337 C98.5679079,97.0966337 97.0683264,98.6174257 97.0683264,100.60604 C97.0683264,102.594653 98.5679079,104.115446 100.528787,104.115446 C102.489665,104.115446 103.989247,102.594653 103.989247,100.60604 C103.989247,98.6174257 102.489665,97.0966337 100.528787,97.0966337 Z M88.993431,132.191881 C87.0325523,132.191881 85.5329707,133.712673 85.5329707,135.701287 C85.5329707,137.689901 87.0325523,139.210693 88.993431,139.210693 C90.9543096,139.210693 92.4538912,137.689901 92.4538912,135.701287 C92.4541841,133.829703 90.9546025,132.191881 88.993431,132.191881 Z M100.528787,132.191881 C98.5679079,132.191881 97.0683264,133.712673 97.0683264,135.701287 C97.0683264,137.689901 98.5679079,139.210693 100.528787,139.210693 C102.489665,139.210693 103.989247,137.689901 103.989247,135.701287 C103.989247,133.829703 102.489665,132.191881 100.528787,132.191881 Z" id="Shape" fill="#54AAEF"></path>
                            <path d="M59.0017992,57.3222772 L29.0101674,57.3222772 C28.3180753,57.3222772 27.8567782,57.790099 27.8567782,58.4919802 L27.8567782,62.0013861 C27.8567782,62.7032673 28.3180753,63.1710891 29.0101674,63.1710891 L59.0017992,63.1710891 C59.6938912,63.1710891 60.1551883,62.7032673 60.1551883,62.0013861 L60.1551883,58.4919802 C60.1554812,57.9071287 59.6938912,57.3222772 59.0017992,57.3222772 Z M59.0017992,66.6807921 L29.0101674,66.6807921 C28.3180753,66.6807921 27.8567782,67.1486139 27.8567782,67.850495 L27.8567782,71.359901 C27.8567782,72.0617822 28.3180753,72.529604 29.0101674,72.529604 L59.0017992,72.529604 C59.6938912,72.529604 60.1551883,72.0617822 60.1551883,71.359901 L60.1551883,67.850495 C60.1554812,67.2659406 59.6938912,66.6807921 59.0017992,66.6807921 Z M59.0017992,92.4172277 L29.0101674,92.4172277 C28.3180753,92.4172277 27.8567782,92.8850495 27.8567782,93.5869307 L27.8567782,97.0963366 C27.8567782,97.7982178 28.3180753,98.2660396 29.0101674,98.2660396 L59.0017992,98.2660396 C59.6938912,98.2660396 60.1551883,97.7982178 60.1551883,97.0963366 L60.1551883,93.5869307 C60.1554812,93.0023762 59.6938912,92.4172277 59.0017992,92.4172277 Z M59.0017992,101.77604 L29.0101674,101.77604 C28.3180753,101.77604 27.8567782,102.243861 27.8567782,102.945743 L27.8567782,106.455446 C27.8567782,107.157327 28.3180753,107.625149 29.0101674,107.625149 L59.0017992,107.625149 C59.6938912,107.625149 60.1551883,107.157327 60.1551883,106.455446 L60.1551883,102.94604 C60.1554812,102.360891 59.6938912,101.77604 59.0017992,101.77604 Z M59.0017992,127.512475 L29.0101674,127.512475 C28.3180753,127.512475 27.8567782,127.980297 27.8567782,128.682178 L27.8567782,132.191584 C27.8567782,132.893465 28.3180753,133.361287 29.0101674,133.361287 L59.0017992,133.361287 C59.6938912,133.361287 60.1551883,132.893465 60.1551883,132.191584 L60.1551883,128.682178 C60.1554812,128.097624 59.6938912,127.512475 59.0017992,127.512475 Z M59.0017992,136.871287 L29.0101674,136.871287 C28.3180753,136.871287 27.8567782,137.339109 27.8567782,138.04099 L27.8567782,141.550396 C27.8567782,142.252277 28.3180753,142.720099 29.0101674,142.720099 L59.0017992,142.720099 C59.6938912,142.720099 60.1551883,142.252277 60.1551883,141.550396 L60.1551883,138.04099 C60.1554812,137.456139 59.6938912,136.871287 59.0017992,136.871287 Z" id="Shape" fill="#C4C8CA"></path>
                            <path d="M121.292134,116.633168 L121.292134,148.218713 C132.250502,145.64495 139.74841,140.263663 139.74841,133.946733 L139.74841,74.9866337 L139.74841,102.360891 C139.748703,108.561089 132.250795,114.059406 121.292134,116.633168 Z M18.6284937,117.33505 C7.90062762,115.346436 0.172217573,110.315941 0.172217573,104.466832 L0.172217573,78.6133663 L0.172217573,136.052376 C0.172217573,141.901485 7.9009205,146.93198 18.6284937,148.920594 L18.6284937,117.33505 Z M18.6284937,82.3568317 C7.90062762,80.4849505 0.172217573,75.4547525 0.172217573,69.3715842 L0.172217573,62.0016832 L0.172217573,100.957426 C0.172217573,106.806535 7.9009205,111.83703 18.6284937,113.825644 L18.6284937,82.3568317 Z M139.748703,67.2659406 C139.748703,73.3491089 132.250795,78.730396 121.292427,81.3041584 L121.292427,113.123762 C132.250795,110.55 139.748703,105.168713 139.748703,98.8517822 L139.748703,62.1184158 L139.748703,67.2659406 L139.748703,67.2659406 Z M18.6284937,38.6046535 L0.172217573,38.6046535 L0.172217573,65.8618812 C0.172217573,71.9450495 7.9009205,76.9752475 18.6284937,78.8471287 L18.6284937,38.6046535 Z M121.292134,35.0952475 L121.292134,77.7944554 C132.250502,75.2206931 139.74841,69.8394059 139.74841,63.7562376 L139.74841,35.0952475 L121.292134,35.0952475 L121.292134,35.0952475 Z" id="Shape" fill="#E1E5E7"></path>
                            <path d="M113.217531,17.4305941 C111.256653,7.7209901 94.7612552,0 74.3438075,0 C58.5405021,0 45.0442678,4.21128713 38.8151464,10.7625743 C36.9693724,10.5285149 35.0084937,10.2947525 32.9322176,10.2947525 C22.088954,10.2947525 13.3222594,15.0911881 13.3222594,20.3554455 C13.3222594,21.4084158 13.5530544,23.0459406 14.2451464,23.9818812 C5.82435146,26.4386139 0.287615063,30.1820792 0.287615063,35.3293069 C0.287615063,43.050297 12.9763598,49.250495 28.6642678,49.250495 L107.219205,49.250495 C125.329582,49.250495 139.979205,42.1143564 139.979205,33.2236634 C139.748703,25.2686139 128.328745,18.8343564 113.217531,17.4305941 Z" id="Shape" fill="#F2F1EF"></path>
                            <path d="M69.3834728,14.0382178 C58.5402092,14.0382178 49.7735146,18.0157426 49.7735146,23.9818812 C49.7735146,29.9480198 58.5402092,33.9255446 69.3834728,33.9255446 C80.2267364,33.9255446 88.993431,29.480198 88.993431,23.9818812 C88.993431,18.4835644 80.2267364,14.0382178 69.3834728,14.0382178 Z M79.0730544,21.7589109 L67.7684937,27.7250495 C67.3071967,27.9591089 66.6151046,28.0761386 66.0381172,28.0761386 C65.3460251,28.1931683 64.5385356,28.0761386 64.0772385,27.8420792 L59.5784937,25.5023762 C58.7710042,25.0345545 58.7710042,24.3326733 59.5784937,23.9815842 C60.3859833,23.5137624 61.7701674,23.5137624 62.5776569,23.9815842 L65.9230126,25.7364356 L76.1892887,20.3551485 C76.9967782,19.8873267 78.3809623,19.8873267 79.1884519,20.3551485 C79.8805439,20.7062376 79.8805439,21.4081188 79.0730544,21.7589109 Z" id="Shape" fill="#CECDCB"></path>
                        </g>
                    </g>
                    <rect id="Rectangle-10-Copy-3" fill="#E8E9EB" x="427" y="131" width="120" height="2"></rect>
                    <rect id="Rectangle-11" fill="#E8E9EB" x="427" y="131" width="2" height="16"></rect>
                    <rect id="Rectangle-11-Copy" fill="#E8E9EB" x="545" y="77" width="2" height="56"></rect>
                    <rect id="Rectangle-10-Copy-4" fill="#E8E9EB" transform="translate(431.000000, 10.000000) scale(-1, 1) translate(-431.000000, -10.000000) " x="371" y="9" width="120" height="2"></rect>
                    <rect id="Rectangle-11-Copy-2" fill="#E8E9EB" transform="translate(372.000000, 37.000000) scale(-1, 1) translate(-372.000000, -37.000000) " x="371" y="9" width="2" height="56"></rect>
                    <g id="Group" transform="translate(410.000000, 40.000000)">
                        <g>
                            <path d="M95.6463415,53.3863636 C95.6463415,54.8181818 94.8414634,55.9090909 93.7682927,55.9090909 L16.1646341,55.9090909 C15.1585366,55.9090909 14.2865854,54.75 14.2865854,53.3863636 L14.2865854,2.72727273 C14.2865854,1.29545455 15.0914634,0.204545455 16.1646341,0.204545455 L93.7682927,0.204545455 C94.7743902,0.204545455 95.6463415,1.36363636 95.6463415,2.72727273 L95.6463415,53.3863636 Z" id="Shape" fill="#152C34"></path>
                            <rect id="Rectangle-path" fill="#FEFDFD" x="17.5731707" y="3.27272727" width="75.1219512" height="47.0454545"></rect>
                            <g transform="translate(0.000000, 53.863636)" id="Shape">
                                <g>
                                    <path d="M0.469512195,2.79545455 C0.469512195,2.79545455 -0.201219512,4.09090909 4.62804878,5.11363636 L105.304878,5.11363636 C105.304878,5.11363636 108.658537,4.90909091 109.530488,3.27272727 L109.530488,2.38636364 L0.469512195,2.79545455 Z" fill="#414F5A"></path>
                                    <path d="M0.469512195,0.204545455 L109.597561,0.204545455 L109.597561,3.06818182 C109.597561,3.06818182 109.731707,3.47727273 108.457317,3.34090909 L1.47560976,3.34090909 C1.47560976,3.34090909 0.469512195,3.61363636 0.402439024,2.93181818 L0.469512195,0.204545455 Z" fill="#E7E6E7"></path>
                                    <path d="M104.5,1.90909091 C104.5,2.04545455 104.432927,2.11363636 104.365854,2.11363636 L100.609756,2.11363636 C100.542683,2.11363636 100.47561,2.04545455 100.47561,1.90909091 L100.47561,1.90909091 C100.47561,1.77272727 100.542683,1.70454545 100.609756,1.70454545 L104.29878,1.70454545 C104.432927,1.70454545 104.5,1.77272727 104.5,1.90909091 L104.5,1.90909091 Z" fill="#152C34"></path>
                                </g>
                                <path d="M47.6219512,0.272727273 C47.6219512,0.272727273 47.2195122,1.70454545 48.6280488,1.84090909 L61.304878,1.84090909 C61.304878,1.84090909 62.6463415,2.04545455 62.445122,0.340909091 L47.6219512,0.272727273 Z" fill="#152C34"></path>
                                <g transform="translate(46.951220, 0.000000)">
                                    <path d="M0.737804878,0.272727273 L0.737804878,0.272727273 L0.737804878,0.272727273 L0.603658537,0.272727273 C0.603658537,0.272727273 0.201219512,1.5 1.40853659,1.77272727 C0.402439024,1.36363636 0.737804878,0.272727273 0.737804878,0.272727273 Z" fill="url(#linearGradient-1)"></path>
                                    <path d="M15.5609756,0.272727273 L15.4268293,0.272727273 L15.4268293,0.340909091 C15.4939024,1.97727273 14.2865854,1.70454545 14.2865854,1.70454545 L1.6097561,1.70454545 L1.40853659,1.70454545 C1.47560976,1.70454545 1.6097561,1.77272727 1.74390244,1.77272727 L14.4207317,1.77272727 C14.3536585,1.77272727 15.695122,1.97727273 15.5609756,0.272727273 Z" fill="url(#linearGradient-2)"></path>
                                </g>
                            </g>
                            <path d="M40.1097561,25.5 L40.1097561,26.5227273 L24.8170732,26.5227273 L23.8109756,26.5227273 L23.8109756,25.5 L23.8109756,9.88636364 L24.8170732,9.88636364 L24.8170732,25.5 L40.1097561,25.5 Z M38.097561,9.95454545 L34.0731707,10.6363636 L35.0121951,11.8636364 L26.4939024,18.9545455 L27.1646341,19.7727273 L35.6829268,12.6818182 L36.6219512,13.9090909 L38.097561,9.95454545 Z M36.9573171,15.8863636 L36.0182927,14.7272727 L36.0182927,24.5454545 L38.0304878,24.5454545 L38.0304878,12.9545455 L36.9573171,15.8863636 Z M29.9146341,18.75 L29.9146341,24.4772727 L31.9268293,24.4772727 L31.9268293,17.0454545 L29.9146341,18.75 Z M27.0304878,21.1363636 L26.8292683,20.9318182 L26.8292683,24.4772727 L28.8414634,24.4772727 L28.8414634,19.5681818 L27.0304878,21.1363636 Z M33,16.2272727 L33,24.5454545 L35.0121951,24.5454545 L35.0121951,14.5227273 L33,16.2272727 Z" id="Shape" fill="#6BD4DA"></path>
                            <path d="M40.1097561,47.1136364 L40.1097561,48.1363636 L24.8170732,48.1363636 L23.8109756,48.1363636 L23.8109756,47.1136364 L23.8109756,31.5 L24.8170732,31.5 L24.8170732,47.1136364 L40.1097561,47.1136364 Z M38.097561,31.5681818 L34.0731707,32.25 L35.0121951,33.4772727 L26.4939024,40.5681818 L27.1646341,41.3863636 L35.6829268,34.2954545 L36.6219512,35.5227273 L38.097561,31.5681818 Z M36.9573171,37.5 L36.0182927,36.3409091 L36.0182927,46.1590909 L38.0304878,46.1590909 L38.0304878,34.5681818 L36.9573171,37.5 Z M29.9146341,40.3636364 L29.9146341,46.0909091 L31.9268293,46.0909091 L31.9268293,38.6590909 L29.9146341,40.3636364 Z M27.0304878,42.75 L26.8292683,42.5454545 L26.8292683,46.0909091 L28.8414634,46.0909091 L28.8414634,41.1818182 L27.0304878,42.75 Z M33,37.8409091 L33,46.1590909 L35.0121951,46.1590909 L35.0121951,36.1363636 L33,37.8409091 Z" id="Shape" fill="#FFD57B"></path>
                            <rect id="Rectangle-path" fill="#FC611F" x="41.7195122" y="9.68181818" width="46.5487805" height="2.86363636"></rect>
                            <rect id="Rectangle-path" fill="#FF855D" x="41.7195122" y="15.9545455" width="46.5487805" height="1.29545455"></rect>
                            <rect id="Rectangle-path" fill="#414F5A" x="41.7195122" y="17.25" width="46.5487805" height="11.8636364"></rect>
                        </g>
                        <rect id="Rectangle-path" fill="#FFD57B" x="41.5853659" y="33.4090909" width="46.9512195" height="4.77272727"></rect>
                        <rect id="Rectangle-path" fill="#6BD4DA" x="41.5853659" y="41.5909091" width="46.9512195" height="4.09090909"></rect>
                    </g>
                    <g id="envelope" transform="translate(398.000000, 169.000000)">
                        <g id="Group">
                            <path d="M58.6060714,20.8242891 C58.6060714,20.8242891 47.255625,10.7853281 41.5804018,5.17532813 C35.9051786,-0.434671875 29.9998661,0.00825 29.9998661,0.00825 C29.9998661,0.00825 24.0945536,-0.434800781 18.4193304,5.17532813 C12.7441071,10.785457 1.39366071,20.8242891 1.39366071,20.8242891 L0.0132589286,25.6961719 L0.0132589286,65.9998711 L59.9866071,65.9998711 L59.9866071,25.6961719 L58.6060714,20.8242891 Z" id="Shape" fill="#D89932"></path>
                            <path d="M55.0782589,44.6469375 C55.0782589,45.5724844 54.2987946,46.3227187 53.3371875,46.3227187 L7.88959821,46.3227187 C6.92799107,46.3227187 6.14852679,45.5724844 6.14852679,44.6469375 L6.14852679,13.9373437 C6.14852679,13.0117969 6.92799107,12.2615625 7.88959821,12.2615625 L53.3371875,12.2615625 C54.2987946,12.2615625 55.0782589,13.0117969 55.0782589,13.9373437 L55.0782589,44.6469375 Z" id="Shape" fill="#E2E5E7"></path>
                            <polygon id="Shape" fill="#2D404E" opacity="0.07" points="21.0780804 42.6247852 23.1736607 42.5264297 5.27946429 26.3851758 0.0132589286 25.6961719"></polygon>
                            <polygon id="Shape" fill="#2D404E" opacity="0.07" points="38.9090625 42.6247852 36.8134821 42.5264297 54.7076786 26.3851758 59.9738839 25.6961719"></polygon>
                            <polygon id="Shape" fill="#F2B643" points="0.0132589286 25.6961719 0.0132589286 65.9997422 21.0952232 42.5999062 5.07495536 26.7788555"></polygon>
                            <polygon id="Shape" fill="#F2B643" points="59.9738839 25.6961719 59.9738839 65.9997422 38.8920536 42.5999062 54.9121875 26.7788555"></polygon>
                            <polygon id="Shape" fill="#D89932" opacity="0.54" points="0.0132589286 65.9997422 0.0132589286 61.1279883 20.3683929 41.8821562 21.0952232 42.5999062"></polygon>
                            <polygon id="Shape" fill="#D89932" opacity="0.54" points="59.9738839 65.9997422 59.9738839 61.1279883 39.6188839 41.8821562 38.8920536 42.5999062"></polygon>
                            <path d="M58.4845982,61.3493203 C58.4845982,61.3493203 42.298125,45.0361055 40.8333482,43.7074687 C39.3684375,42.378832 38.1965625,42.5265586 38.1965625,42.5265586 L29.9935714,42.5265586 L21.7904464,42.5265586 C21.7904464,42.5265586 20.6185714,42.378832 19.1536607,43.7074687 C17.68875,45.0362344 1.50254464,61.3493203 1.50254464,61.3493203 L0.110758929,65.9997422 L29.9935714,65.9997422 L59.87625,65.9997422 L58.4845982,61.3493203 Z" id="Shape" fill="#F2B643"></path>
                            <g transform="translate(13.392857, 22.042969)" fill="#D1D5D5">
                                <path d="M0.0178125,7.198125 L4.01625,0.0358359375 L5.72263393,3.99776953 C5.72263393,3.99776953 5.68392857,2.19759375 6.969375,2.22621094 C8.25482143,2.25482813 9.23638393,7.198125 9.23638393,7.198125 L0.0178125,7.198125 L0.0178125,7.198125 Z" id="Shape"></path>
                                <ellipse id="Oval" cx="6.49754464" cy="0.820359375" rx="0.815223214" ry="0.784652344"></ellipse>
                            </g>
                            <path d="M45.7569643,23.629418 C45.7569643,24.0370195 45.4137054,24.3676641 44.9899554,24.3676641 L29.9164286,24.3676641 C29.4928125,24.3676641 29.1494196,24.0371484 29.1494196,23.629418 L29.1494196,23.6015742 C29.1494196,23.1939727 29.4928125,22.8633281 29.9164286,22.8633281 L44.9899554,22.8633281 C45.4135714,22.8633281 45.7569643,23.1938437 45.7569643,23.6015742 L45.7569643,23.629418 Z" id="Shape" fill="#D1D5D5"></path>
                            <path d="M45.7569643,26.4621328 C45.7569643,26.8697344 45.4137054,27.2003789 44.9899554,27.2003789 L29.9164286,27.2003789 C29.4928125,27.2003789 29.1494196,26.8698633 29.1494196,26.4621328 L29.1494196,26.4342891 C29.1494196,26.0266875 29.4928125,25.696043 29.9164286,25.696043 L44.9899554,25.696043 C45.4135714,25.696043 45.7569643,26.0265586 45.7569643,26.4342891 L45.7569643,26.4621328 Z" id="Shape" fill="#D1D5D5"></path>
                            <path d="M45.7569643,29.2951055 C45.7569643,29.702707 45.4137054,30.0332227 44.9899554,30.0332227 L29.9164286,30.0332227 C29.4928125,30.0332227 29.1494196,29.7028359 29.1494196,29.2951055 L29.1494196,29.2672617 C29.1494196,28.8595313 29.4928125,28.5290156 29.9164286,28.5290156 L44.9899554,28.5290156 C45.4135714,28.5290156 45.7569643,28.8594023 45.7569643,29.2672617 L45.7569643,29.2951055 Z" id="Shape" fill="#D1D5D5"></path>
                            <g transform="translate(6.026786, 12.246094)" id="Shape">
                                <polygon fill="#DF584C" points="11.9933036 0.01546875 10.1286161 3.31263281 13.0887054 3.31263281 14.9533929 0.01546875"></polygon>
                                <polygon fill="#E2E5E7" points="9.03308036 0.01546875 7.16852679 3.31263281 10.1286161 3.31263281 11.9933036 0.01546875"></polygon>
                                <polygon fill="#E2E5E7" points="14.9533929 0.01546875 13.0887054 3.31263281 16.0489286 3.31263281 17.9134821 0.01546875"></polygon>
                                <polygon fill="#E2E5E7" points="20.8737054 0.01546875 19.0090179 3.31263281 21.9692411 3.31263281 23.8337946 0.01546875"></polygon>
                                <polygon fill="#DF584C" points="0.121875 0.01546875 0.121875 3.31263281 1.24821429 3.31263281 3.11290179 0.01546875"></polygon>
                                <polygon fill="#E2E5E7" points="3.11290179 0.01546875 1.24821429 3.31263281 4.20830357 3.31263281 6.07299107 0.01546875"></polygon>
                                <polygon fill="#E2E5E7" points="38.6345089 0.01546875 36.7699554 3.31263281 39.7301786 3.31263281 41.5947321 0.01546875"></polygon>
                                <polygon fill="#E2E5E7" points="44.5548214 0.01546875 42.6901339 3.31263281 45.6503571 3.31263281 47.5150446 0.01546875"></polygon>
                                <polygon fill="#DF584C" points="23.8337946 0.01546875 21.9692411 3.31263281 24.9293304 3.31263281 26.7940179 0.01546875"></polygon>
                                <polygon fill="#DF584C" points="47.5150446 0.01546875 45.6503571 3.31263281 49.0514732 3.31263281 49.0514732 0.01546875"></polygon>
                                <polygon fill="#DF584C" points="35.6744196 0.01546875 33.8098661 3.31263281 36.7699554 3.31263281 38.6345089 0.01546875"></polygon>
                                <polygon fill="#E2E5E7" points="26.7940179 0.01546875 24.9293304 3.31263281 27.8895536 3.31263281 29.7541071 0.01546875"></polygon>
                                <g transform="translate(4.151786, 0.000000)" fill="#2D404E">
                                    <polygon points="13.7616964 0.01546875 11.8971429 3.31263281 14.8572321 3.31263281 16.7219196 0.01546875"></polygon>
                                    <polygon points="1.92120536 0.01546875 0.0565178571 3.31263281 3.01674107 3.31263281 4.88129464 0.01546875"></polygon>
                                    <polygon points="37.4429464 0.01546875 35.5783929 3.31263281 38.5383482 3.31263281 40.4030357 0.01546875"></polygon>
                                    <polygon points="25.6023214 0.01546875 23.7377679 3.31263281 26.6978571 3.31263281 28.5624107 0.01546875"></polygon>
                                </g>
                                <polygon fill="#E2E5E7" points="32.7141964 0.01546875 30.8496429 3.31263281 33.8098661 3.31263281 35.6744196 0.01546875"></polygon>
                            </g>
                        </g>
                    </g>
                    <g id="browser" transform="translate(352.000000, 45.000000)">
                        <path d="M1.87176238,0 L38.0588515,0 C39.0883168,0 39.9306139,0.84229703 39.9306139,1.87176238 L39.9306139,38.0588515 C39.9306139,39.0883168 39.0883168,39.9306139 38.0588515,39.9306139 L1.87176238,39.9306139 C0.84229703,39.9305347 0,39.0882376 0,38.0587723 L0,1.87176238 C0,0.84229703 0.84229703,0 1.87176238,0 Z" id="Shape" fill="#EFEFEF"></path>
                        <path d="M3.74352475,7.4869703 L36.1870891,7.4869703 C36.8734257,7.4869703 37.4349307,8.04847525 37.4349307,8.73481188 L37.4349307,36.1870891 C37.4349307,36.8734257 36.8734257,37.4349307 36.1870891,37.4349307 L3.74352475,37.4349307 C3.05718812,37.4349307 2.49568317,36.8734257 2.49568317,36.1870891 L2.49568317,8.73481188 C2.49568317,8.04847525 3.05718812,7.4869703 3.74352475,7.4869703 Z" id="Shape" fill="#2B414D"></path>
                        <path d="M8.73481188,13.1021782 L26.8283564,13.1021782 C27.1714851,13.1021782 27.4522772,13.3829703 27.4522772,13.726099 L27.4522772,14.3500198 C27.4522772,14.6931485 27.1714851,14.9739406 26.8283564,14.9739406 L8.73481188,14.9739406 C8.39168317,14.9739406 8.11089109,14.6931485 8.11089109,14.3500198 L8.11089109,13.726099 C8.11089109,13.3829703 8.39168317,13.1021782 8.73481188,13.1021782 Z" id="Shape" fill="#E4E7E7"></path>
                        <path d="M16.2217822,17.4696238 L8.73481188,17.4696238 C8.39168317,17.4696238 8.11089109,17.7504158 8.11089109,18.0935446 L8.11089109,18.7174653 C8.11089109,19.0605941 8.39168317,19.3413861 8.73481188,19.3413861 L16.2217822,19.3413861 C16.5649109,19.3413861 16.845703,19.0605941 16.845703,18.7174653 L16.845703,18.0935446 C16.845703,17.7503366 16.5649109,17.4696238 16.2217822,17.4696238 Z M14.3500198,26.2044356 L8.73481188,26.2044356 C8.39168317,26.2044356 8.11089109,26.4852277 8.11089109,26.8283564 L8.11089109,27.4522772 C8.11089109,27.7954059 8.39168317,28.076198 8.73481188,28.076198 L14.3500198,28.076198 C14.6931485,28.076198 14.9739406,27.7954059 14.9739406,27.4522772 L14.9739406,26.8283564 C14.9739406,26.4851485 14.6932277,26.2044356 14.3500198,26.2044356 Z M31.1957228,26.2044356 L27.452198,26.2044356 C27.1090693,26.2044356 26.8282772,26.4852277 26.8282772,26.8283564 L26.8282772,27.4522772 C26.8282772,27.7954059 27.1090693,28.076198 27.452198,28.076198 L31.1957228,28.076198 C31.5388515,28.076198 31.8196436,27.7954059 31.8196436,27.4522772 L31.8196436,26.8283564 C31.8196436,26.4851485 31.5388515,26.2044356 31.1957228,26.2044356 Z" id="Shape" fill="#E35E53"></path>
                        <path d="M31.1957228,17.4696238 L19.9653069,17.4696238 C19.6221782,17.4696238 19.3413861,17.7504158 19.3413861,18.0935446 L19.3413861,18.7174653 C19.3413861,19.0605941 19.6221782,19.3413861 19.9653069,19.3413861 L31.195802,19.3413861 C31.5389307,19.3413861 31.8197228,19.0605941 31.8197228,18.7174653 L31.8197228,18.0935446 C31.8196436,17.7503366 31.5388515,17.4696238 31.1957228,17.4696238 Z M31.1957228,30.571802 L8.73481188,30.571802 C8.39168317,30.571802 8.11089109,30.8525941 8.11089109,31.1957228 L8.11089109,31.8196436 C8.11089109,32.1627723 8.39168317,32.4435644 8.73481188,32.4435644 L31.1957228,32.4435644 C31.5388515,32.4435644 31.8196436,32.1627723 31.8196436,31.8196436 L31.8196436,31.1957228 C31.8196436,30.8525941 31.5388515,30.571802 31.1957228,30.571802 Z" id="Shape" fill="#26A6D1"></path>
                        <path d="M23.7087525,21.8369901 L8.73481188,21.8369901 C8.39168317,21.8369901 8.11089109,22.1177822 8.11089109,22.4609109 L8.11089109,23.0848317 C8.11089109,23.4279604 8.39168317,23.7087525 8.73481188,23.7087525 L23.7087525,23.7087525 C24.0518812,23.7087525 24.3326733,23.4279604 24.3326733,23.0848317 L24.3326733,22.4609109 C24.3326733,22.1177822 24.0518812,21.8369901 23.7087525,21.8369901 Z M23.7087525,26.2044356 L18.0935446,26.2044356 C17.7504158,26.2044356 17.4696238,26.4852277 17.4696238,26.8283564 L17.4696238,27.4522772 C17.4696238,27.7954059 17.7504158,28.076198 18.0935446,28.076198 L23.7087525,28.076198 C24.0518812,28.076198 24.3326733,27.7954059 24.3326733,27.4522772 L24.3326733,26.8283564 C24.3326733,26.4851485 24.0518812,26.2044356 23.7087525,26.2044356 Z" id="Shape" fill="#49B8A4"></path>
                        <path d="M3.74352475,2.49568317 C3.05718812,2.49568317 2.49568317,3.05718812 2.49568317,3.74352475 C2.49568317,4.42986139 3.05718812,4.99136634 3.74352475,4.99136634 C4.42986139,4.99136634 4.99136634,4.42986139 4.99136634,3.74352475 C4.99136634,3.05718812 4.42978218,2.49568317 3.74352475,2.49568317 Z M7.4869703,2.49568317 C6.80063366,2.49568317 6.23912871,3.05718812 6.23912871,3.74352475 C6.23912871,4.42986139 6.80063366,4.99136634 7.4869703,4.99136634 C8.17330693,4.99136634 8.73481188,4.42986139 8.73481188,3.74352475 C8.73481188,3.05718812 8.17330693,2.49568317 7.4869703,2.49568317 Z M11.230495,2.49568317 C10.5441584,2.49568317 9.98265347,3.05718812 9.98265347,3.74352475 C9.98265347,4.42986139 10.5441584,4.99136634 11.230495,4.99136634 C11.9168317,4.99136634 12.4783366,4.42986139 12.4783366,3.74352475 C12.4783366,3.05718812 11.9167525,2.49568317 11.230495,2.49568317 Z" id="Shape" fill="#BFC3C5"></path>
                    </g>
                    <g id="coding" transform="translate(66.000000, 38.000000)">
                        <g id="Group">
                            <path d="M49.3862963,64.910931 L20.4772515,64.910931 C20.4772515,62.2592573 22.6345614,60.1093619 25.2953801,60.1093619 L44.5680312,60.1093619 C47.2289864,60.1092259 49.3862963,62.2592573 49.3862963,64.910931" id="Shape" fill="#E8EDEE"></path>
                            <polygon id="Shape" fill="#B0B6BB" points="43.3635673 60.1092259 26.4999805 60.1092259 28.9090448 50.5060879 40.9545029 50.5060879"></polygon>
                            <path d="M69.8635478,40.9028138 L0,40.9028138 L0,4.29054393 C0,1.97012552 1.88754386,0.0890690377 4.21596491,0.0890690377 L65.6477193,0.0890690377 C67.9761404,0.0890690377 69.8636842,1.97012552 69.8636842,4.29054393 L69.8636842,40.9028138 L69.8635478,40.9028138 Z" id="Shape" fill="#38454F"></path>
                            <path d="M65.6475828,50.5060879 L4.21596491,50.5060879 C1.88754386,50.5060879 0,48.6250314 0,46.304613 L0,40.9028138 L69.8635478,40.9028138 L69.8635478,46.304613 C69.8635478,48.6250314 67.9760039,50.5060879 65.6475828,50.5060879" id="Shape" fill="#E8EDEE"></path>
                            <g transform="translate(9.551657, 4.759414)" id="Shape" fill="#EA6148">
                                <path d="M49.4710331,31.3418305 L31.402846,31.3418305 C30.7366862,31.3418305 30.1982456,30.8040167 30.1982456,30.1413703 C30.1982456,29.4787238 30.7366862,28.94091 31.402846,28.94091 L49.4710331,28.94091 C50.137193,28.94091 50.6756335,29.4787238 50.6756335,30.1413703 C50.6754971,30.8040167 50.1370565,31.3418305 49.4710331,31.3418305"></path>
                                <path d="M13.3346589,24.139341 L1.28920078,24.139341 C0.623040936,24.139341 0.0846003899,23.6015272 0.0846003899,22.9388808 C0.0846003899,22.2762343 0.623040936,21.7384205 1.28920078,21.7384205 L13.3346589,21.7384205 C14.0008187,21.7384205 14.5392593,22.2762343 14.5392593,22.9388808 C14.5392593,23.6015272 14.0008187,24.139341 13.3346589,24.139341"></path>
                                <path d="M43.4483041,24.139341 L25.380117,24.139341 C24.7139571,24.139341 24.1755166,23.6015272 24.1755166,22.9388808 C24.1755166,22.2762343 24.7139571,21.7384205 25.380117,21.7384205 L43.4483041,21.7384205 C44.1144639,21.7384205 44.6529045,22.2762343 44.6529045,22.9388808 C44.652768,23.6015272 44.1143275,24.139341 43.4483041,24.139341"></path>
                                <path d="M19.3573879,24.139341 C19.2007407,24.139341 19.04423,24.1033054 18.8997271,24.0433368 C18.7430799,23.9833682 18.622729,23.8993305 18.5022417,23.7912238 C18.284191,23.5631799 18.152924,23.2630649 18.152924,22.9388808 C18.152924,22.6146967 18.284191,22.3147176 18.5022417,22.0865377 C18.622729,21.9785669 18.7432164,21.8945293 18.8997271,21.8344247 C19.3321442,21.6543828 19.8753606,21.750387 20.2126706,22.0865377 C20.4294932,22.3145816 20.5619883,22.6266632 20.5619883,22.9388808 C20.5619883,23.2509623 20.4294932,23.5630439 20.2126706,23.7912238 C19.9837037,24.0073013 19.6705458,24.139341 19.3573879,24.139341"></path>
                                <path d="M25.380117,31.3418305 L7.31192982,31.3418305 C6.64576998,31.3418305 6.10732943,30.8040167 6.10732943,30.1413703 C6.10732943,29.4787238 6.64576998,28.94091 7.31192982,28.94091 L25.380117,28.94091 C26.0462768,28.94091 26.5847173,29.4787238 26.5847173,30.1413703 C26.5847173,30.8040167 26.0462768,31.3418305 25.380117,31.3418305"></path>
                                <path d="M1.28920078,31.3418305 C1.13255361,31.3418305 0.976042885,31.305795 0.831539961,31.2458264 C0.687037037,31.1858577 0.55454191,31.1018201 0.434054581,30.9937134 C0.216003899,30.7656695 0.0847368421,30.4655544 0.0847368421,30.1413703 C0.0847368421,29.9852615 0.120896686,29.8292887 0.181072125,29.6852824 C0.241247563,29.5291736 0.325575049,29.4092364 0.434054581,29.2891632 C0.723196881,29.0131172 1.13269006,28.8930439 1.51693957,28.9651151 C1.60249513,28.9770816 1.67358674,29.0011506 1.74699805,29.0371862 C1.81808967,29.0612552 1.89150097,29.0971548 1.95181287,29.1451569 C2.02290448,29.193159 2.08430799,29.2411611 2.14448343,29.2891632 C2.25282651,29.4092364 2.337154,29.5293096 2.39746589,29.6852824 C2.45764133,29.8292887 2.49380117,29.9853975 2.49380117,30.1413703 C2.49380117,30.4654184 2.36130604,30.7655335 2.14448343,30.9937134 C2.08430799,31.0417155 2.02276803,31.0897176 1.95181287,31.1377197 C1.89163743,31.1857218 1.81808967,31.2217573 1.74699805,31.2456904 C1.67358674,31.2817259 1.60249513,31.305659 1.51693957,31.3177615 C1.44584795,31.329728 1.36152047,31.3418305 1.28920078,31.3418305"></path>
                                <path d="M49.4710331,24.139341 C49.3976218,24.139341 49.314386,24.1273745 49.2422027,24.115272 C49.1578752,24.1033054 49.0855556,24.0792364 49.0133723,24.0432008 C48.9410526,24.0191318 48.8688694,23.9832322 48.7953216,23.9352301 C48.7362378,23.887228 48.6760624,23.8392259 48.6158869,23.7912238 C48.3978363,23.5631799 48.2665692,23.2510983 48.2665692,22.9388808 C48.2665692,22.6267992 48.3978363,22.3147176 48.6158869,22.0865377 L48.7953216,21.9425314 C48.8688694,21.8945293 48.9410526,21.8584937 49.0133723,21.8345607 C49.085692,21.7985251 49.1578752,21.7745921 49.2422027,21.7624895 C49.6276803,21.6784519 50.0480897,21.8104916 50.3263158,22.0865377 C50.3744834,22.1465063 50.4226511,22.2066109 50.4708187,22.278546 C50.5189864,22.3385146 50.5539181,22.4105858 50.5791618,22.4826569 C50.6153216,22.554728 50.6393372,22.6266632 50.6502534,22.7107008 C50.6634893,22.782772 50.6754971,22.8668096 50.6754971,22.9387448 C50.6754971,23.0106799 50.6634893,23.0948536 50.6502534,23.1788912 C50.6394737,23.2509623 50.6153216,23.3228975 50.5791618,23.3949686 C50.5539181,23.4670397 50.5189864,23.5389749 50.4708187,23.611046 C50.4226511,23.6710146 50.3744834,23.7311192 50.3263158,23.7910879 C50.2661404,23.83909 50.2046004,23.8870921 50.145653,23.9350941 C50.0733333,23.9830962 49.999922,24.0191318 49.9288304,24.0430649 C49.8554191,24.0791004 49.7843275,24.1030335 49.6987719,24.115136 C49.6275439,24.1273745 49.5432164,24.139341 49.4710331,24.139341"></path>
                                <path d="M49.4710331,9.73449791 L31.402846,9.73449791 C30.7366862,9.73449791 30.1982456,9.1966841 30.1982456,8.53403766 C30.1982456,7.87139121 30.7366862,7.33357741 31.402846,7.33357741 L49.4710331,7.33357741 C50.137193,7.33357741 50.6756335,7.87139121 50.6756335,8.53403766 C50.6756335,9.1966841 50.1370565,9.73449791 49.4710331,9.73449791"></path>
                                <path d="M49.4710331,16.9369874 L37.425575,16.9369874 C36.7594152,16.9369874 36.2209747,16.3991736 36.2209747,15.7365272 C36.2209747,15.0738808 36.7594152,14.5360669 37.425575,14.5360669 L49.4710331,14.5360669 C50.137193,14.5360669 50.6756335,15.0738808 50.6756335,15.7365272 C50.6756335,16.3991736 50.1370565,16.9369874 49.4710331,16.9369874"></path>
                                <path d="M27.7891813,16.9369874 L25.380117,16.9369874 C24.7139571,16.9369874 24.1755166,16.3991736 24.1755166,15.7365272 C24.1755166,15.0738808 24.7139571,14.5360669 25.380117,14.5360669 L27.7891813,14.5360669 C28.4553411,14.5360669 28.9937817,15.0738808 28.9937817,15.7365272 C28.9937817,16.3991736 28.4553411,16.9369874 27.7891813,16.9369874"></path>
                                <path d="M43.4483041,2.53214435 L25.380117,2.53214435 C24.7139571,2.53214435 24.1755166,1.99433054 24.1755166,1.3316841 C24.1755166,0.669037657 24.7139571,0.131223849 25.380117,0.131223849 L43.4483041,0.131223849 C44.1144639,0.131223849 44.6529045,0.669037657 44.6529045,1.3316841 C44.6529045,1.99433054 44.1143275,2.53214435 43.4483041,2.53214435"></path>
                                <path d="M49.4710331,2.53214435 C49.3976218,2.53214435 49.314386,2.52017782 49.2422027,2.50807531 C49.1578752,2.49610879 49.0855556,2.47203975 49.0133723,2.43600418 C48.9410526,2.41193515 48.8688694,2.37603556 48.7953216,2.32803347 C48.7362378,2.28003138 48.6760624,2.23202929 48.6158869,2.1840272 C48.3978363,1.95598326 48.2665692,1.64390167 48.2665692,1.3316841 C48.2665692,1.01960251 48.3978363,0.707520921 48.6158869,0.479341004 L48.7953216,0.335334728 C48.8688694,0.287332636 48.9410526,0.251297071 49.0133723,0.227364017 C49.085692,0.191328452 49.1578752,0.167395397 49.2422027,0.155292887 C49.6276803,0.0712552301 50.0480897,0.203294979 50.3263158,0.479341004 C50.3744834,0.539309623 50.4226511,0.599414226 50.4708187,0.671349372 C50.5189864,0.731317992 50.5539181,0.803389121 50.5791618,0.875460251 C50.6153216,0.947531381 50.6393372,1.01946653 50.6502534,1.10350418 C50.6634893,1.17557531 50.6754971,1.25961297 50.6754971,1.33154812 C50.6754971,1.40348326 50.6634893,1.4876569 50.6502534,1.57169456 C50.6394737,1.64376569 50.6153216,1.71570084 50.5791618,1.78777197 C50.5539181,1.8598431 50.5189864,1.93177824 50.4708187,2.00384937 C50.4226511,2.06381799 50.3744834,2.12392259 50.3263158,2.18389121 C50.2661404,2.23189331 50.2046004,2.2798954 50.145653,2.32789749 C50.0733333,2.37589958 49.999922,2.41193515 49.9288304,2.4358682 C49.8554191,2.47190377 49.7843275,2.49583682 49.6987719,2.50793933 C49.6275439,2.52004184 49.5432164,2.53214435 49.4710331,2.53214435"></path>
                                <path d="M26.5847173,9.73449791 C26.2715595,9.73449791 25.9571735,9.60245816 25.7294347,9.38638075 C25.6210916,9.26630753 25.5367641,9.13426778 25.4764522,8.99026151 C25.4161404,8.84625523 25.380117,8.69014644 25.380117,8.53417364 C25.380117,8.37806485 25.4162768,8.22209205 25.4764522,8.07808577 C25.5366277,7.9340795 25.6209552,7.80203975 25.7294347,7.68196653 C26.0064327,7.4059205 26.4280702,7.28584728 26.8123197,7.35791841 C26.8978752,7.36988494 26.9689669,7.39395397 27.0423782,7.42998954 C27.1134698,7.45405858 27.1868811,7.48995816 27.247193,7.53796025 C27.3182846,7.58596234 27.3796881,7.63396444 27.4278558,7.68196653 C27.5483431,7.80203975 27.6326706,7.9340795 27.692846,8.07808577 C27.7530214,8.22209205 27.7891813,8.37820084 27.7891813,8.53417364 C27.7891813,8.69028243 27.7530214,8.84625523 27.692846,8.99026151 C27.6326706,9.13426778 27.5483431,9.26630753 27.4278558,9.38638075 C27.3796881,9.43438285 27.3182846,9.48238494 27.247193,9.53038703 C27.1870175,9.57838912 27.1134698,9.61442469 27.0423782,9.63835774 C26.9689669,9.67439331 26.8978752,9.69832636 26.8123197,9.71042887 C26.7412281,9.72253138 26.6569006,9.73449791 26.5847173,9.73449791"></path>
                                <path d="M32.6074464,16.9369874 C32.2810526,16.9369874 31.9799025,16.8049477 31.7521637,16.5888703 C31.5341131,16.3608264 31.402846,16.0487448 31.402846,15.7365272 C31.402846,15.4244456 31.5341131,15.112364 31.7521637,14.8841841 C32.1978168,14.4400628 33.0169396,14.4400628 33.4625926,14.8841841 C33.6794152,15.112228 33.8119103,15.4243096 33.8119103,15.7365272 C33.8119103,15.8205649 33.7999025,15.892636 33.7866667,15.9766736 C33.7758869,16.0487448 33.7517349,16.1206799 33.715575,16.192751 C33.6903314,16.2648222 33.6553996,16.3367573 33.607232,16.4088285 C33.5590643,16.4687971 33.5108967,16.5289017 33.462729,16.5888703 C33.2337622,16.8049477 32.9326121,16.9369874 32.6074464,16.9369874"></path>
                            </g>
                            <polygon id="Shape" fill="#ECBA16" points="10.8408577 21.6964017 27.7044444 21.6964017 27.7044444 4.89077406 10.8408577 4.89077406"></polygon>
                        </g>
                    </g>
                    <g id="Group-21" transform="translate(47.000000, 168.000000)">
                        <path d="M59.9796585,10.9184752 C60.0373171,10.9184752 30.7581951,0.272930693 30.0089268,0 C29.4326341,0.218316832 -0.0194634146,10.9184752 0.038195122,10.9184752 L0.038195122,31.0084752 C0.038195122,44.929604 4.24565854,63.1089505 30.0089268,69.878297 C55.7145366,63.1088119 59.922,44.6019208 59.922,31.0084752 C59.9796585,24.129901 59.9796585,10.9184752 59.9796585,10.9184752 Z" id="Shape" fill="#F3F3F3"></path>
                        <path d="M0.038195122,31.0086139 C0.038195122,44.9297426 4.24565854,63.1090891 30.0089268,69.8784356 L30.0089268,0 C28.9138537,0.382158416 0.038195122,10.9184752 0.038195122,10.9184752 C0.038195122,10.9184752 0.0383414634,31.0086139 0.038195122,31.0086139 Z" id="Shape" fill="#E7E7E7"></path>
                        <path d="M54.1285369,14.610754 C54.1861954,14.610754 30.5554149,5.60293222 29.9214637,5.38461538 C29.4026832,5.54845697 5.65673201,14.2285956 5.71439055,14.1739817 L5.71439055,31.0430114 C5.71439055,42.7258035 8.13517103,58.6668134 29.9214637,64.3444372 C51.6502442,58.6668134 54.1285369,42.4528728 54.1285369,31.0430114 C54.1861954,25.2562986 54.1861954,14.610754 54.1285369,14.610754 Z" id="Shape" fill="#25AE88"></path>
                        <path d="M28.5894291,40.3846154 C28.1841987,40.3846154 27.7789684,40.2069275 27.4730747,39.8587311 L24.3195312,36.2690772 C23.7030134,35.5672998 23.7030134,34.4329692 24.3195312,33.7311919 C24.9360489,33.0294145 25.9325687,33.0294145 26.5490864,33.7311919 L28.7045334,36.1847203 L35.4862287,30.0087208 C36.1642406,29.3895055 37.1591836,29.5151434 37.7015931,30.2887138 C38.2455793,31.064079 38.1352053,32.1930252 37.4556167,32.8122405 L29.5717579,39.9915483 C29.2847854,40.2553878 28.9363189,40.3846154 28.5894291,40.3846154 Z" id="Shape" fill="#FFFFFF"></path>
                    </g>
                    <g id="Group-5" transform="translate(528.000000, 0.000000)">
                        <g id="Group-2">
                            <g id="Group">
                                <path d="M0.962285714,23.6483789 C0.962285714,24.1860938 1.4029011,24.62625 1.93898901,24.62625 L31.0071209,24.62625 C31.5454945,24.62625 31.9825934,24.1860938 31.9825934,23.6483789 L31.9825934,19.3805859 C31.9825934,18.8428711 31.5454945,18.4041211 31.0071209,18.4041211 L1.93898901,18.4041211 C1.40342857,18.4041211 0.962285714,18.8428711 0.962285714,19.3805859 L0.962285714,23.6483789 L0.962285714,23.6483789 Z" id="Shape" fill="#ECC45C"></path>
                                <path d="M0.962285714,30.4266797 C0.962285714,30.9643945 1.4029011,31.4054297 1.93898901,31.4054297 L31.0071209,31.4054297 C31.5454945,31.4054297 31.9825934,30.9649219 31.9825934,30.4266797 L31.9825934,26.1594141 C31.9825934,25.6225781 31.5454945,25.181543 31.0071209,25.181543 L1.93898901,25.181543 C1.40342857,25.181543 0.962285714,25.6220508 0.962285714,26.1594141 L0.962285714,30.4266797 L0.962285714,30.4266797 Z" id="Shape" fill="#ECC45C"></path>
                                <path d="M0.962285714,37.2060352 C0.962285714,37.7451563 1.4029011,38.1842578 1.93898901,38.1842578 L31.0071209,38.1842578 C31.5454945,38.1842578 31.9825934,37.7449805 31.9825934,37.2060352 L31.9825934,32.9391211 C31.9825934,32.4014063 31.5454945,31.9617773 31.0071209,31.9617773 L1.93898901,31.9617773 C1.40342857,31.9617773 0.962285714,32.4014063 0.962285714,32.9391211 L0.962285714,37.2060352 L0.962285714,37.2060352 Z" id="Shape" fill="#ECC45C"></path>
                                <path d="M0.962285714,43.9866211 C0.962285714,44.5239844 1.4029011,44.9636133 1.93898901,44.9636133 L31.0071209,44.9636133 C31.5454945,44.9636133 31.9825934,44.5239844 31.9825934,43.9866211 L31.9825934,39.7174219 C31.9825934,39.1814648 31.5454945,38.7413086 31.0071209,38.7413086 L1.93898901,38.7413086 C1.40342857,38.7413086 0.962285714,39.1814648 0.962285714,39.7174219 L0.962285714,43.9866211 L0.962285714,43.9866211 Z" id="Shape" fill="#ECC45C"></path>
                                <path d="M29.3102418,12.8685937 L29.3102418,18.4035937 L27.2541538,18.4035937 L27.2541538,13.1953711 C27.2541538,7.24095703 22.4272527,2.41470703 16.474022,2.41470703 C10.519033,2.41470703 5.69213187,7.24042969 5.69213187,13.1953711 L5.69213187,18.4041211 L3.63745055,18.4041211 L3.63745055,12.8691211 C3.63745055,5.78109375 9.38584615,0.0369140625 16.4741978,0.0369140625 C23.560967,0.0363867187 29.3102418,5.78074219 29.3102418,12.8685937 Z" id="Shape" fill="#F2F9FF"></path>
                                <path d="M27.2541538,13.1953711 L27.2541538,18.4041211 L25.1998242,18.4041211 L25.1998242,12.8691211 C25.1998242,8.05763672 21.2852747,4.14263672 16.474022,4.14263672 C11.6613626,4.14263672 7.74540659,8.05710938 7.74540659,12.8691211 L7.74540659,18.4041211 L5.6916044,18.4041211 L5.6916044,13.1953711 C5.6916044,7.24095703 10.5185055,2.41470703 16.4734945,2.41470703 C22.4270769,2.41470703 27.2541538,7.24042969 27.2541538,13.1953711 Z" id="Shape" fill="#E1EFFA"></path>
                                <rect id="Rectangle-path" fill="#5D6D7E" x="0.0165274725" y="23.5304297" width="4.99621978" height="2.74728516"></rect>
                                <rect id="Rectangle-path" fill="#34495E" x="2.51463736" y="23.5304297" width="2.49810989" height="2.74728516"></rect>
                                <rect id="Rectangle-path" fill="#5D6D7E" x="0.0165274725" y="30.3075" width="4.99621978" height="2.74640625"></rect>
                                <rect id="Rectangle-path" fill="#34495E" x="2.51463736" y="30.3075" width="2.49810989" height="2.74640625"></rect>
                                <rect id="Rectangle-path" fill="#5D6D7E" x="0.0165274725" y="37.0889648" width="4.99621978" height="2.74640625"></rect>
                                <rect id="Rectangle-path" fill="#34495E" x="2.51463736" y="37.0889648" width="2.49810989" height="2.74640625"></rect>
                            </g>
                        </g>
                    </g>
                </g>
            </g>
        </g>
    </g>
</svg>