<?xml version="1.0" encoding="UTF-8"?>
<svg width="480px" height="280px" viewBox="0 0 480 280" version="1.1" xmlns="http://www.w3.org/2000/svg" xmlns:xlink="http://www.w3.org/1999/xlink">
    <!-- Generator: Sketch 41.2 (35397) - http://www.bohemiancoding.com/sketch -->
    <title>Group 30</title>
    <desc>Created with Sketch.</desc>
    <defs>
        <rect id="path-1" x="0" y="0" width="166" height="260"></rect>
        <mask id="mask-2" maskContentUnits="userSpaceOnUse" maskUnits="objectBoundingBox" x="0" y="0" width="166" height="260" fill="white">
            <use xlink:href="#path-1"></use>
        </mask>
        <rect id="path-3" x="4.30769231" y="4.24489796" width="12.9230769" height="30.7755102"></rect>
        <mask id="mask-4" maskContentUnits="userSpaceOnUse" maskUnits="objectBoundingBox" x="0" y="0" width="12.9230769" height="30.7755102" fill="white">
            <use xlink:href="#path-3"></use>
        </mask>
        <rect id="path-5" x="21.5384615" y="4.24489796" width="12.9230769" height="30.7755102"></rect>
        <mask id="mask-6" maskContentUnits="userSpaceOnUse" maskUnits="objectBoundingBox" x="0" y="0" width="12.9230769" height="30.7755102" fill="white">
            <use xlink:href="#path-5"></use>
        </mask>
        <rect id="path-7" x="38.7692308" y="4.24489796" width="12.9230769" height="30.7755102"></rect>
        <mask id="mask-8" maskContentUnits="userSpaceOnUse" maskUnits="objectBoundingBox" x="0" y="0" width="12.9230769" height="30.7755102" fill="white">
            <use xlink:href="#path-7"></use>
        </mask>
        <rect id="path-9" x="56" y="4.24489796" width="12.9230769" height="30.7755102"></rect>
        <mask id="mask-10" maskContentUnits="userSpaceOnUse" maskUnits="objectBoundingBox" x="0" y="0" width="12.9230769" height="30.7755102" fill="white">
            <use xlink:href="#path-9"></use>
        </mask>
        <rect id="path-11" x="108.230769" y="7.95918367" width="10.7692308" height="43.5102041"></rect>
        <mask id="mask-12" maskContentUnits="userSpaceOnUse" maskUnits="objectBoundingBox" x="0" y="0" width="10.7692308" height="43.5102041" fill="white">
            <use xlink:href="#path-11"></use>
        </mask>
        <rect id="path-13" x="4.30769231" y="4.24489796" width="12.9230769" height="30.7755102"></rect>
        <mask id="mask-14" maskContentUnits="userSpaceOnUse" maskUnits="objectBoundingBox" x="0" y="0" width="12.9230769" height="30.7755102" fill="white">
            <use xlink:href="#path-13"></use>
        </mask>
        <rect id="path-15" x="21.5384615" y="4.24489796" width="12.9230769" height="30.7755102"></rect>
        <mask id="mask-16" maskContentUnits="userSpaceOnUse" maskUnits="objectBoundingBox" x="0" y="0" width="12.9230769" height="30.7755102" fill="white">
            <use xlink:href="#path-15"></use>
        </mask>
        <rect id="path-17" x="38.7692308" y="4.24489796" width="12.9230769" height="30.7755102"></rect>
        <mask id="mask-18" maskContentUnits="userSpaceOnUse" maskUnits="objectBoundingBox" x="0" y="0" width="12.9230769" height="30.7755102" fill="white">
            <use xlink:href="#path-17"></use>
        </mask>
        <rect id="path-19" x="56" y="4.24489796" width="12.9230769" height="30.7755102"></rect>
        <mask id="mask-20" maskContentUnits="userSpaceOnUse" maskUnits="objectBoundingBox" x="0" y="0" width="12.9230769" height="30.7755102" fill="white">
            <use xlink:href="#path-19"></use>
        </mask>
        <rect id="path-21" x="108.230769" y="7.95918367" width="10.7692308" height="43.5102041"></rect>
        <mask id="mask-22" maskContentUnits="userSpaceOnUse" maskUnits="objectBoundingBox" x="0" y="0" width="10.7692308" height="43.5102041" fill="white">
            <use xlink:href="#path-21"></use>
        </mask>
        <rect id="path-23" x="4.30769231" y="4.24489796" width="12.9230769" height="30.7755102"></rect>
        <mask id="mask-24" maskContentUnits="userSpaceOnUse" maskUnits="objectBoundingBox" x="0" y="0" width="12.9230769" height="30.7755102" fill="white">
            <use xlink:href="#path-23"></use>
        </mask>
        <rect id="path-25" x="21.5384615" y="4.24489796" width="12.9230769" height="30.7755102"></rect>
        <mask id="mask-26" maskContentUnits="userSpaceOnUse" maskUnits="objectBoundingBox" x="0" y="0" width="12.9230769" height="30.7755102" fill="white">
            <use xlink:href="#path-25"></use>
        </mask>
        <rect id="path-27" x="38.7692308" y="4.24489796" width="12.9230769" height="30.7755102"></rect>
        <mask id="mask-28" maskContentUnits="userSpaceOnUse" maskUnits="objectBoundingBox" x="0" y="0" width="12.9230769" height="30.7755102" fill="white">
            <use xlink:href="#path-27"></use>
        </mask>
        <rect id="path-29" x="56" y="4.24489796" width="12.9230769" height="30.7755102"></rect>
        <mask id="mask-30" maskContentUnits="userSpaceOnUse" maskUnits="objectBoundingBox" x="0" y="0" width="12.9230769" height="30.7755102" fill="white">
            <use xlink:href="#path-29"></use>
        </mask>
        <rect id="path-31" x="108.230769" y="7.95918367" width="10.7692308" height="43.5102041"></rect>
        <mask id="mask-32" maskContentUnits="userSpaceOnUse" maskUnits="objectBoundingBox" x="0" y="0" width="10.7692308" height="43.5102041" fill="white">
            <use xlink:href="#path-31"></use>
        </mask>
        <rect id="path-33" x="4.30769231" y="4.24489796" width="12.9230769" height="30.7755102"></rect>
        <mask id="mask-34" maskContentUnits="userSpaceOnUse" maskUnits="objectBoundingBox" x="0" y="0" width="12.9230769" height="30.7755102" fill="white">
            <use xlink:href="#path-33"></use>
        </mask>
        <rect id="path-35" x="21.5384615" y="4.24489796" width="12.9230769" height="30.7755102"></rect>
        <mask id="mask-36" maskContentUnits="userSpaceOnUse" maskUnits="objectBoundingBox" x="0" y="0" width="12.9230769" height="30.7755102" fill="white">
            <use xlink:href="#path-35"></use>
        </mask>
        <rect id="path-37" x="38.7692308" y="4.24489796" width="12.9230769" height="30.7755102"></rect>
        <mask id="mask-38" maskContentUnits="userSpaceOnUse" maskUnits="objectBoundingBox" x="0" y="0" width="12.9230769" height="30.7755102" fill="white">
            <use xlink:href="#path-37"></use>
        </mask>
        <rect id="path-39" x="56" y="4.24489796" width="12.9230769" height="30.7755102"></rect>
        <mask id="mask-40" maskContentUnits="userSpaceOnUse" maskUnits="objectBoundingBox" x="0" y="0" width="12.9230769" height="30.7755102" fill="white">
            <use xlink:href="#path-39"></use>
        </mask>
        <rect id="path-41" x="108.230769" y="7.95918367" width="10.7692308" height="43.5102041"></rect>
        <mask id="mask-42" maskContentUnits="userSpaceOnUse" maskUnits="objectBoundingBox" x="0" y="0" width="10.7692308" height="43.5102041" fill="white">
            <use xlink:href="#path-41"></use>
        </mask>
        <rect id="path-43" x="4.30769231" y="4.24489796" width="12.9230769" height="30.7755102"></rect>
        <mask id="mask-44" maskContentUnits="userSpaceOnUse" maskUnits="objectBoundingBox" x="0" y="0" width="12.9230769" height="30.7755102" fill="white">
            <use xlink:href="#path-43"></use>
        </mask>
        <rect id="path-45" x="21.5384615" y="4.24489796" width="12.9230769" height="30.7755102"></rect>
        <mask id="mask-46" maskContentUnits="userSpaceOnUse" maskUnits="objectBoundingBox" x="0" y="0" width="12.9230769" height="30.7755102" fill="white">
            <use xlink:href="#path-45"></use>
        </mask>
        <rect id="path-47" x="38.7692308" y="4.24489796" width="12.9230769" height="30.7755102"></rect>
        <mask id="mask-48" maskContentUnits="userSpaceOnUse" maskUnits="objectBoundingBox" x="0" y="0" width="12.9230769" height="30.7755102" fill="white">
            <use xlink:href="#path-47"></use>
        </mask>
        <rect id="path-49" x="56" y="4.24489796" width="12.9230769" height="30.7755102"></rect>
        <mask id="mask-50" maskContentUnits="userSpaceOnUse" maskUnits="objectBoundingBox" x="0" y="0" width="12.9230769" height="30.7755102" fill="white">
            <use xlink:href="#path-49"></use>
        </mask>
        <rect id="path-51" x="108.230769" y="7.95918367" width="10.7692308" height="43.5102041"></rect>
        <mask id="mask-52" maskContentUnits="userSpaceOnUse" maskUnits="objectBoundingBox" x="0" y="0" width="10.7692308" height="43.5102041" fill="white">
            <use xlink:href="#path-51"></use>
        </mask>
    </defs>
    <g id="Page-1" stroke="none" stroke-width="1" fill="none" fill-rule="evenodd">
        <g id="01.IT" transform="translate(-1071.000000, -650.000000)">
            <g id="Group-30" transform="translate(1071.000000, 650.000000)">
                <g id="Group-4" transform="translate(82.000000, 130.000000)"></g>
                <g id="Group-15-Copy" transform="translate(314.000000, 20.000000)">
                    <g id="Group-8" fill="#DDE1E7">
                        <use id="Rectangle-3" stroke="#C1D3DD" mask="url(#mask-2)" stroke-width="20" xlink:href="#path-1"></use>
                        <rect id="Rectangle-6" x="10.0666667" y="0" width="146" height="260"></rect>
                    </g>
                    <g id="Group-9" transform="translate(13.066667, 10.612245)">
                        <g id="Group-7"></g>
                        <rect id="Rectangle-6" fill="#3B3F50" x="49.5384615" y="4.24489796" width="10.7692308" height="30.7755102"></rect>
                        <rect id="Rectangle-6" fill="#3B3F50" x="49.5384615" y="4.24489796" width="10.7692308" height="30.7755102"></rect>
                        <rect id="Rectangle-6" fill="#3B3F50" x="49.5384615" y="4.24489796" width="10.7692308" height="30.7755102"></rect>
                        <rect id="Rectangle-6" fill="#3B3F50" x="49.5384615" y="4.24489796" width="10.7692308" height="30.7755102"></rect>
                        <rect id="Rectangle-6" fill="#535A6B" x="0" y="0" width="140" height="39.2653061"></rect>
                        <use id="Rectangle-6" stroke="#393C48" mask="url(#mask-4)" stroke-width="2" fill="#3B3F50" xlink:href="#path-3"></use>
                        <use id="Rectangle-6-Copy-2" stroke="#393C48" mask="url(#mask-6)" stroke-width="2" fill="#3B3F50" xlink:href="#path-5"></use>
                        <use id="Rectangle-6" stroke="#393C48" mask="url(#mask-8)" stroke-width="2" fill="#3B3F50" xlink:href="#path-7"></use>
                        <use id="Rectangle-6-Copy-2" stroke="#393C48" mask="url(#mask-10)" stroke-width="2" fill="#3B3F50" xlink:href="#path-9"></use>
                        <use id="Rectangle-6-Copy" stroke="#393C48" mask="url(#mask-12)" stroke-width="2" fill="#3B3F50" transform="translate(113.615385, 29.714286) rotate(-270.000000) translate(-113.615385, -29.714286) " xlink:href="#path-11"></use>
                        <ellipse id="Oval-2" fill="#54AAEF" cx="102.307692" cy="13.7959184" rx="2.15384615" ry="2.12244898"></ellipse>
                        <ellipse id="Oval-2" fill="#54AAEF" cx="109.846154" cy="13.7959184" rx="2.15384615" ry="2.12244898"></ellipse>
                        <ellipse id="Oval-2" fill="#54AAEF" cx="117.384615" cy="13.7959184" rx="2.15384615" ry="2.12244898"></ellipse>
                        <ellipse id="Oval-2" fill="#54AAEF" cx="124.923077" cy="13.7959184" rx="2.15384615" ry="2.12244898"></ellipse>
                    </g>
                    <g id="Group-10" transform="translate(13.066667, 60.489796)">
                        <g id="Group-7"></g>
                        <rect id="Rectangle-6" fill="#3B3F50" x="49.5384615" y="4.24489796" width="10.7692308" height="30.7755102"></rect>
                        <rect id="Rectangle-6" fill="#3B3F50" x="49.5384615" y="4.24489796" width="10.7692308" height="30.7755102"></rect>
                        <rect id="Rectangle-6" fill="#3B3F50" x="49.5384615" y="4.24489796" width="10.7692308" height="30.7755102"></rect>
                        <rect id="Rectangle-6" fill="#3B3F50" x="49.5384615" y="4.24489796" width="10.7692308" height="30.7755102"></rect>
                        <rect id="Rectangle-6" fill="#535A6B" x="0" y="0" width="140" height="39.2653061"></rect>
                        <use id="Rectangle-6" stroke="#393C48" mask="url(#mask-14)" stroke-width="2" fill="#3B3F50" xlink:href="#path-13"></use>
                        <use id="Rectangle-6-Copy-2" stroke="#393C48" mask="url(#mask-16)" stroke-width="2" fill="#3B3F50" xlink:href="#path-15"></use>
                        <use id="Rectangle-6" stroke="#393C48" mask="url(#mask-18)" stroke-width="2" fill="#3B3F50" xlink:href="#path-17"></use>
                        <use id="Rectangle-6-Copy-2" stroke="#393C48" mask="url(#mask-20)" stroke-width="2" fill="#3B3F50" xlink:href="#path-19"></use>
                        <use id="Rectangle-6-Copy" stroke="#393C48" mask="url(#mask-22)" stroke-width="2" fill="#3B3F50" transform="translate(113.615385, 29.714286) rotate(-270.000000) translate(-113.615385, -29.714286) " xlink:href="#path-21"></use>
                        <ellipse id="Oval-2" fill="#54AAEF" cx="102.307692" cy="13.7959184" rx="2.15384615" ry="2.12244898"></ellipse>
                        <ellipse id="Oval-2" fill="#54AAEF" cx="109.846154" cy="13.7959184" rx="2.15384615" ry="2.12244898"></ellipse>
                        <ellipse id="Oval-2" fill="#54AAEF" cx="117.384615" cy="13.7959184" rx="2.15384615" ry="2.12244898"></ellipse>
                        <ellipse id="Oval-2" fill="#54AAEF" cx="124.923077" cy="13.7959184" rx="2.15384615" ry="2.12244898"></ellipse>
                    </g>
                    <g id="Group-11" transform="translate(13.066667, 110.367347)">
                        <g id="Group-7"></g>
                        <rect id="Rectangle-6" fill="#3B3F50" x="49.5384615" y="4.24489796" width="10.7692308" height="30.7755102"></rect>
                        <rect id="Rectangle-6" fill="#3B3F50" x="49.5384615" y="4.24489796" width="10.7692308" height="30.7755102"></rect>
                        <rect id="Rectangle-6" fill="#3B3F50" x="49.5384615" y="4.24489796" width="10.7692308" height="30.7755102"></rect>
                        <rect id="Rectangle-6" fill="#3B3F50" x="49.5384615" y="4.24489796" width="10.7692308" height="30.7755102"></rect>
                        <rect id="Rectangle-6" fill="#535A6B" x="0" y="0" width="140" height="39.2653061"></rect>
                        <use id="Rectangle-6" stroke="#393C48" mask="url(#mask-24)" stroke-width="2" fill="#3B3F50" xlink:href="#path-23"></use>
                        <use id="Rectangle-6-Copy-2" stroke="#393C48" mask="url(#mask-26)" stroke-width="2" fill="#3B3F50" xlink:href="#path-25"></use>
                        <use id="Rectangle-6" stroke="#393C48" mask="url(#mask-28)" stroke-width="2" fill="#3B3F50" xlink:href="#path-27"></use>
                        <use id="Rectangle-6-Copy-2" stroke="#393C48" mask="url(#mask-30)" stroke-width="2" fill="#3B3F50" xlink:href="#path-29"></use>
                        <use id="Rectangle-6-Copy" stroke="#393C48" mask="url(#mask-32)" stroke-width="2" fill="#3B3F50" transform="translate(113.615385, 29.714286) rotate(-270.000000) translate(-113.615385, -29.714286) " xlink:href="#path-31"></use>
                        <ellipse id="Oval-2" fill="#54AAEF" cx="102.307692" cy="13.7959184" rx="2.15384615" ry="2.12244898"></ellipse>
                        <ellipse id="Oval-2" fill="#54AAEF" cx="109.846154" cy="13.7959184" rx="2.15384615" ry="2.12244898"></ellipse>
                        <ellipse id="Oval-2" fill="#54AAEF" cx="117.384615" cy="13.7959184" rx="2.15384615" ry="2.12244898"></ellipse>
                        <ellipse id="Oval-2" fill="#54AAEF" cx="124.923077" cy="13.7959184" rx="2.15384615" ry="2.12244898"></ellipse>
                    </g>
                    <g id="Group-12" transform="translate(13.066667, 160.244898)">
                        <g id="Group-7"></g>
                        <rect id="Rectangle-6" fill="#3B3F50" x="49.5384615" y="4.24489796" width="10.7692308" height="30.7755102"></rect>
                        <rect id="Rectangle-6" fill="#3B3F50" x="49.5384615" y="4.24489796" width="10.7692308" height="30.7755102"></rect>
                        <rect id="Rectangle-6" fill="#3B3F50" x="49.5384615" y="4.24489796" width="10.7692308" height="30.7755102"></rect>
                        <rect id="Rectangle-6" fill="#3B3F50" x="49.5384615" y="4.24489796" width="10.7692308" height="30.7755102"></rect>
                        <rect id="Rectangle-6" fill="#535A6B" x="0" y="0" width="140" height="39.2653061"></rect>
                        <use id="Rectangle-6" stroke="#393C48" mask="url(#mask-34)" stroke-width="2" fill="#3B3F50" xlink:href="#path-33"></use>
                        <use id="Rectangle-6-Copy-2" stroke="#393C48" mask="url(#mask-36)" stroke-width="2" fill="#3B3F50" xlink:href="#path-35"></use>
                        <use id="Rectangle-6" stroke="#393C48" mask="url(#mask-38)" stroke-width="2" fill="#3B3F50" xlink:href="#path-37"></use>
                        <use id="Rectangle-6-Copy-2" stroke="#393C48" mask="url(#mask-40)" stroke-width="2" fill="#3B3F50" xlink:href="#path-39"></use>
                        <use id="Rectangle-6-Copy" stroke="#393C48" mask="url(#mask-42)" stroke-width="2" fill="#3B3F50" transform="translate(113.615385, 29.714286) rotate(-270.000000) translate(-113.615385, -29.714286) " xlink:href="#path-41"></use>
                        <ellipse id="Oval-2" fill="#54AAEF" cx="102.307692" cy="13.7959184" rx="2.15384615" ry="2.12244898"></ellipse>
                        <ellipse id="Oval-2" fill="#54AAEF" cx="109.846154" cy="13.7959184" rx="2.15384615" ry="2.12244898"></ellipse>
                        <ellipse id="Oval-2" fill="#54AAEF" cx="117.384615" cy="13.7959184" rx="2.15384615" ry="2.12244898"></ellipse>
                        <ellipse id="Oval-2" fill="#54AAEF" cx="124.923077" cy="13.7959184" rx="2.15384615" ry="2.12244898"></ellipse>
                    </g>
                    <g id="Group-13" transform="translate(13.066667, 210.122449)">
                        <g id="Group-7"></g>
                        <rect id="Rectangle-6" fill="#3B3F50" x="49.5384615" y="4.24489796" width="10.7692308" height="30.7755102"></rect>
                        <rect id="Rectangle-6" fill="#3B3F50" x="49.5384615" y="4.24489796" width="10.7692308" height="30.7755102"></rect>
                        <rect id="Rectangle-6" fill="#3B3F50" x="49.5384615" y="4.24489796" width="10.7692308" height="30.7755102"></rect>
                        <rect id="Rectangle-6" fill="#3B3F50" x="49.5384615" y="4.24489796" width="10.7692308" height="30.7755102"></rect>
                        <rect id="Rectangle-6" fill="#535A6B" x="0" y="0" width="140" height="39.2653061"></rect>
                        <use id="Rectangle-6" stroke="#393C48" mask="url(#mask-44)" stroke-width="2" fill="#3B3F50" xlink:href="#path-43"></use>
                        <use id="Rectangle-6-Copy-2" stroke="#393C48" mask="url(#mask-46)" stroke-width="2" fill="#3B3F50" xlink:href="#path-45"></use>
                        <use id="Rectangle-6" stroke="#393C48" mask="url(#mask-48)" stroke-width="2" fill="#3B3F50" xlink:href="#path-47"></use>
                        <use id="Rectangle-6-Copy-2" stroke="#393C48" mask="url(#mask-50)" stroke-width="2" fill="#3B3F50" xlink:href="#path-49"></use>
                        <use id="Rectangle-6-Copy" stroke="#393C48" mask="url(#mask-52)" stroke-width="2" fill="#3B3F50" transform="translate(113.615385, 29.714286) rotate(-270.000000) translate(-113.615385, -29.714286) " xlink:href="#path-51"></use>
                        <g id="Group-14" transform="translate(100.153846, 11.673469)" fill="#54AAEF">
                            <ellipse id="Oval-2" cx="2.15384615" cy="2.12244898" rx="2.15384615" ry="2.12244898"></ellipse>
                            <ellipse id="Oval-2" cx="9.69230769" cy="2.12244898" rx="2.15384615" ry="2.12244898"></ellipse>
                            <ellipse id="Oval-2" cx="17.2307692" cy="2.12244898" rx="2.15384615" ry="2.12244898"></ellipse>
                            <ellipse id="Oval-2" cx="24.7692308" cy="2.12244898" rx="2.15384615" ry="2.12244898"></ellipse>
                        </g>
                    </g>
                </g>
                <path d="M221.887143,177.993571 L221.887143,177.359286 L222.283571,177.597143 C222.204286,177.676429 222.204286,177.755714 222.045714,177.835 C222.045714,177.914286 221.966429,177.914286 221.887143,177.993571 L221.887143,177.993571 Z M221.887143,174.980714 L223.314286,175.694286 L222.283571,177.597143 L222.362857,177.517857 L222.68,176.962857 L222.997143,176.407857 L223.314286,175.852857 L223.314286,175.852857 C223.79,174.901429 222.759286,173.95 221.887143,174.425714 L221.887143,174.980714 L221.887143,174.980714 Z M225.851429,165.307857 C225.375714,166.497143 226.961429,167.29 227.675,166.259286 C227.675,166.18 227.754286,166.100714 227.754286,166.100714 L227.833571,165.862857 L228.071429,165.228571 L228.309286,164.594286 L228.467857,164.118571 C228.864286,163.087857 227.516429,162.215714 226.723571,163.008571 C226.644286,163.087857 226.565,163.246429 226.485714,163.325714 L226.327143,163.801429 L226.089286,164.435714 L225.930714,165.149286 L225.851429,165.307857 L225.851429,165.307857 Z M229.895,153.573571 C229.577857,154.683571 231.084286,155.397143 231.797857,154.445714 C231.877143,154.366429 231.877143,154.287143 231.956429,154.128571 L232.115,153.652857 L232.273571,153.018571 L232.432143,152.384286 L232.511429,152.146429 C232.828571,150.957143 231.163571,150.322857 230.529286,151.432857 C230.529286,151.512143 230.45,151.591429 230.45,151.670714 L230.370714,151.908571 L230.212143,152.542857 L230.053571,153.177143 L229.895,153.573571 L229.895,153.573571 Z M232.590714,141.442857 C232.432143,142.552857 233.859286,143.107857 234.493571,142.156429 C234.572857,141.997857 234.652143,141.918571 234.652143,141.76 L234.652143,141.522143 L234.731429,140.808571 L234.810714,140.095 L234.89,139.619286 C234.89,139.302143 234.810714,139.064286 234.652143,138.826429 C234.097143,138.112857 232.907857,138.43 232.828571,139.381429 L232.749286,139.857143 L232.67,140.570714 L232.590714,141.284286 L232.590714,141.442857 L232.590714,141.442857 Z M233.859286,129.074286 C233.859286,130.263571 235.445,130.580714 235.920714,129.470714 C235.920714,129.391429 236,129.312143 236,129.153571 L236,128.915714 L236,128.202143 L236,127.488571 L236,127.012857 C236,126.695714 235.841429,126.299286 235.524286,126.140714 C234.810714,125.665 233.938571,126.140714 233.859286,126.933571 L233.859286,127.409286 L233.859286,128.122857 L233.859286,128.836429 L233.859286,129.074286 L233.859286,129.074286 Z M233.78,116.626429 C233.859286,117.736429 235.445,117.974286 235.841429,116.864286 C235.841429,116.705714 235.920714,116.626429 235.920714,116.467857 L235.920714,116.071429 L235.841429,115.357857 L235.762143,114.644286 L235.762143,114.327143 C235.682857,113.217143 234.017857,112.979286 233.700714,114.168571 C233.700714,114.327143 233.621429,114.406429 233.700714,114.565 L233.700714,114.882143 L233.78,115.595714 L233.859286,116.309286 L233.78,116.626429 L233.78,116.626429 Z M232.194286,104.337143 C232.432143,105.526429 234.176429,105.447143 234.255714,104.257857 L234.255714,104.02 L234.176429,103.702857 L234.017857,102.989286 L233.859286,102.275714 L233.78,101.879286 C233.542143,100.769286 231.956429,100.769286 231.718571,101.879286 L231.718571,102.275714 L231.797857,102.672143 L231.956429,103.306429 L232.115,103.940714 L232.194286,104.337143 L232.194286,104.337143 Z M229.260714,92.2064286 C229.577857,93.3164286 231.242857,93.1578571 231.322143,91.9685714 C231.322143,91.81 231.322143,91.7307143 231.242857,91.5721429 L231.242857,91.5721429 L231.005,90.9378571 L230.767143,90.3035714 L230.529286,89.6692857 L230.529286,89.59 C230.132857,88.48 228.467857,88.7178571 228.467857,89.9864286 C228.467857,90.0657143 228.467857,90.145 228.547143,90.3035714 L228.547143,90.3828571 L228.785,91.0171429 L229.022857,91.6514286 L229.260714,92.2064286 L229.260714,92.2064286 L229.260714,92.2064286 Z M224.979286,80.5514286 C225.455,81.5821429 227.040714,81.265 226.961429,80.0757143 C226.961429,79.9171429 226.961429,79.8378571 226.882143,79.7585714 L226.802857,79.5207143 L226.565,78.8864286 L226.327143,78.2521429 L226.089286,77.7764286 C225.930714,77.5385714 225.772143,77.3007143 225.455,77.2214286 C224.582857,76.9835714 223.79,77.8557143 224.186429,78.6485714 L224.424286,79.1242857 L224.662143,79.7585714 L224.9,80.3928571 L224.979286,80.5514286 Z M221.887143,174.267143 L221.887143,174.901429 L221.490714,174.663571 L221.490714,174.663571 L221.490714,174.663571 C221.57,174.584286 221.57,174.505 221.649286,174.425714 C221.728571,174.425714 221.807857,174.346429 221.887143,174.267143 L221.887143,174.267143 Z M221.887143,177.359286 L221.887143,177.993571 C221.015,178.469286 219.984286,177.517857 220.46,176.566429 L221.887143,177.359286 L221.887143,177.359286 Z M188.983571,214.782143 L188.983571,214.782143 L190.49,213.751429 L189.221429,212.086429 L189.221429,212.086429 L189.221429,212.086429 C189.300714,212.007143 189.38,212.007143 189.538571,211.927857 C190.727857,211.610714 191.441429,213.037857 190.49,213.751429 L190.49,213.751429 L189.935,214.147857 L189.38,214.544286 L188.983571,214.782143 L188.983571,214.782143 Z M188.983571,212.165714 L189.221429,212.007143 L188.983571,212.165714 L188.983571,212.165714 L188.983571,212.165714 Z M197.229286,205.505714 C196.515714,206.14 196.912143,207.25 197.863571,207.329286 C198.180714,207.329286 198.418571,207.25 198.656429,207.091429 L198.735714,207.012143 L199.211429,206.536429 L199.687143,206.060714 L200.162857,205.585 L200.162857,205.585 C200.321429,205.426429 200.48,205.109286 200.48,204.871429 C200.48,203.92 199.449286,203.444286 198.735714,204.078571 L198.735714,204.078571 L198.26,204.554286 L197.784286,205.03 L197.229286,205.505714 L197.229286,205.505714 L197.229286,205.505714 Z M206.109286,196.784286 C205.395714,197.577143 206.267857,198.925 207.377857,198.449286 C207.536429,198.37 207.615714,198.290714 207.695,198.211429 L207.774286,198.132143 L208.25,197.656429 L208.725714,197.180714 L209.201429,196.705 L209.201429,196.705 C209.915,195.832857 208.963571,194.564286 207.932857,195.119286 C207.774286,195.198571 207.695,195.277857 207.615714,195.357143 L207.615714,195.357143 L207.219286,195.832857 L206.822857,196.308571 L206.109286,196.784286 L206.109286,196.784286 L206.109286,196.784286 Z M213.879286,187.032143 C213.165714,188.062857 214.513571,189.252143 215.465,188.38 C215.544286,188.300714 215.544286,188.300714 215.623571,188.221429 L215.623571,188.142143 L216.02,187.587143 L216.416429,187.032143 L216.812857,186.477143 L216.812857,186.397857 C216.971429,186.16 217.050714,185.763571 216.892143,185.446429 C216.575,184.653571 215.544286,184.495 215.068571,185.208571 L215.068571,185.208571 L214.672143,185.763571 L214.275714,186.318571 L213.879286,187.032143 L213.879286,187.032143 L213.879286,187.032143 Z M221.490714,174.742857 L220.539286,176.566429 L220.618571,176.487143 L220.935714,175.932143 L221.252857,175.377143 L221.490714,174.742857 L221.490714,174.742857 Z M219.429286,69.4514286 C219.667143,69.8478571 220.063571,70.0064286 220.539286,69.9271429 C221.252857,69.7685714 221.649286,68.9757143 221.252857,68.3414286 L221.094286,68.0242857 L220.777143,67.4692857 L220.46,66.9142857 L220.222143,66.5178571 C219.587857,65.5664286 218.081429,66.1214286 218.319286,67.2314286 C218.319286,67.39 218.398571,67.4692857 218.477857,67.5485714 L218.715714,67.945 L219.032857,68.5 L219.35,69.055 L219.429286,69.4514286 L219.429286,69.4514286 Z M212.531429,59.065 C212.848571,59.4614286 213.324286,59.62 213.8,59.3821429 C214.434286,59.1442857 214.592857,58.3514286 214.196429,57.7964286 L213.958571,57.4792857 L213.562143,56.9242857 L213.165714,56.3692857 L212.927857,56.0521429 C212.610714,55.735 212.214286,55.5764286 211.817857,55.735 C211.104286,55.9728571 210.866429,56.7657143 211.342143,57.4 L211.58,57.7171429 L211.976429,58.2721429 L212.372857,58.8271429 L212.531429,59.065 L212.531429,59.065 Z M204.602857,49.5507143 C204.840714,49.8678571 205.237143,49.9471429 205.633571,49.8678571 C206.426429,49.7092857 206.664286,48.6785714 206.109286,48.1235714 L205.871429,47.8857143 L205.395714,47.41 L204.92,46.9342857 L204.602857,46.6171429 C203.730714,45.745 202.303571,46.7757143 202.937857,47.8857143 C203.017143,47.965 203.017143,48.0442857 203.096429,48.1235714 L203.413571,48.4407143 L203.889286,48.9164286 L204.365,49.3921429 L204.602857,49.5507143 L204.602857,49.5507143 Z M195.564286,40.9878571 C196.436429,41.7014286 197.625714,40.75 197.15,39.7192857 C197.070714,39.5607143 196.991429,39.4814286 196.912143,39.4021429 L196.674286,39.2435714 L196.198571,38.8471429 L195.722857,38.4507143 L195.326429,38.1335714 C195.009286,37.8164286 194.454286,37.8164286 194.057857,38.0542857 C193.502857,38.4507143 193.423571,39.3228571 193.978571,39.7192857 L194.375,40.0364286 L194.850714,40.4328571 L195.326429,40.8292857 L195.564286,40.9878571 Z M125.079286,13 L125.079286,13 L125.079286,13 L125.079286,13 L125.079286,13 L125.079286,13 L124.762143,13 C124.445,13 124.207143,13.1585714 123.969286,13.3964286 C123.414286,14.11 123.89,15.1407143 124.762143,15.1407143 L125,15.1407143 L125,15.1407143 L125,15.1407143 L125,15.1407143 L125.713571,15.1407143 L126.427143,15.1407143 L127.061429,15.1407143 C128.171429,15.1407143 128.567857,13.6342857 127.537143,13.1585714 C127.378571,13.0792857 127.22,13.0792857 127.061429,13.0792857 L126.427143,13.0792857 L125.713571,13.0792857 L125.079286,13 L125.079286,13 Z M188.983571,212.165714 L188.983571,212.165714 L188.666429,212.403571 L188.111429,212.8 L187.556429,213.196429 L187.477143,213.275714 L188.983571,212.165714 L188.983571,212.165714 Z M188.983571,214.782143 L188.983571,214.782143 L188.825,214.861429 L188.745714,214.940714 L188.983571,214.782143 L188.983571,214.782143 Z M114.455,15.5371429 C115.565,15.4578571 115.723571,13.8721429 114.692857,13.4757143 C114.534286,13.3964286 114.455,13.3964286 114.296429,13.3964286 L113.820714,13.4757143 L113.107143,13.555 L112.393571,13.6342857 L112.235,13.6342857 C111.759286,13.7135714 111.362857,14.11 111.283571,14.5857143 C111.204286,15.22 111.838571,15.775 112.472857,15.6957143 L112.631429,15.6957143 L113.345,15.6164286 L114.058571,15.5371429 L114.455,15.5371429 L114.455,15.5371429 Z M102.165714,17.44 C103.196429,17.2021429 103.275714,15.6957143 102.165714,15.3785714 L101.69,15.3785714 L101.293571,15.4578571 L100.659286,15.6164286 L100.025,15.775 L99.7078571,15.8542857 C98.5978571,16.0921429 98.6771429,17.7571429 99.8664286,17.9157143 L100.183571,17.9157143 L100.500714,17.8364286 L101.135,17.6778571 L101.769286,17.5192857 L102.165714,17.44 L102.165714,17.44 Z M90.1935714,20.77 C91.3035714,20.3735714 91.0657143,18.7878571 89.8764286,18.7085714 C89.7178571,18.7085714 89.6385714,18.7085714 89.48,18.7878571 L89.48,18.7878571 L88.8457143,19.0257143 L88.2114286,19.2635714 L87.5771429,19.5014286 L87.4978571,19.5014286 C86.4671429,19.8978571 86.6257143,21.4042857 87.7357143,21.5628571 C87.8942857,21.5628571 88.0528571,21.5628571 88.2114286,21.4835714 L88.2114286,21.4835714 L88.8457143,21.2457143 L89.48,21.0078571 L90.1935714,20.77 L90.1935714,20.77 L90.1935714,20.77 Z M78.6178571,25.4478571 C79.6485714,24.9721429 79.2521429,23.3864286 78.1421429,23.4657143 C77.9835714,23.4657143 77.9042857,23.4657143 77.7457143,23.545 L77.5871429,23.6242857 L76.9528571,23.9414286 L76.3185714,24.2585714 L75.8428571,24.4964286 C75.605,24.5757143 75.4464286,24.7342857 75.3671429,24.9721429 C74.8914286,25.9235714 75.8428571,26.7957143 76.7942857,26.3992857 L77.27,26.1614286 L77.825,25.8442857 L78.4592857,25.5271429 L78.6178571,25.4478571 L78.6178571,25.4478571 Z M67.7557143,31.3942857 C68.7071429,30.76 68.1521429,29.2535714 67.0421429,29.4914286 C66.8835714,29.4914286 66.8042857,29.5707143 66.6457143,29.65 L66.4078571,29.8085714 L65.8528571,30.1257143 L65.2978571,30.5221429 L64.9014286,30.76 C64.4257143,31.0771429 64.2671429,31.7114286 64.5842857,32.1871429 C64.9014286,32.6628571 65.5357143,32.8214286 66.0114286,32.5042857 L66.4078571,32.2664286 L66.9628571,31.9492857 L67.5178571,31.6321429 L67.7557143,31.3942857 L67.7557143,31.3942857 Z M57.5278571,38.53 C58.4,37.8164286 57.6864286,36.31 56.4971429,36.7064286 C56.4178571,36.7857143 56.2592857,36.7857143 56.18,36.865 L55.9421429,37.0235714 L55.3871429,37.42 L54.8321429,37.8164286 L54.4357143,38.1335714 C53.5635714,38.8471429 54.3564286,40.2742857 55.4664286,39.9571429 C55.625,39.8778571 55.7042857,39.8778571 55.7835714,39.7985714 L56.18,39.4814286 L56.6557143,39.085 L57.1314286,38.6885714 L57.5278571,38.53 L57.5278571,38.53 Z M48.2514286,46.7757143 C49.1235714,45.9035714 48.0928571,44.4764286 46.9035714,45.19 C46.8242857,45.2692857 46.8242857,45.2692857 46.745,45.3485714 L46.5864286,45.5071429 L46.1107143,45.9828571 L45.635,46.4585714 L45.3178571,46.855 C45.0007143,47.1721429 44.9214286,47.7271429 45.1592857,48.1235714 C45.5557143,48.6785714 46.3485714,48.7578571 46.8242857,48.2821429 L47.1414286,47.965 L47.6171429,47.4892857 L48.0928571,47.0135714 L48.2514286,46.7757143 L48.2514286,46.7757143 Z M39.9264286,56.0521429 C40.64,55.18 39.6092857,53.9114286 38.5785714,54.4664286 C38.42,54.5457143 38.3407143,54.625 38.2614286,54.7042857 L38.1028571,54.8628571 L37.7064286,55.4178571 L37.31,55.9728571 L36.9928571,56.3692857 C36.2792857,57.3207143 37.3892857,58.51 38.42,57.8757143 C38.4992857,57.7964286 38.5785714,57.7171429 38.6578571,57.6378571 L38.975,57.2414286 L39.3714286,56.6864286 L39.7678571,56.2107143 L39.9264286,56.0521429 L39.9264286,56.0521429 Z M32.7907143,66.1214286 C33.3457143,65.2492857 32.3942857,64.1392857 31.3635714,64.615 C31.205,64.6942857 31.1257143,64.8528571 30.9671429,65.0114286 L30.8878571,65.2492857 L30.5707143,65.8042857 L30.2535714,66.3592857 L30.0157143,66.835 C29.3814286,67.8657143 30.7292857,68.9757143 31.6807143,68.1035714 C31.76,68.0242857 31.76,67.945 31.8392857,67.945 L32.0771429,67.5485714 L32.3942857,66.9935714 L32.7114286,66.4385714 L32.7907143,66.1214286 L32.7907143,66.1214286 Z M26.765,77.0628571 C27.2407143,76.0321429 26.0514286,75.0807143 25.1,75.8735714 C25.0207143,75.9528571 24.9414286,76.0321429 24.8621429,76.1907143 L24.7035714,76.5078571 L24.3864286,77.1421429 L24.0692857,77.7764286 L23.9107143,78.1728571 C23.435,79.2035714 24.7828571,80.155 25.5757143,79.3621429 C25.655,79.2828571 25.7342857,79.2035714 25.8135714,79.045 L25.9721429,78.6485714 L26.2892857,78.0142857 L26.6064286,77.38 L26.765,77.0628571 L26.765,77.0628571 Z M22.0871429,88.5592857 C22.4835714,87.5285714 21.0564286,86.6564286 20.3428571,87.5285714 C20.2635714,87.6078571 20.1842857,87.7664286 20.105,87.8457143 L19.9464286,88.3214286 L19.7085714,88.9557143 L19.4707143,89.59 L19.3914286,89.8278571 C18.995,91.0171429 20.66,91.7307143 21.2942857,90.6207143 C21.2942857,90.5414286 21.3735714,90.4621429 21.3735714,90.4621429 L21.4528571,90.2242857 L21.6907143,89.59 L21.9285714,88.9557143 L22.0871429,88.5592857 L22.0871429,88.5592857 Z M18.6778571,100.531429 C18.9157143,99.4214286 17.4885714,98.7871429 16.775,99.7385714 C16.6957143,99.8178571 16.6164286,99.9764286 16.6164286,100.055714 L16.6164286,100.214286 L16.4578571,100.927857 L16.2992857,101.641429 L16.22,102.196429 C15.9821429,103.306429 17.4092857,103.940714 18.1228571,102.989286 C18.2021429,102.830714 18.2814286,102.751429 18.2814286,102.592857 L18.3607143,102.037857 L18.5192857,101.403571 L18.6778571,100.769286 L18.6778571,100.531429 L18.6778571,100.531429 Z M16.775,112.820714 C16.8542857,111.631429 15.2685714,111.235 14.7928571,112.265714 C14.7135714,112.345 14.7135714,112.503571 14.7135714,112.582857 L14.7135714,112.582857 L14.6342857,113.296429 L14.555,114.01 L14.4757143,114.644286 C14.3964286,115.833571 16.0614286,116.23 16.5371429,115.040714 C16.5371429,114.961429 16.6164286,114.882143 16.6164286,114.802857 L16.6957143,114.168571 L16.775,113.455 L16.775,112.820714 L16.775,112.820714 L16.775,112.820714 Z M16.1407143,125.189286 C16.1407143,124.951429 16.0614286,124.713571 15.9028571,124.555 C15.2685714,123.762143 14,124.158571 14,125.189286 L14,125.347857 L14,126.061429 L14,126.775 L14,127.33 C14,128.519286 15.665,128.757143 16.0614286,127.567857 C16.0614286,127.488571 16.1407143,127.33 16.1407143,127.250714 L16.1407143,126.775 L16.1407143,126.061429 L16.1407143,125.347857 L16.1407143,125.189286 L16.1407143,125.189286 Z M17.0128571,137.637143 C16.8542857,136.606429 15.5857143,136.368571 15.0307143,137.240714 C14.9514286,137.478571 14.8721429,137.637143 14.8721429,137.875 L14.8721429,138.112857 L14.9514286,138.826429 L15.0307143,139.54 L15.11,140.015714 C15.2685714,141.046429 16.6957143,141.284286 17.0921429,140.253571 C17.1714286,140.095 17.1714286,139.936429 17.1714286,139.698571 L17.0921429,139.222857 L17.0128571,138.509286 L16.9335714,137.795714 L17.0128571,137.637143 L17.0128571,137.637143 Z M19.2328571,149.847143 C18.995,148.737143 17.33,148.816429 17.1714286,150.005714 L17.1714286,150.322857 L17.1714286,150.322857 L17.33,150.957143 L17.4885714,151.591429 L17.6471429,152.225714 L17.6471429,152.225714 C17.9642857,153.335714 19.6292857,153.177143 19.7085714,151.987857 L19.7085714,151.670714 L19.7085714,151.670714 L19.55,151.036429 L19.3914286,150.402143 L19.2328571,149.847143 L19.2328571,149.847143 L19.2328571,149.847143 Z M22.88,161.74 C22.4042857,160.63 20.7392857,160.947143 20.8185714,162.215714 C20.8185714,162.295 20.8185714,162.374286 20.8978571,162.453571 L20.9771429,162.770714 L21.215,163.405 L21.4528571,164.039286 L21.6114286,164.435714 C21.77,164.832143 22.2457143,165.149286 22.7214286,165.07 C23.435,164.990714 23.8314286,164.277143 23.5935714,163.642857 L23.435,163.246429 L23.1971429,162.612143 L22.9592857,161.977857 L22.88,161.74 L22.88,161.74 Z M27.875,173.157143 C27.32,172.126429 25.8135714,172.602143 25.8928571,173.791429 C25.8928571,173.95 25.9721429,174.029286 25.9721429,174.108571 L26.21,174.505 L26.5271429,175.139286 L26.8442857,175.773571 L27.0028571,176.011429 C27.0821429,176.17 27.2407143,176.328571 27.3992857,176.407857 C28.3507143,176.883571 29.3021429,175.932143 28.8264286,174.980714 L28.6678571,174.742857 L28.3507143,174.187857 L28.0335714,173.632857 L27.875,173.157143 L27.875,173.157143 Z M34.1385714,183.860714 C33.5042857,182.909286 32.0771429,183.543571 32.2357143,184.653571 C32.2357143,184.812143 32.315,184.891429 32.3942857,185.05 L32.7114286,185.525714 L33.1078571,186.080714 L33.5042857,186.635714 L33.6628571,186.873571 C34.2971429,187.745714 35.7242857,187.190714 35.5657143,186.080714 C35.5657143,185.922143 35.4864286,185.842857 35.4071429,185.684286 L35.2485714,185.525714 L34.8521429,184.970714 L34.4557143,184.415714 L34.1385714,183.860714 L34.1385714,183.860714 Z M41.5121429,193.850714 C40.7985714,192.978571 39.3714286,193.771429 39.6885714,194.802143 C39.7678571,194.960714 39.7678571,195.04 39.9264286,195.198571 L40.2435714,195.595 L40.64,196.070714 L41.0364286,196.546429 L41.195,196.705 C41.3535714,196.863571 41.5914286,197.022143 41.8292857,197.022143 C42.7807143,197.180714 43.415,196.070714 42.7807143,195.277857 L42.6221429,195.119286 L42.2257143,194.643571 L41.8292857,194.167857 L41.5121429,193.850714 L41.5121429,193.850714 Z M50.075,202.889286 C49.9164286,202.730714 49.7578571,202.651429 49.52,202.651429 C48.4892857,202.492857 47.9342857,203.761429 48.6478571,204.475 L49.0442857,204.792143 L49.52,205.267857 L49.9957143,205.743571 L50.2335714,205.902143 C50.3921429,206.060714 50.63,206.14 50.8678571,206.14 C51.8192857,206.219286 52.3742857,204.950714 51.6607143,204.316429 L51.5021429,204.157857 L51.0264286,203.682143 L50.5507143,203.206429 L50.075,202.889286 L50.075,202.889286 Z M59.51,210.976429 C58.5585714,210.262857 57.3692857,211.372857 58.0035714,212.403571 C58.0828571,212.482857 58.1621429,212.562143 58.2414286,212.641429 L58.6378571,212.958571 L59.1928571,213.355 L59.7478571,213.751429 L59.9857143,213.91 C60.6992857,214.465 61.73,213.830714 61.6507143,213.037857 C61.6507143,212.720714 61.4921429,212.403571 61.2542857,212.245 L61.0164286,212.086429 L60.4614286,211.69 L59.9064286,211.293571 L59.51,210.976429 L59.51,210.976429 Z M69.8964286,217.874286 C68.8657143,217.24 67.7557143,218.667143 68.7071429,219.539286 C68.7864286,219.618571 68.7864286,219.618571 68.8657143,219.697857 L69.3414286,219.935714 L69.8964286,220.252857 L70.4514286,220.57 L70.6892857,220.728571 C71.0857143,220.966429 71.5614286,220.887143 71.8785714,220.649286 C72.4335714,220.173571 72.3542857,219.301429 71.72,218.905 L71.4821429,218.746429 L70.9271429,218.429286 L70.3721429,218.112143 L69.8964286,217.874286 L69.8964286,217.874286 Z M80.9171429,223.582857 C79.8071429,223.107143 78.935,224.534286 79.8071429,225.327143 C79.8864286,225.406429 79.9657143,225.406429 80.045,225.485714 L80.6,225.723571 L81.2342857,225.961429 L81.8685714,226.199286 L82.0271429,226.278571 C83.0578571,226.675 83.93,225.406429 83.2164286,224.613571 C83.1371429,224.534286 82.9785714,224.455 82.8992857,224.375714 L82.7407143,224.296429 L82.1064286,224.058571 L81.4721429,223.820714 L80.9171429,223.582857 L80.9171429,223.582857 Z M92.5721429,227.943571 C91.4621429,227.626429 90.6692857,229.053571 91.6207143,229.767143 C91.7,229.846429 91.8585714,229.925714 91.9378571,229.925714 L92.0964286,230.005 L92.7307143,230.242857 L93.365,230.401429 L93.92,230.56 C94.7921429,230.797857 95.585,229.925714 95.1092857,229.053571 C94.9507143,228.815714 94.7921429,228.657143 94.475,228.577857 L93.92,228.419286 L93.2857143,228.260714 L92.6514286,228.102143 L92.5721429,227.943571 L92.5721429,227.943571 Z M104.623571,230.956429 C103.434286,230.797857 102.879286,232.304286 103.91,232.859286 C103.989286,232.938571 104.147857,232.938571 104.306429,233.017857 L104.861429,233.097143 L105.575,233.255714 L106.288571,233.414286 L106.447143,233.414286 C106.764286,233.493571 107.160714,233.335 107.398571,233.097143 C107.953571,232.462857 107.557143,231.511429 106.764286,231.352857 L106.605714,231.352857 L105.971429,231.273571 L105.337143,231.115 L104.623571,230.956429 L104.623571,230.956429 Z M116.912857,232.621429 C115.802857,232.542143 115.327143,234.048571 116.357857,234.603571 C116.516429,234.682857 116.595714,234.682857 116.754286,234.682857 L117.23,234.682857 L117.943571,234.762143 L118.657143,234.841429 L118.895,234.841429 C120.084286,234.920714 120.401429,233.176429 119.212143,232.78 C119.132857,232.78 119.053571,232.78 118.974286,232.700714 L118.736429,232.700714 L118.022857,232.621429 L117.309286,232.542143 L116.912857,232.621429 L116.912857,232.621429 Z M129.360714,232.78 C128.805714,232.78 128.33,233.255714 128.33,233.89 C128.33,234.445 128.805714,234.920714 129.44,234.920714 L130.074286,234.920714 L130.787857,234.920714 L131.501429,234.920714 L131.580714,234.920714 C132.690714,234.841429 132.928571,233.335 131.897857,232.859286 C131.739286,232.78 131.66,232.78 131.501429,232.78 L131.422143,232.78 L130.708571,232.78 L129.995,232.78 L129.360714,232.78 L129.360714,232.78 Z M141.729286,231.590714 C140.54,231.749286 140.54,233.414286 141.729286,233.652143 L142.046429,233.652143 L142.680714,233.572857 L143.394286,233.493571 L144.107857,233.414286 L144.187143,233.414286 C144.662857,233.335 144.98,232.938571 145.059286,232.462857 C145.138571,231.749286 144.504286,231.194286 143.87,231.352857 L143.790714,231.352857 L143.156429,231.432143 L142.522143,231.511429 L141.729286,231.590714 L141.729286,231.590714 Z M153.939286,229.053571 C152.829286,229.370714 152.987857,230.956429 154.097857,231.115 L154.494286,231.115 L154.811429,231.035714 L155.445714,230.877143 L156.08,230.718571 L156.476429,230.639286 C157.665714,230.242857 157.348571,228.498571 156.08,228.577857 L155.842143,228.577857 L155.525,228.657143 L154.890714,228.815714 L154.256429,228.974286 L153.939286,229.053571 L153.939286,229.053571 Z M165.673571,225.089286 C165.356429,225.247857 165.118571,225.485714 165.039286,225.802857 C164.880714,226.595714 165.673571,227.309286 166.466429,226.992143 L167.021429,226.754286 L167.655714,226.516429 L168.29,226.278571 L168.448571,226.199286 C169.479286,225.723571 169.162143,224.137857 167.972857,224.217143 C167.814286,224.217143 167.735,224.217143 167.655714,224.296429 L167.497143,224.375714 L166.862857,224.613571 L166.228571,224.851429 L165.673571,225.089286 L165.673571,225.089286 Z M176.932143,219.777143 C176.456429,220.015 176.218571,220.728571 176.535714,221.204286 C176.852857,221.68 177.407857,221.917857 177.962857,221.600714 L178.042143,221.600714 L178.597143,221.283571 L179.152143,220.966429 L179.707143,220.649286 L179.707143,220.649286 C180.737857,220.094286 180.182857,218.508571 178.993571,218.746429 C178.914286,218.746429 178.755714,218.825714 178.676429,218.905 L178.676429,218.905 L178.121429,219.222143 L177.566429,219.539286 L176.932143,219.777143 L176.932143,219.777143 L176.932143,219.777143 Z M187.477143,213.196429 C187.239286,213.355 187.080714,213.672143 187.001429,213.91 C186.922143,214.782143 187.873571,215.416429 188.666429,214.861429 L187.477143,213.196429 L187.477143,213.196429 Z M185.653571,33.4557143 C185.891429,33.6142857 186.208571,33.6935714 186.446429,33.6142857 C187.318571,33.3764286 187.556429,32.2664286 186.763571,31.7114286 L186.525714,31.5528571 L185.970714,31.1564286 L185.415714,30.76 L185.019286,30.5221429 C184.622857,30.2842857 184.067857,30.2842857 183.750714,30.6807143 C183.275,31.1564286 183.354286,31.9492857 183.909286,32.2664286 L184.305714,32.5042857 L184.860714,32.9007143 L185.415714,33.2971429 L185.653571,33.4557143 L185.653571,33.4557143 Z M174.95,27.1128571 C175.187857,27.1921429 175.425714,27.2714286 175.663571,27.1921429 C176.615,26.9542857 176.773571,25.6857143 175.901429,25.21 L175.584286,25.0514286 L174.95,24.7342857 L174.315714,24.4171429 L173.919286,24.2585714 C172.888571,23.7828571 171.937143,25.0514286 172.73,25.9235714 C172.809286,26.0028571 172.888571,26.0821429 173.047143,26.1614286 L173.443571,26.32 L173.998571,26.6371429 L174.553571,26.9542857 L174.95,27.1128571 L174.95,27.1128571 Z M163.612143,22.0385714 C164.008571,22.1971429 164.484286,22.1178571 164.722143,21.7214286 C165.197857,21.1664286 165.039286,20.2942857 164.325714,20.0564286 L163.85,19.8978571 L163.215714,19.66 L162.581429,19.4221429 L162.343571,19.3428571 C161.312857,18.9464286 160.440714,20.3735714 161.312857,21.1664286 C161.392143,21.2457143 161.550714,21.325 161.63,21.325 L161.867857,21.4042857 L162.502143,21.6421429 L163.136429,21.88 L163.612143,22.0385714 L163.612143,22.0385714 Z M151.798571,18.3121429 C152.908571,18.55 153.542857,17.1228571 152.670714,16.4885714 C152.591429,16.4092857 152.432857,16.33 152.274286,16.33 L152.195,16.33 L151.560714,16.1714286 L150.926429,16.0128571 L150.292143,15.8542857 C150.054286,15.775 149.816429,15.8542857 149.578571,15.9335714 C148.706429,16.33 148.785714,17.6778571 149.816429,17.9157143 L150.371429,18.0742857 L151.005714,18.2328571 L151.64,18.3914286 L151.798571,18.3121429 L151.798571,18.3121429 Z M139.588571,16.0128571 C140.698571,16.1714286 141.253571,14.665 140.222857,14.0307143 C140.064286,13.9514286 139.985,13.9514286 139.826429,13.8721429 L139.192143,13.7928571 L138.478571,13.7135714 L137.765,13.6342857 L137.685714,13.6342857 C136.734286,13.555 136.179286,14.5857143 136.734286,15.2992857 C136.892857,15.5371429 137.130714,15.6957143 137.447857,15.6957143 L137.527143,15.6957143 L138.240714,15.775 L138.954286,15.8542857 L139.588571,16.0128571 Z" id="Shape" fill="#DDE1E7"></path>
                <path d="M156,42 C167.55,42 177,32.55 177,21 C177,9.45 167.55,0 156,0 C144.45,0 135,9.45 135,21 C135,32.6454545 144.45,42 156,42 Z" id="Shape" fill="#C1D3DD"></path>
                <rect id="Rectangle-path" fill="#FFFFFF" x="161.238095" y="11" width="2.85714286" height="5.82608696"></rect>
                <rect id="Rectangle-path" fill="#FFFFFF" x="161.238095" y="19.9565217" width="2.85714286" height="10.3478261"></rect>
                <rect id="Rectangle-path" fill="#FFFFFF" x="154.47619" y="11" width="2.85714286" height="10.7826087"></rect>
                <rect id="Rectangle-path" fill="#FFFFFF" x="154.47619" y="24.9130435" width="2.85714286" height="5.39130435"></rect>
                <rect id="Rectangle-path" fill="#FFFFFF" x="147.619048" y="11" width="2.85714286" height="1.73913043"></rect>
                <rect id="Rectangle-path" fill="#FFFFFF" x="147.619048" y="15.9565217" width="2.85714286" height="14.3478261"></rect>
                <polygon id="Shape" fill="#FFFFFF" points="146.47619 13.3478261 146.47619 15.3478261 147.619048 15.3478261 150.47619 15.3478261 151.714286 15.3478261 151.714286 13.3478261 150.47619 13.3478261 147.619048 13.3478261"></polygon>
                <polygon id="Shape" fill="#FFFFFF" points="153.238095 22.3043478 153.238095 24.3043478 154.47619 24.3043478 157.333333 24.3043478 158.47619 24.3043478 158.47619 22.3043478 157.333333 22.3043478 154.47619 22.3043478"></polygon>
                <polygon id="Shape" fill="#FFFFFF" points="161.238095 17.3478261 160 17.3478261 160 19.4347826 161.238095 19.4347826 164.095238 19.4347826 165.238095 19.4347826 165.238095 17.3478261 164.095238 17.3478261"></polygon>
                <path d="M72,50 C83.55,50 93,40.55 93,29 C93,17.45 83.55,8 72,8 C60.45,8 51,17.45 51,29 C51,40.6454545 60.45,50 72,50 Z" id="Shape" fill="#C1D3DD"></path>
                <path d="M21,117 C32.55,117 42,107.55 42,96 C42,84.45 32.55,75 21,75 C9.45,75 0,84.45 0,96 C0,107.645455 9.45,117 21,117 Z" id="Shape" fill="#C1D3DD"></path>
                <path d="M32,200 C43.55,200 53,190.55 53,179 C53,167.45 43.55,158 32,158 C20.45,158 11,167.45 11,179 C11,190.645455 20.45,200 32,200 Z" id="Shape" fill="#C1D3DD"></path>
                <path d="M223,88 C234.55,88 244,78.55 244,67 C244,55.45 234.55,46 223,46 C211.45,46 202,55.45 202,67 C202,78.6454545 211.45,88 223,88 Z" id="Shape" fill="#C1D3DD"></path>
                <path d="M28.1860909,102.144528 L24.2784545,100.342264 C23.7736364,100.109434 23.4545455,99.6332075 23.4545455,99.1124528 L23.4545455,97.6981132 C23.5641818,97.5830189 23.6901818,97.434717 23.8243636,97.2596226 C24.357,96.5660377 24.7595455,95.8026415 25.0389545,95.0015094 C25.5400909,94.8592453 25.9090909,94.4320755 25.9090909,93.9245283 L25.9090909,92.4150943 C25.9090909,92.0830189 25.7491364,91.7860377 25.5,91.5784906 L25.5,89.3962264 C25.5,89.3962264 25.9855909,86 21,86 C16.014,86 16.5,89.3962264 16.5,89.3962264 L16.5,91.5784906 C16.2508636,91.7860377 16.0909091,92.0830189 16.0909091,92.4150943 L16.0909091,93.9245283 C16.0909091,94.3222642 16.3175455,94.6720755 16.6566818,94.8743396 C17.0653636,96.5166038 18.1363636,97.6981132 18.1363636,97.6981132 L18.1363636,99.0773585 C18.1363636,99.5803774 17.8385455,100.043396 17.3595,100.284151 L13.71,102.120755 C12.6557727,102.650943 12,103.670189 12,104.777736 L12,106 L30,106 L30,104.851698 C30,103.705283 29.2975909,102.657358 28.1860909,102.144528 Z" id="Shape" fill="#FFFFFF"></path>
                <path d="M40.9507607,171.437281 C37.2426458,171.437281 34.4018561,170.364755 31.9996626,168 C29.5977189,170.364755 26.7570541,171.437281 23.0492514,171.437281 C23.0492514,177.595581 21.7905433,186.417305 31.9996001,190 C42.2094064,186.417368 40.9507607,177.595644 40.9507607,171.437281 Z M31.258177,182.274195 L28.2761846,179.254886 L29.6113333,177.903291 L31.258177,179.570878 L34.3883041,176.401982 L35.7233904,177.753577 L31.258177,182.274195 Z" id="Shape" fill="#FFFFFF"></path>
                <path d="M83.6538622,26.2643549 L81.8300626,25.9549603 C81.6400835,25.3415992 81.3958246,24.7499499 81.097286,24.1854405 L82.1720251,22.6818914 C82.6279749,22.0413904 82.5574113,21.1674864 81.9983299,20.613833 L80.3807933,18.9962965 C80.0768267,18.6923299 79.6751566,18.5240626 79.2463466,18.5240626 C78.9098121,18.5240626 78.5895616,18.6271942 78.3181628,18.8226013 L76.8091858,19.8973403 C76.2229645,19.5879457 75.6096033,19.3328309 74.9745303,19.1428518 L74.6705637,17.3407641 C74.5402923,16.5645637 73.8726514,16.0000543 73.085595,16.0000543 L70.8004175,16.0000543 C70.0133612,16.0000543 69.3457203,16.5645637 69.2154489,17.3407641 L68.9006263,19.1862756 C68.2926931,19.3762547 67.7010438,19.6259415 67.1365344,19.9299081 L65.6438413,18.8551691 C65.3724426,18.659762 65.0467641,18.5566305 64.7102296,18.5566305 C64.2814196,18.5566305 63.8743215,18.7248977 63.5757829,19.0288643 L61.9528184,20.6464008 C61.3991649,21.2000543 61.3231733,22.0739582 61.7791232,22.7144593 L62.8647182,24.2397203 C62.5661795,24.8096576 62.3273486,25.4013069 62.1427975,26.0146681 L60.3407098,26.3186347 C59.5645094,26.4489061 59,27.116547 59,27.9036033 L59,30.1887808 C59,30.9758372 59.5645094,31.6434781 60.3407098,31.7737495 L62.1862213,32.088572 C62.3762004,32.6965052 62.6258873,33.2881545 62.9298539,33.8526639 L61.8605428,35.339929 C61.4045929,35.9804301 61.4751566,36.854334 62.034238,37.4079875 L63.6517745,39.025524 C63.9557411,39.3294906 64.3574113,39.4977578 64.7862213,39.4977578 C65.1227557,39.4977578 65.4430063,39.3946263 65.714405,39.1992192 L67.239666,38.1136242 C67.7878914,38.4013069 68.3632568,38.6347098 68.9549061,38.819261 L69.2588727,40.6430605 C69.3891441,41.419261 70.056785,41.9837704 70.8438413,41.9837704 L73.1344468,41.9837704 C73.9215031,41.9837704 74.5891441,41.419261 74.7194154,40.6430605 L75.02881,38.819261 C75.6421712,38.6292818 76.2338205,38.385023 76.7983299,38.0864843 L78.3018789,39.1612234 C78.5732777,39.3566305 78.8989562,39.459762 79.2354906,39.459762 L79.2354906,39.459762 C79.6643006,39.459762 80.0659708,39.2914948 80.3699374,38.9875282 L81.9874739,37.3699916 C82.5411273,36.8163382 82.617119,35.9424342 82.1611691,35.3019332 L81.0864301,33.7929562 C81.3849687,33.2230188 81.6346555,32.6313695 81.8192067,32.0234363 L83.6430063,31.7194697 C84.4192067,31.5891983 84.9837161,30.9215574 84.9837161,30.134501 L84.9837161,27.8493236 C84.994572,27.0622672 84.4300626,26.3946263 83.6538622,26.2643549 Z M83.5290188,30.134501 C83.5290188,30.2050647 83.480167,30.2647724 83.4096033,30.2756284 L81.1298539,30.6555866 C80.8421712,30.7044384 80.6141962,30.9161294 80.5436326,31.1929562 C80.3373695,31.9908685 80.022547,32.7562129 79.5991649,33.4672777 C79.4526096,33.7169645 79.4634656,34.0263591 79.6317328,34.26519 L80.9724426,36.1541253 C81.0104384,36.208405 81.0050104,36.2898246 80.9561587,36.3386764 L79.3386221,37.9562129 C79.3006263,37.9942088 79.2626305,37.9996367 79.2354906,37.9996367 C79.2029228,37.9996367 79.1757829,37.9887808 79.154071,37.9724969 L77.2705637,36.6317871 C77.0371608,36.4635198 76.7223382,36.4526639 76.4726514,36.5992192 C75.7615866,37.0226013 74.9962422,37.3374238 74.1983299,37.5436868 C73.9160752,37.6142505 73.7043841,37.8476534 73.6609603,38.1299081 L73.2755741,40.4096576 C73.2647182,40.4802213 73.2050104,40.5290731 73.1344468,40.5290731 L70.8492693,40.5290731 C70.7787056,40.5290731 70.7189979,40.4802213 70.708142,40.4096576 L70.3281837,38.1299081 C70.2793319,37.8422255 70.0676409,37.6142505 69.7908142,37.5436868 C69.0146138,37.3428518 68.2655532,37.0334572 67.5653445,36.6317871 C67.451357,36.5666514 67.3210856,36.5340835 67.1962422,36.5340835 C67.0496868,36.5340835 66.8977035,36.5775073 66.7728601,36.6697829 L64.8730689,38.0213486 C64.845929,38.0376326 64.8187891,38.0484885 64.7916493,38.0484885 C64.7699374,38.0484885 64.7265136,38.0430605 64.6885177,38.0050647 L63.0709812,36.3875282 C63.0221294,36.3386764 63.0167015,36.2626848 63.0546973,36.202977 L64.3899791,34.3303257 C64.5582463,34.0914948 64.5691023,33.7766722 64.422547,33.5269854 C63.9991649,32.8213486 63.6734864,32.0560042 63.4672234,31.2580919 C63.3912317,30.9812651 63.1632568,30.7695741 62.8810021,30.7207223 L60.5849687,30.3299081 C60.514405,30.3190522 60.4655532,30.2593445 60.4655532,30.1887808 L60.4655532,27.9036033 C60.4655532,27.8330397 60.514405,27.7733319 60.5849687,27.762476 L62.8484342,27.3825177 C63.1361169,27.333666 63.3695198,27.1219749 63.4400835,26.8397203 C63.6409186,26.0418079 63.9503132,25.2710355 64.3682672,24.5599708 C64.5148225,24.3102839 64.4985386,24.0008894 64.3302714,23.7674864 L62.9787056,21.8676952 C62.9407098,21.8134154 62.9461378,21.7319958 62.9949896,21.6831441 L64.6125261,20.0656075 C64.6505219,20.0276117 64.6885177,20.0221837 64.7156576,20.0221837 C64.7482255,20.0221837 64.7753653,20.0330397 64.7970772,20.0493236 L66.6697286,21.3846054 C66.9085595,21.5528727 67.223382,21.5637286 67.4730689,21.4171733 C68.1787056,20.9937912 68.9440501,20.6681127 69.7419624,20.4618497 C70.0187891,20.385858 70.2304802,20.1578831 70.2793319,19.8756284 L70.6701461,17.579595 C70.6810021,17.5090313 70.7407098,17.4601795 70.8112735,17.4601795 L73.0964509,17.4601795 C73.1670146,17.4601795 73.2267223,17.5090313 73.2375783,17.579595 L73.6175365,19.8430605 C73.6663883,20.1307432 73.8780793,20.3641461 74.160334,20.4347098 C74.9799582,20.6409729 75.7615866,20.9612234 76.4889353,21.3900334 C76.7386221,21.5365887 77.0480167,21.5257328 77.2868476,21.3574656 L79.159499,20.0113278 C79.1866388,19.9950438 79.2137787,19.9841879 79.2409186,19.9841879 C79.2626305,19.9841879 79.3060543,19.9896159 79.3440501,20.0276117 L80.9615866,21.6451482 C81.0104384,21.694 81.0158664,21.7699916 80.9778706,21.8296994 L79.6371608,23.7132067 C79.4688935,23.9466096 79.4580376,24.2614322 79.6045929,24.511119 C80.0279749,25.2221837 80.3427975,25.9875282 80.5490605,26.7854405 C80.6196242,27.0676952 80.8530271,27.2793862 81.1352818,27.32281 L83.4150313,27.7081962 C83.485595,27.7190522 83.5344468,27.7787599 83.5344468,27.8493236 L83.5344468,30.134501 L83.5290188,30.134501 L83.5290188,30.134501 Z" id="Shape" stroke="#FFFFFF" stroke-width="0.2" fill="#FFFFFF"></path>
                <path d="M71.994572,23.3821002 C68.9006263,23.3821002 66.3874739,25.8952526 66.3874739,28.9891983 C66.3874739,32.0831441 68.9006263,34.5962965 71.994572,34.5962965 C75.0885177,34.5962965 77.6016701,32.0831441 77.6016701,28.9891983 C77.6016701,25.8952526 75.0885177,23.3821002 71.994572,23.3821002 Z M71.994572,33.1307432 C69.7093946,33.1307432 67.8530271,31.2743758 67.8530271,28.9891983 C67.8530271,26.7040209 69.7093946,24.8476534 71.994572,24.8476534 C74.2797495,24.8476534 76.1361169,26.7040209 76.1361169,28.9891983 C76.1361169,31.2743758 74.2797495,33.1307432 71.994572,33.1307432 Z" id="Shape" stroke="#FFFFFF" stroke-width="0.2" fill="#FFFFFF"></path>
                <path d="M223,57.5454545 L223,54 L218,58.7272727 L223,63.4545455 L223,59.9090909 C227.125,59.9090909 230.5,63.1 230.5,67 C230.5,68.1818182 230.125,69.3636364 229.625,70.3090909 L231.5,72.0818182 C232.375,70.5454545 233,68.8909091 233,67 C233,61.8 228.5,57.5454545 223,57.5454545 Z M223,74.0909091 C218.875,74.0909091 215.5,70.9 215.5,67 C215.5,65.8181818 215.875,64.6363636 216.375,63.6909091 L214.5,61.9181818 C213.625,63.4545455 213,65.1090909 213,67 C213,72.2 217.5,76.4545455 223,76.4545455 L223,80 L228,75.2727273 L223,70.5454545 L223,74.0909091 Z" id="Shape" fill="#FFFFFF"></path>
                <path d="M267.727935,130 L98.2720653,130 L82,130 L82,145.768289 L82,242.069617 L284,242.069617 L284,145.768289 L284,130 L267.727935,130 Z" id="Combined-Shape" fill="#DDE1E7"></path>
                <path d="M284,246.626022 L284,242 L82,242 L82,246.626022 L82,261.930383 L91.9929858,261.930383 C92.5003543,261.999577 93.0181447,262.035305 93.5441306,262.035305 L272.455869,262.035305 C272.981855,262.035305 273.499646,261.999577 274.007011,261.930384 L284,261.930383 L284,246.626022 Z" id="Combined-Shape" fill="#DDE1E7"></path>
                <rect id="XMLID_1443_" fill="#384C59" x="89.1634361" y="136.414159" width="187.361674" height="105.655457"></rect>
                <polygon id="XMLID_1442_" fill="#3B3F50" points="198.839648 261.802065 182.822026 261.802065 166.804405 261.802065 161.242731 274.09587 182.822026 274.09587 204.401322 274.09587"></polygon>
                <rect id="XMLID_1441_" fill="#DDE1E7" x="143" y="274" width="80" height="6"></rect>
                <ellipse id="XMLID_1439_" fill="#25AE88" cx="182.822026" cy="251.958112" rx="3.31122181" ry="3.31489676"></ellipse>
                <rect id="Rectangle-path" fill="#F06358" x="108" y="158.705882" width="56.3609467" height="3.08823529"></rect>
                <rect id="Rectangle-path" fill="#FFAE00" x="108" y="171.235294" width="29.556213" height="3.08823529"></rect>
                <rect id="Rectangle-path" fill="#FFAE00" x="215.485207" y="171.235294" width="41.8047337" height="3.08823529"></rect>
                <rect id="Rectangle-path" fill="#25AE88" x="108" y="182" width="21.7455621" height="3.08823529"></rect>
                <rect id="Rectangle-path" fill="#25AE88" x="137.556213" y="182" width="98.6982249" height="3.08823529"></rect>
                <rect id="Rectangle-path" fill="#F06358" x="108" y="192.764706" width="53.4319527" height="3.08823529"></rect>
                <rect id="Rectangle-path" fill="#25AE88" x="169.242604" y="192.764706" width="59.6449704" height="3.08823529"></rect>
                <rect id="Rectangle-path" fill="#B6A94A" x="108" y="203.529412" width="21.7455621" height="3.08823529"></rect>
                <rect id="Rectangle-path" fill="#25AE88" x="137.556213" y="203.529412" width="55.295858" height="3.08823529"></rect>
                <rect id="Rectangle-path" fill="#25AE88" x="108" y="214.294118" width="45.7100592" height="3.08823529"></rect>
                <rect id="Rectangle-path" fill="#25AE88" x="161.52071" y="214.294118" width="56.8047337" height="3.08823529"></rect>
                <rect id="Rectangle-path" fill="#25AE88" x="145.366864" y="171.235294" width="61.4201183" height="3.08823529"></rect>
                <rect id="Rectangle-path" fill="#25AE88" x="244.863905" y="182" width="12.4260355" height="3.08823529"></rect>
                <rect id="Rectangle-path" fill="#F06358" x="237.674556" y="192.764706" width="19.704142" height="3.08823529"></rect>
                <rect id="Rectangle-path" fill="#B6A94A" x="201.550296" y="203.529412" width="55.739645" height="3.08823529"></rect>
                <rect id="Rectangle-path" fill="#25AE88" x="227.023669" y="214.294118" width="30.2662722" height="3.08823529"></rect>
            </g>
        </g>
    </g>
</svg>