<?xml version="1.0" encoding="UTF-8"?>
<svg width="475px" height="293px" viewBox="0 0 475 293" version="1.1" xmlns="http://www.w3.org/2000/svg" xmlns:xlink="http://www.w3.org/1999/xlink">
    <!-- Generator: Sketch 41.2 (35397) - http://www.bohemiancoding.com/sketch -->
    <title>Group 29</title>
    <desc>Created with Sketch.</desc>
    <defs></defs>
    <g id="Page-1" stroke="none" stroke-width="1" fill="none" fill-rule="evenodd">
        <g id="01.IT" transform="translate(-1072.000000, -1814.000000)">
            <g id="Group-29" transform="translate(1072.000000, 1807.000000)">
                <g id="Group-27">
                    <path d="M433.291977,208.583258 L433.291977,207.906278 L433.715349,208.160146 C433.630674,208.244768 433.630674,208.32939 433.461326,208.414013 C433.461326,208.498635 433.376651,208.498635 433.291977,208.583258 L433.291977,208.583258 Z M433.291977,205.367607 L434.816114,206.129208 L433.715349,208.160146 L433.800023,208.075523 L434.13872,207.483167 L434.477417,206.89081 L434.816114,206.298453 L434.816114,206.298453 C435.32416,205.282985 434.223394,204.267516 433.291977,204.77525 L433.291977,205.367607 L433.291977,205.367607 Z M437.525691,195.043676 C437.017646,196.313012 438.711131,197.159236 439.4732,196.059145 C439.4732,195.974522 439.557874,195.8899 439.557874,195.8899 L439.642549,195.636033 L439.896571,194.959054 L440.150594,194.282075 L440.319943,193.77434 C440.743314,192.674249 439.303851,191.743403 438.457109,192.589627 C438.372434,192.674249 438.28776,192.843494 438.203086,192.928116 L438.033737,193.435851 L437.779714,194.11283 L437.610366,194.874431 L437.525691,195.043676 L437.525691,195.043676 Z M441.84408,182.519563 C441.505383,183.704277 443.114194,184.465878 443.876263,183.450409 C443.960937,183.365787 443.960937,183.281165 444.045611,183.11192 L444.21496,182.604186 L444.384309,181.927207 L444.553657,181.250227 L444.638331,180.99636 C444.977029,179.727025 443.198869,179.050045 442.521474,180.234759 C442.521474,180.319381 442.4368,180.404004 442.4368,180.488626 L442.352126,180.742493 L442.182777,181.419472 L442.013429,182.096451 L441.84408,182.519563 L441.84408,182.519563 Z M444.723006,169.572338 C444.553657,170.757052 446.077794,171.349409 446.755189,170.33394 C446.839863,170.164695 446.924537,170.080073 446.924537,169.910828 L446.924537,169.656961 L447.009211,168.895359 L447.093886,168.133758 L447.17856,167.626024 C447.17856,167.287534 447.093886,167.033667 446.924537,166.7798 C446.331817,166.018198 445.061703,166.356688 444.977029,167.372157 L444.892354,167.879891 L444.80768,168.641492 L444.723006,169.403094 L444.723006,169.572338 L444.723006,169.572338 Z M436.594274,104.582348 C437.10232,105.682439 438.795806,105.343949 438.711131,104.074613 C438.711131,103.905369 438.711131,103.820746 438.626457,103.736124 L438.541783,103.482257 L438.28776,102.805278 L438.033737,102.128298 L437.779714,101.620564 C437.610366,101.366697 437.441017,101.11283 437.10232,101.028207 C436.170903,100.77434 435.32416,101.705187 435.747531,102.55141 L436.001554,103.059145 L436.255577,103.736124 L436.5096,104.413103 L436.594274,104.582348 Z M433.291977,204.606005 L433.291977,205.282985 L432.868606,205.029117 L432.868606,205.029117 L432.868606,205.029117 C432.95328,204.944495 432.95328,204.859873 433.037954,204.77525 C433.122629,204.77525 433.207303,204.690628 433.291977,204.606005 L433.291977,204.606005 Z M433.291977,207.906278 L433.291977,208.583258 C432.36056,209.090992 431.259794,208.075523 431.76784,207.060055 L433.291977,207.906278 L433.291977,207.906278 Z M398.152149,245.055505 L398.406171,244.88626 L398.152149,245.055505 L398.152149,245.055505 L398.152149,245.055505 Z M406.958274,237.947225 C406.196206,238.624204 406.619577,239.808917 407.635669,239.89354 C407.974366,239.89354 408.228389,239.808917 408.482411,239.639672 L408.567086,239.55505 L409.075131,239.047316 L409.583177,238.539581 L410.091223,238.031847 L410.091223,238.031847 C410.260571,237.862602 410.42992,237.524113 410.42992,237.270246 C410.42992,236.254777 409.329154,235.747043 408.567086,236.424022 L408.567086,236.424022 L408.05904,236.931756 L407.550994,237.43949 L406.958274,237.947225 L406.958274,237.947225 L406.958274,237.947225 Z M416.441794,228.638763 C415.679726,229.484986 416.611143,230.923567 417.796583,230.415833 C417.965931,230.33121 418.050606,230.246588 418.13528,230.161965 L418.219954,230.077343 L418.728,229.569609 L419.236046,229.061874 L419.744091,228.55414 L419.744091,228.55414 C420.50616,227.623294 419.490069,226.269336 418.389303,226.861692 C418.219954,226.946315 418.13528,227.030937 418.050606,227.11556 L418.050606,227.11556 L417.627234,227.623294 L417.203863,228.131028 L416.441794,228.638763 L416.441794,228.638763 L416.441794,228.638763 Z M424.739874,218.230209 C423.977806,219.3303 425.417269,220.599636 426.43336,219.66879 C426.518034,219.584167 426.518034,219.584167 426.602709,219.499545 L426.602709,219.414923 L427.02608,218.822566 L427.449451,218.230209 L427.872823,217.637853 L427.872823,217.55323 C428.042171,217.299363 428.126846,216.876251 427.957497,216.537762 C427.6188,215.691538 426.518034,215.522293 426.009989,216.283894 L426.009989,216.283894 L425.586617,216.876251 L425.163246,217.468608 L424.739874,218.230209 L424.739874,218.230209 L424.739874,218.230209 Z M432.868606,205.11374 L431.852514,207.060055 L431.937189,206.975432 L432.275886,206.383076 L432.614583,205.790719 L432.868606,205.11374 L432.868606,205.11374 Z M430.667074,92.7352138 C430.921097,93.1583258 431.344469,93.3275705 431.852514,93.2429481 C432.614583,93.0737034 433.037954,92.2274795 432.614583,91.5505005 L432.445234,91.2120109 L432.106537,90.6196542 L431.76784,90.0272975 L431.513817,89.6041856 C430.836423,88.588717 429.227611,89.1810737 429.481634,90.3657871 C429.481634,90.5350318 429.566309,90.6196542 429.650983,90.7042766 L429.905006,91.1273885 L430.243703,91.7197452 L430.5824,92.3121019 L430.667074,92.7352138 L430.667074,92.7352138 Z M423.300411,81.6496815 C423.639109,82.0727934 424.147154,82.2420382 424.6552,81.9881711 C425.332594,81.7343039 425.501943,80.8880801 425.078571,80.2957234 L424.824549,79.9572338 L424.401177,79.3648772 L423.977806,78.7725205 L423.723783,78.4340309 C423.385086,78.0955414 422.961714,77.9262966 422.538343,78.0955414 C421.776274,78.3494086 421.522251,79.1956324 422.030297,79.8726115 L422.28432,80.211101 L422.707691,80.8034577 L423.131063,81.3958144 L423.300411,81.6496815 L423.300411,81.6496815 Z M414.832983,71.4949955 C415.087006,71.833485 415.510377,71.9181074 415.933749,71.833485 C416.780491,71.6642402 417.034514,70.5641492 416.441794,69.9717925 L416.187771,69.7179254 L415.679726,69.2101911 L415.17168,68.7024568 L414.832983,68.3639672 C413.901566,67.433121 412.377429,68.533212 413.054823,69.7179254 C413.139497,69.8025478 413.139497,69.8871702 413.224171,69.9717925 L413.562869,70.3102821 L414.070914,70.8180164 L414.57896,71.3257507 L414.832983,71.4949955 L414.832983,71.4949955 Z M405.180114,62.355778 C406.111531,63.1173794 407.381646,62.1019108 406.8736,61.0018198 C406.788926,60.8325751 406.704251,60.7479527 406.619577,60.6633303 L406.365554,60.4940855 L405.857509,60.0709736 L405.349463,59.6478617 L404.926091,59.3093722 C404.587394,58.9708826 403.994674,58.9708826 403.571303,59.2247498 C402.978583,59.6478617 402.893909,60.5787079 403.486629,61.0018198 L403.91,61.3403094 L404.418046,61.7634213 L404.926091,62.1865332 L405.180114,62.355778 Z M329.904674,32.4840764 L329.904674,32.4840764 L329.904674,32.4840764 L329.904674,32.4840764 L329.904674,32.4840764 L329.904674,32.4840764 L329.565977,32.4840764 C329.22728,32.4840764 328.973257,32.6533212 328.719234,32.9071884 C328.126514,33.6687898 328.63456,34.7688808 329.565977,34.7688808 L329.82,34.7688808 L329.82,34.7688808 L329.82,34.7688808 L329.82,34.7688808 L330.582069,34.7688808 L331.344137,34.7688808 L332.021531,34.7688808 C333.206971,34.7688808 333.630343,33.1610555 332.529577,32.6533212 C332.360229,32.5686988 332.19088,32.5686988 332.021531,32.5686988 L331.344137,32.5686988 L330.582069,32.5686988 L329.904674,32.4840764 L329.904674,32.4840764 Z M398.152149,245.055505 L398.152149,245.055505 L397.813451,245.309372 L397.220731,245.732484 L396.628011,246.155596 L396.543337,246.240218 L398.152149,245.055505 L398.152149,245.055505 Z M398.152149,247.848044 L398.152149,247.848044 L397.9828,247.932666 L397.898126,248.017288 L398.152149,247.848044 L398.152149,247.848044 Z M318.55832,35.1919927 C319.74376,35.1073703 319.913109,33.4149227 318.812343,32.9918107 C318.642994,32.9071884 318.55832,32.9071884 318.388971,32.9071884 L317.880926,32.9918107 L317.118857,33.0764331 L316.356789,33.1610555 L316.18744,33.1610555 C315.679394,33.2456779 315.256023,33.6687898 315.171349,34.1765241 C315.086674,34.8535032 315.764069,35.4458599 316.441463,35.3612375 L316.610811,35.3612375 L317.37288,35.2766151 L318.134949,35.1919927 L318.55832,35.1919927 L318.55832,35.1919927 Z M305.433806,37.2229299 C306.534571,36.9690628 306.619246,35.3612375 305.433806,35.022748 L304.92576,35.022748 L304.502389,35.1073703 L303.824994,35.2766151 L303.1476,35.4458599 L302.808903,35.5304823 C301.623463,35.7843494 301.708137,37.5614195 302.978251,37.7306642 L303.316949,37.7306642 L303.655646,37.6460419 L304.33304,37.4767971 L305.010434,37.3075523 L305.433806,37.2229299 L305.433806,37.2229299 Z M292.647989,40.7770701 C293.833429,40.3539581 293.579406,38.6615105 292.309291,38.5768881 C292.139943,38.5768881 292.055269,38.5768881 291.88592,38.6615105 L291.88592,38.6615105 L291.208526,38.9153776 L290.531131,39.1692448 L289.853737,39.4231119 L289.769063,39.4231119 C288.668297,39.8462238 288.837646,41.4540491 290.023086,41.6232939 C290.192434,41.6232939 290.361783,41.6232939 290.531131,41.5386715 L290.531131,41.5386715 L291.208526,41.2848044 L291.88592,41.0309372 L292.647989,40.7770701 L292.647989,40.7770701 L292.647989,40.7770701 Z M280.285543,45.7697907 C281.386309,45.2620564 280.962937,43.5696087 279.777497,43.6542311 C279.608149,43.6542311 279.523474,43.6542311 279.354126,43.7388535 L279.184777,43.8234759 L278.507383,44.1619654 L277.829989,44.500455 L277.321943,44.7543221 C277.06792,44.8389445 276.898571,45.0081893 276.813897,45.2620564 C276.305851,46.277525 277.321943,47.2083712 278.338034,46.7852593 L278.84608,46.5313922 L279.4388,46.1929026 L280.116194,45.8544131 L280.285543,45.7697907 L280.285543,45.7697907 Z M268.685166,52.1164695 C269.701257,51.4394904 269.108537,49.8316652 267.923097,50.0855323 C267.753749,50.0855323 267.669074,50.1701547 267.499726,50.2547771 L267.245703,50.4240218 L266.652983,50.7625114 L266.060263,51.1856233 L265.636891,51.4394904 C265.128846,51.77798 264.959497,52.4549591 265.298194,52.9626934 C265.636891,53.4704277 266.314286,53.6396724 266.822331,53.3011829 L267.245703,53.0473157 L267.838423,52.7088262 L268.431143,52.3703367 L268.685166,52.1164695 L268.685166,52.1164695 Z M257.762183,59.7324841 C258.6936,58.9708826 257.931531,57.3630573 256.661417,57.7861692 C256.576743,57.8707916 256.407394,57.8707916 256.32272,57.955414 L256.068697,58.1246588 L255.475977,58.5477707 L254.883257,58.9708826 L254.459886,59.3093722 C253.528469,60.0709736 254.375211,61.5941765 255.560651,61.255687 C255.73,61.1710646 255.814674,61.1710646 255.899349,61.0864422 L256.32272,60.7479527 L256.830766,60.3248408 L257.338811,59.9017288 L257.762183,59.7324841 L257.762183,59.7324841 Z M247.855291,68.533212 C248.786709,67.6023658 247.685943,66.0791629 246.415829,66.8407643 C246.331154,66.9253867 246.331154,66.9253867 246.24648,67.0100091 L246.077131,67.1792539 L245.569086,67.6869882 L245.06104,68.1947225 L244.722343,68.6178344 C244.383646,68.9563239 244.298971,69.5486806 244.552994,69.9717925 C244.976366,70.5641492 245.823109,70.6487716 246.331154,70.1410373 L246.669851,69.8025478 L247.177897,69.2948135 L247.685943,68.7870792 L247.855291,68.533212 L247.855291,68.533212 Z M238.964491,78.4340309 C239.72656,77.5031847 238.625794,76.1492266 237.525029,76.7415833 C237.35568,76.8262056 237.271006,76.910828 237.186331,76.9954504 L237.016983,77.1646952 L236.593611,77.7570519 L236.17024,78.3494086 L235.831543,78.7725205 C235.069474,79.7879891 236.254914,81.0573248 237.35568,80.3803458 C237.440354,80.2957234 237.525029,80.211101 237.609703,80.1264786 L237.9484,79.7033667 L238.371771,79.11101 L238.795143,78.6032757 L238.964491,78.4340309 L238.964491,78.4340309 Z M231.343806,89.1810737 C231.936526,88.2502275 230.920434,87.0655141 229.819669,87.5732484 C229.65032,87.6578708 229.565646,87.8271156 229.396297,87.9963603 L229.311623,88.2502275 L228.972926,88.8425842 L228.634229,89.4349409 L228.380206,89.9426752 C227.702811,91.0427662 229.142274,92.2274795 230.158366,91.2966333 C230.24304,91.2120109 230.24304,91.1273885 230.327714,91.1273885 L230.581737,90.7042766 L230.920434,90.1119199 L231.259131,89.5195632 L231.343806,89.1810737 L231.343806,89.1810737 Z M224.90856,100.858963 C225.416606,99.7588717 224.146491,98.7434031 223.1304,99.5896269 C223.045726,99.6742493 222.961051,99.7588717 222.876377,99.9281165 L222.707029,100.266606 L222.368331,100.943585 L222.029634,101.620564 L221.860286,102.043676 C221.35224,103.143767 222.791703,104.159236 223.638446,103.313012 C223.72312,103.228389 223.807794,103.143767 223.892469,102.974522 L224.061817,102.55141 L224.400514,101.874431 L224.739211,101.197452 L224.90856,100.858963 L224.90856,100.858963 Z M219.912777,113.129208 C220.336149,112.029117 218.812011,111.098271 218.049943,112.029117 C217.965269,112.11374 217.880594,112.282985 217.79592,112.367607 L217.626571,112.875341 L217.372549,113.55232 L217.118526,114.229299 L217.033851,114.483167 C216.61048,115.752502 218.38864,116.514104 219.066034,115.32939 C219.066034,115.244768 219.150709,115.160146 219.150709,115.160146 L219.235383,114.906278 L219.489406,114.229299 L219.743429,113.55232 L219.912777,113.129208 L219.912777,113.129208 Z M216.271783,125.907188 C216.525806,124.722475 215.001669,124.045496 214.2396,125.060965 C214.154926,125.145587 214.070251,125.314832 214.070251,125.399454 L214.070251,125.568699 L213.900903,126.3303 L213.731554,127.091902 L213.64688,127.684258 C213.392857,128.868972 214.916994,129.545951 215.679063,128.530482 C215.763737,128.361237 215.848411,128.276615 215.848411,128.10737 L215.933086,127.515014 L216.102434,126.838035 L216.271783,126.161056 L216.271783,125.907188 L216.271783,125.907188 Z M214.2396,139.023658 C214.324274,137.754322 212.630789,137.33121 212.122743,138.431301 C212.038069,138.515924 212.038069,138.685168 212.038069,138.769791 L212.038069,138.769791 L211.953394,139.531392 L211.86872,140.292994 L211.784046,140.969973 C211.699371,142.239308 213.477531,142.66242 213.985577,141.393085 C213.985577,141.308462 214.070251,141.22384 214.070251,141.139217 L214.154926,140.462238 L214.2396,139.700637 L214.2396,139.023658 L214.2396,139.023658 L214.2396,139.023658 Z M213.562206,152.22475 C213.562206,151.970883 213.477531,151.717015 213.308183,151.547771 C212.630789,150.701547 211.276,151.124659 211.276,152.22475 L211.276,152.393995 L211.276,153.155596 L211.276,153.917197 L211.276,154.509554 C211.276,155.77889 213.05416,156.032757 213.477531,154.763421 C213.477531,154.678799 213.562206,154.509554 213.562206,154.424932 L213.562206,153.917197 L213.562206,153.155596 L213.562206,152.393995 L213.562206,152.22475 L213.562206,152.22475 Z M214.493623,165.510464 C214.324274,164.410373 212.969486,164.156506 212.376766,165.087352 C212.292091,165.341219 212.207417,165.510464 212.207417,165.764331 L212.207417,166.018198 L212.292091,166.7798 L212.376766,167.541401 L212.46144,168.049136 C212.630789,169.149227 214.154926,169.403094 214.578297,168.303003 C214.662971,168.133758 214.662971,167.964513 214.662971,167.710646 L214.578297,167.202912 L214.493623,166.44131 L214.408949,165.679709 L214.493623,165.510464 L214.493623,165.510464 Z M216.864503,178.542311 C216.61048,177.357598 214.83232,177.44222 214.662971,178.711556 L214.662971,179.050045 L214.662971,179.050045 L214.83232,179.727025 L215.001669,180.404004 L215.171017,181.080983 L215.171017,181.080983 C215.509714,182.265696 217.287874,182.096451 217.372549,180.827116 L217.372549,180.488626 L217.372549,180.488626 L217.2032,179.811647 L217.033851,179.134668 L216.864503,178.542311 L216.864503,178.542311 L216.864503,178.542311 Z M220.75952,191.235669 C220.251474,190.050955 218.473314,190.389445 218.557989,191.743403 C218.557989,191.828025 218.557989,191.912648 218.642663,191.99727 L218.727337,192.33576 L218.98136,193.012739 L219.235383,193.689718 L219.404731,194.11283 C219.57408,194.535942 220.082126,194.874431 220.590171,194.789809 C221.35224,194.705187 221.775611,193.943585 221.521589,193.266606 L221.35224,192.843494 L221.098217,192.166515 L220.844194,191.489536 L220.75952,191.235669 L220.75952,191.235669 Z M226.094,203.421292 C225.50128,202.321201 223.892469,202.828935 223.977143,204.098271 C223.977143,204.267516 224.061817,204.352138 224.061817,204.436761 L224.31584,204.859873 L224.654537,205.536852 L224.993234,206.213831 L225.162583,206.467698 C225.247257,206.636943 225.416606,206.806187 225.585954,206.89081 C226.602046,207.398544 227.618137,206.383076 227.110091,205.367607 L226.940743,205.11374 L226.602046,204.521383 L226.263349,203.929026 L226.094,203.421292 L226.094,203.421292 Z M232.783269,214.845314 C232.105874,213.829845 230.581737,214.506824 230.751086,215.691538 C230.751086,215.860783 230.83576,215.945405 230.920434,216.11465 L231.259131,216.622384 L231.682503,217.214741 L232.105874,217.807097 L232.275223,218.060965 C232.952617,218.991811 234.476754,218.399454 234.307406,217.214741 C234.307406,217.045496 234.222731,216.960874 234.138057,216.791629 L233.968709,216.622384 L233.545337,216.030027 L233.121966,215.437671 L232.783269,214.845314 L232.783269,214.845314 Z M240.657977,225.507734 C239.895909,224.576888 238.371771,225.423112 238.710469,226.523203 C238.795143,226.692448 238.795143,226.77707 238.964491,226.946315 L239.303189,227.369427 L239.72656,227.877161 L240.149931,228.384895 L240.31928,228.55414 C240.488629,228.723385 240.742651,228.89263 240.996674,228.89263 C242.012766,229.061874 242.69016,227.877161 242.012766,227.030937 L241.843417,226.861692 L241.420046,226.353958 L240.996674,225.846224 L240.657977,225.507734 L240.657977,225.507734 Z M249.8028,235.154686 C249.633451,234.985441 249.464103,234.900819 249.21008,234.900819 C248.109314,234.731574 247.516594,236.085532 248.278663,236.847134 L248.702034,237.185623 L249.21008,237.693358 L249.718126,238.201092 L249.972149,238.370337 C250.141497,238.539581 250.39552,238.624204 250.649543,238.624204 C251.665634,238.708826 252.258354,237.354868 251.496286,236.677889 L251.326937,236.508644 L250.818891,236.00091 L250.310846,235.493176 L249.8028,235.154686 L249.8028,235.154686 Z M259.87904,243.786169 C258.862949,243.024568 257.592834,244.209281 258.270229,245.309372 C258.354903,245.393995 258.439577,245.478617 258.524251,245.563239 L258.947623,245.901729 L259.540343,246.324841 L260.133063,246.747953 L260.387086,246.917197 C261.149154,247.509554 262.24992,246.832575 262.165246,245.986351 C262.165246,245.647862 261.995897,245.309372 261.741874,245.140127 L261.487851,244.970883 L260.895131,244.547771 L260.302411,244.124659 L259.87904,243.786169 L259.87904,243.786169 Z M270.971371,251.148317 C269.870606,250.471338 268.685166,251.99454 269.701257,252.925387 C269.785931,253.010009 269.785931,253.010009 269.870606,253.094631 L270.378651,253.348499 L270.971371,253.686988 L271.564091,254.025478 L271.818114,254.194722 C272.241486,254.44859 272.749531,254.363967 273.088229,254.1101 C273.680949,253.602366 273.596274,252.67152 272.91888,252.248408 L272.664857,252.079163 L272.072137,251.740673 L271.479417,251.402184 L270.971371,251.148317 L270.971371,251.148317 Z M282.741097,257.241128 C281.555657,256.733394 280.62424,258.256597 281.555657,259.102821 C281.640331,259.187443 281.725006,259.187443 281.80968,259.272066 L282.4024,259.525933 L283.079794,259.7798 L283.757189,260.033667 L283.926537,260.118289 C285.027303,260.541401 285.95872,259.187443 285.196651,258.341219 C285.111977,258.256597 284.942629,258.171975 284.857954,258.087352 L284.688606,258.00273 L284.011211,257.748863 L283.333817,257.494995 L282.741097,257.241128 L282.741097,257.241128 Z M295.188217,261.895359 C294.002777,261.55687 293.156034,263.080073 294.172126,263.841674 C294.2568,263.926297 294.426149,264.010919 294.510823,264.010919 L294.680171,264.095541 L295.357566,264.349409 L296.03496,264.518653 L296.62768,264.687898 C297.559097,264.941765 298.40584,264.010919 297.897794,263.080073 C297.728446,262.826206 297.559097,262.656961 297.2204,262.572338 L296.62768,262.403094 L295.950286,262.233849 L295.272891,262.064604 L295.188217,261.895359 L295.188217,261.895359 Z M308.058709,265.11101 C306.788594,264.941765 306.195874,266.549591 307.29664,267.141947 C307.381314,267.22657 307.550663,267.22657 307.720011,267.311192 L308.312731,267.395814 L309.0748,267.565059 L309.836869,267.734304 L310.006217,267.734304 C310.344914,267.818926 310.768286,267.649682 311.022309,267.395814 C311.615029,266.718835 311.191657,265.703367 310.344914,265.534122 L310.175566,265.534122 L309.498171,265.4495 L308.820777,265.280255 L308.058709,265.11101 L308.058709,265.11101 Z M321.183223,266.88808 C319.997783,266.803458 319.489737,268.411283 320.590503,269.00364 C320.759851,269.088262 320.844526,269.088262 321.013874,269.088262 L321.52192,269.088262 L322.283989,269.172884 L323.046057,269.257507 L323.30008,269.257507 C324.570194,269.342129 324.908891,267.480437 323.638777,267.057325 C323.554103,267.057325 323.469429,267.057325 323.384754,266.972702 L323.130731,266.972702 L322.368663,266.88808 L321.606594,266.803458 L321.183223,266.88808 L321.183223,266.88808 Z M334.477086,267.057325 C333.884366,267.057325 333.37632,267.565059 333.37632,268.242038 C333.37632,268.834395 333.884366,269.342129 334.56176,269.342129 L335.239154,269.342129 L336.001223,269.342129 L336.763291,269.342129 L336.847966,269.342129 C338.033406,269.257507 338.287429,267.649682 337.186663,267.141947 C337.017314,267.057325 336.93264,267.057325 336.763291,267.057325 L336.678617,267.057325 L335.916549,267.057325 L335.15448,267.057325 L334.477086,267.057325 L334.477086,267.057325 Z M347.686274,265.787989 C346.41616,265.957234 346.41616,267.734304 347.686274,267.988171 L348.024971,267.988171 L348.702366,267.903549 L349.464434,267.818926 L350.226503,267.734304 L350.311177,267.734304 C350.819223,267.649682 351.15792,267.22657 351.242594,266.718835 C351.327269,265.957234 350.649874,265.364877 349.97248,265.534122 L349.887806,265.534122 L349.210411,265.618744 L348.533017,265.703367 L347.686274,265.787989 L347.686274,265.787989 Z M360.726114,263.080073 C359.540674,263.418562 359.710023,265.11101 360.895463,265.280255 L361.318834,265.280255 L361.657531,265.195632 L362.334926,265.026388 L363.01232,264.857143 L363.435691,264.77252 C364.705806,264.349409 364.367109,262.487716 363.01232,262.572338 L362.758297,262.572338 L362.4196,262.656961 L361.742206,262.826206 L361.064811,262.99545 L360.726114,263.080073 L360.726114,263.080073 Z M373.257909,258.848954 C372.919211,259.018198 372.665189,259.272066 372.580514,259.610555 C372.411166,260.456779 373.257909,261.21838 374.104651,260.879891 L374.697371,260.626024 L375.374766,260.372157 L376.05216,260.118289 L376.221509,260.033667 C377.322274,259.525933 376.983577,257.833485 375.713463,257.918107 C375.544114,257.918107 375.45944,257.918107 375.374766,258.00273 L375.205417,258.087352 L374.528023,258.341219 L373.850629,258.595086 L373.257909,258.848954 L373.257909,258.848954 Z M385.281657,253.179254 C384.773611,253.433121 384.519589,254.194722 384.858286,254.702457 C385.196983,255.210191 385.789703,255.464058 386.382423,255.125569 L386.467097,255.125569 L387.059817,254.787079 L387.652537,254.44859 L388.245257,254.1101 L388.245257,254.1101 C389.346023,253.517743 388.753303,251.825296 387.483189,252.079163 C387.398514,252.079163 387.229166,252.163785 387.144491,252.248408 L387.144491,252.248408 L386.551771,252.586897 L385.959051,252.925387 L385.281657,253.179254 L385.281657,253.179254 L385.281657,253.179254 Z M396.753657,245.535942 C396.245611,245.789809 395.991589,246.55141 396.330286,247.059145 C396.668983,247.566879 397.261703,247.820746 397.854423,247.482257 L397.939097,247.482257 L398.531817,247.143767 L399.124537,246.805278 L399.717257,246.466788 L399.717257,246.466788 C400.818023,245.874431 400.225303,244.181984 398.955189,244.435851 C398.870514,244.435851 398.701166,244.520473 398.616491,244.605096 L398.616491,244.605096 L398.023771,244.943585 L397.431051,245.282075 L396.753657,245.535942 L396.753657,245.535942 L396.753657,245.535942 Z M394.595829,54.3166515 C394.849851,54.4858963 395.188549,54.5705187 395.442571,54.4858963 C396.373989,54.2320291 396.628011,53.0473157 395.781269,52.4549591 L395.527246,52.2857143 L394.934526,51.8626024 L394.341806,51.4394904 L393.918434,51.1856233 C393.495063,50.9317561 392.902343,50.9317561 392.563646,51.3548681 C392.0556,51.8626024 392.140274,52.7088262 392.732994,53.0473157 L393.156366,53.3011829 L393.749086,53.7242948 L394.341806,54.1474067 L394.595829,54.3166515 L394.595829,54.3166515 Z M383.1648,47.5468608 C383.418823,47.6314832 383.672846,47.7161056 383.926869,47.6314832 C384.94296,47.377616 385.112309,46.0236579 384.180891,45.5159236 L383.842194,45.3466788 L383.1648,45.0081893 L382.487406,44.6696997 L382.064034,44.500455 C380.963269,43.9927207 379.947177,45.3466788 380.79392,46.277525 C380.878594,46.3621474 380.963269,46.4467698 381.132617,46.5313922 L381.555989,46.7006369 L382.148709,47.0391265 L382.741429,47.377616 L383.1648,47.5468608 L383.1648,47.5468608 Z M358.439909,38.1537762 C359.625349,38.4076433 360.302743,36.8844404 359.371326,36.2074613 C359.286651,36.1228389 359.117303,36.0382166 358.947954,36.0382166 L358.86328,36.0382166 L358.185886,35.8689718 L357.508491,35.699727 L356.831097,35.5304823 C356.577074,35.4458599 356.323051,35.5304823 356.069029,35.6151046 C355.137611,36.0382166 355.222286,37.4767971 356.323051,37.7306642 L356.915771,37.899909 L357.593166,38.0691538 L358.27056,38.2383985 L358.439909,38.1537762 L358.439909,38.1537762 Z M345.400069,35.699727 C346.585509,35.8689718 347.178229,34.2611465 346.077463,33.5841674 C345.908114,33.499545 345.82344,33.499545 345.654091,33.4149227 L344.976697,33.3303003 L344.214629,33.2456779 L343.45256,33.1610555 L343.367886,33.1610555 C342.351794,33.0764331 341.759074,34.1765241 342.351794,34.9381256 C342.521143,35.1919927 342.775166,35.3612375 343.113863,35.3612375 L343.198537,35.3612375 L343.960606,35.4458599 L344.722674,35.5304823 L345.400069,35.699727 Z" id="Shape" fill="#DDE1E7"></path>
                    <path d="M330.929673,218.166713 C324.832876,186.804209 297.803744,163.334256 265.287494,163.334256 C256.142299,163.334256 247.403557,165.203545 239.477722,168.526724 C225.658316,133.633343 192.125934,108.917197 152.903208,108.917197 C104.535287,108.917197 64.7028818,146.510662 59.8254444,194.69676 C36.0479371,199.681529 18.164,221.074495 18.164,246.829133 C18.164,276.322348 41.5350542,300 70.1899988,300 L326.865142,300 C349.016836,300 367.104,281.514816 367.104,258.875658 C367.104,237.898089 351.252328,220.451399 330.929673,218.166713 Z" id="Shape" fill="#F0F4F8"></path>
                    <g id="Group-24" transform="translate(143.268000, 191.815287)">
                        <rect id="Rectangle-path" fill="#2B3B4E" x="5.57249004" y="13.2549038" width="64.5847586" height="46.5357924"></rect>
                        <g id="Group" fill="#324A5E">
                            <path d="M73.2441676,0.0820737079 L2.52566095,0.0820737079 C1.32296526,0.0820737079 0.360808707,1.0669582 0.360808707,2.29806382 L0.360808707,19.7387267 C0.360808707,20.9698324 1.32296526,21.9547169 2.52566095,21.9547169 L73.2040778,21.9547169 C74.4067735,21.9547169 75.36893,20.9698324 75.36893,19.7387267 L75.36893,2.29806382 C75.4090199,1.10799506 74.4468633,0.0820737079 73.2441676,0.0820737079 Z" id="Shape"></path>
                            <path d="M73.2441676,25.9352917 L2.52566095,25.9352917 C1.32296526,25.9352917 0.360808707,26.9201762 0.360808707,28.1512818 L0.360808707,45.5919447 C0.360808707,46.8230504 1.32296526,47.8079348 2.52566095,47.8079348 L73.2040778,47.8079348 C74.4067735,47.8079348 75.36893,46.8230504 75.36893,45.5919447 L75.36893,28.1512818 C75.4090199,26.961213 74.4468633,25.9352917 73.2441676,25.9352917 Z" id="Shape"></path>
                            <path d="M73.2441676,51.7885097 L2.52566095,51.7885097 C1.32296526,51.7885097 0.360808707,52.7733942 0.360808707,54.0044998 L0.360808707,71.4451627 C0.360808707,72.6762683 1.32296526,73.6611528 2.52566095,73.6611528 L73.2040778,73.6611528 C74.4067735,73.6611528 75.36893,72.6762683 75.36893,71.4451627 L75.36893,54.0044998 C75.4090199,52.7733942 74.4468633,51.7885097 73.2441676,51.7885097 Z" id="Shape"></path>
                        </g>
                        <ellipse id="Oval" fill="#54AAEF" cx="62.540176" cy="10.3002503" rx="2.68602038" ry="2.74946921"></ellipse>
                        <ellipse id="Oval" fill="#54AAEF" cx="62.540176" cy="36.8921317" rx="2.68602038" ry="2.74946921"></ellipse>
                        <ellipse id="Oval" fill="#54AAEF" cx="62.540176" cy="63.4840131" rx="2.68602038" ry="2.74946921"></ellipse>
                        <g id="Group" transform="translate(6.815276, 5.745160)" fill="#ACB3BA">
                            <path d="M1.2828754,25.8942548 C0.561257989,25.8942548 0,26.4687708 0,27.2074342 L0,35.0865101 C0,35.8251735 0.561257989,36.3996895 1.2828754,36.3996895 C2.00449282,36.3996895 2.56575081,35.8251735 2.56575081,35.0865101 L2.56575081,27.2074342 C2.56575081,26.5098076 2.00449282,25.8942548 1.2828754,25.8942548 Z" id="Shape"></path>
                            <path d="M7.05581472,25.8942548 C6.33419731,25.8942548 5.77293932,26.4687708 5.77293932,27.2074342 L5.77293932,35.0865101 C5.77293932,35.8251735 6.33419731,36.3996895 7.05581472,36.3996895 C7.77743214,36.3996895 8.33869013,35.8251735 8.33869013,35.0865101 L8.33869013,27.2074342 C8.33869013,26.5098076 7.73734228,25.8942548 7.05581472,25.8942548 Z" id="Shape"></path>
                            <path d="M12.7886642,25.8942548 C12.0670468,25.8942548 11.5057888,26.4687708 11.5057888,27.2074342 L11.5057888,35.0865101 C11.5057888,35.8251735 12.0670468,36.3996895 12.7886642,36.3996895 C13.5102816,36.3996895 14.0715396,35.8251735 14.0715396,35.0865101 L14.0715396,27.2074342 C14.0715396,26.5098076 13.5102816,25.8942548 12.7886642,25.8942548 Z" id="Shape"></path>
                            <path d="M18.5616035,25.8942548 C17.8399861,25.8942548 17.2787281,26.4687708 17.2787281,27.2074342 L17.2787281,35.0865101 C17.2787281,35.8251735 17.8399861,36.3996895 18.5616035,36.3996895 C19.2832209,36.3996895 19.8444789,35.8251735 19.8444789,35.0865101 L19.8444789,27.2074342 C19.8444789,26.5098076 19.2431311,25.8942548 18.5616035,25.8942548 Z" id="Shape"></path>
                            <path d="M1.2828754,0.0820737079 C0.561257989,0.0820737079 0,0.656589663 0,1.39525303 L0,9.27432899 C0,10.0129924 0.561257989,10.5875083 1.2828754,10.5875083 C2.00449282,10.5875083 2.56575081,10.0129924 2.56575081,9.27432899 L2.56575081,1.39525303 C2.56575081,0.656589663 2.00449282,0.0820737079 1.2828754,0.0820737079 Z" id="Shape"></path>
                            <path d="M7.05581472,0.0820737079 C6.33419731,0.0820737079 5.77293932,0.656589663 5.77293932,1.39525303 L5.77293932,9.27432899 C5.77293932,10.0129924 6.33419731,10.5875083 7.05581472,10.5875083 C7.77743214,10.5875083 8.33869013,10.0129924 8.33869013,9.27432899 L8.33869013,1.39525303 C8.33869013,0.656589663 7.73734228,0.0820737079 7.05581472,0.0820737079 Z" id="Shape"></path>
                            <path d="M12.7886642,0.0820737079 C12.0670468,0.0820737079 11.5057888,0.656589663 11.5057888,1.39525303 L11.5057888,9.27432899 C11.5057888,10.0129924 12.0670468,10.5875083 12.7886642,10.5875083 C13.5102816,10.5875083 14.0715396,10.0129924 14.0715396,9.27432899 L14.0715396,1.39525303 C14.0715396,0.656589663 13.5102816,0.0820737079 12.7886642,0.0820737079 Z" id="Shape"></path>
                            <path d="M18.5616035,0.0820737079 C17.8399861,0.0820737079 17.2787281,0.656589663 17.2787281,1.39525303 L17.2787281,9.27432899 C17.2787281,10.0129924 17.8399861,10.5875083 18.5616035,10.5875083 C19.2832209,10.5875083 19.8444789,10.0129924 19.8444789,9.27432899 L19.8444789,1.39525303 C19.8444789,0.656589663 19.2431311,0.0820737079 18.5616035,0.0820737079 Z" id="Shape"></path>
                            <path d="M1.2828754,51.7474728 C0.561257989,51.7474728 0,52.3219888 0,53.0606522 L0,60.9397281 C0,61.6783915 0.561257989,62.2529074 1.2828754,62.2529074 C2.00449282,62.2529074 2.56575081,61.6783915 2.56575081,60.9397281 L2.56575081,53.0606522 C2.56575081,52.3219888 2.00449282,51.7474728 1.2828754,51.7474728 Z" id="Shape"></path>
                            <path d="M7.05581472,51.7474728 C6.33419731,51.7474728 5.77293932,52.3219888 5.77293932,53.0606522 L5.77293932,60.9397281 C5.77293932,61.6783915 6.33419731,62.2529074 7.05581472,62.2529074 C7.77743214,62.2529074 8.33869013,61.6783915 8.33869013,60.9397281 L8.33869013,53.0606522 C8.33869013,52.3219888 7.73734228,51.7474728 7.05581472,51.7474728 Z" id="Shape"></path>
                            <path d="M12.7886642,51.7474728 C12.0670468,51.7474728 11.5057888,52.3219888 11.5057888,53.0606522 L11.5057888,60.9397281 C11.5057888,61.6783915 12.0670468,62.2529074 12.7886642,62.2529074 C13.5102816,62.2529074 14.0715396,61.6783915 14.0715396,60.9397281 L14.0715396,53.0606522 C14.0715396,52.3219888 13.5102816,51.7474728 12.7886642,51.7474728 Z" id="Shape"></path>
                            <path d="M18.5616035,51.7474728 C17.8399861,51.7474728 17.2787281,52.3219888 17.2787281,53.0606522 L17.2787281,60.9397281 C17.2787281,61.6783915 17.8399861,62.2529074 18.5616035,62.2529074 C19.2832209,62.2529074 19.8444789,61.6783915 19.8444789,60.9397281 L19.8444789,53.0606522 C19.8444789,52.3219888 19.2431311,51.7474728 18.5616035,51.7474728 Z" id="Shape"></path>
                        </g>
                    </g>
                    <g id="Group-26" transform="translate(0.000000, 73.566879)">
                        <g id="Group-17">
                            <g id="Group-25">
                                <path d="M108.947052,20.8633285 C109.051783,20.8633285 55.8691856,0.521523617 54.5082147,0 C53.4614367,0.41716592 -0.0353533463,20.8633285 0.0693776195,20.8633285 L0.0693776195,59.2518635 C0.0693776195,85.8527464 7.71181417,120.590351 54.5082147,133.525408 C101.199884,120.590086 108.842321,85.2266002 108.842321,59.2518635 C108.947052,46.1080911 108.947052,20.8633285 108.947052,20.8633285 Z" id="Shape" fill="#DBDEE4"></path>
                                <path d="M98.3190744,27.9186382 C98.4238054,27.9186382 55.5008557,10.7062399 54.3493467,10.289074 C53.4070338,10.6021471 10.274888,27.1883992 10.379619,27.0840415 L10.379619,59.3178562 C10.379619,81.6416627 14.7767247,112.102191 54.3493467,122.951154 C93.8175036,112.102191 98.3190744,81.1201391 98.3190744,59.3178562 C98.4238054,48.2604431 98.4238054,27.9186382 98.3190744,27.9186382 Z" id="Shape" fill="#25AE88"></path>
                            </g>
                        </g>
                        <g id="padlock" transform="translate(31.897756, 36.114650)">
                            <path d="M3.32708051,20.8633815 L41.8742142,20.8633815 C43.6785259,20.8633815 45.1548567,22.3654966 45.1548567,24.2015564 L45.1548567,50.0722003 C45.1548567,51.9081541 43.6786301,53.4103752 41.8742142,53.4103752 L3.32708051,53.4103752 C1.52276874,53.4103752 0.0464379391,51.9082601 0.0464379391,50.0722003 L0.0464379391,24.2015564 C0.0464379391,22.3656026 1.52276874,20.8633815 3.32708051,20.8633815 Z" id="Shape" fill="#ECC45C"></path>
                            <path d="M3.32708051,19.194294 L41.8742142,19.194294 C43.6785259,19.194294 45.1548567,20.6964092 45.1548567,22.5324689 L45.1548567,24.2015564 C45.1548567,26.0375102 43.6786301,27.5397313 41.8742142,27.5397313 L3.32708051,27.5397313 C1.52276874,27.5397313 0.0464379391,26.0376162 0.0464379391,24.2015564 L0.0464379391,22.5324689 C0.0464379391,20.6965151 1.52276874,19.194294 3.32708051,19.194294 Z" id="Shape" fill="#F8D578"></path>
                            <path d="M8.24794023,21.6979252 C6.19759069,21.6979252 4.55726941,22.4489828 4.55726941,23.3670127 C4.55726941,24.2850426 6.19759069,25.0361001 8.24794023,25.0361001 C10.2982898,25.0361001 11.9386111,24.2850426 11.9386111,23.3670127 C11.9387152,22.4489828 10.2983939,21.6979252 8.24794023,21.6979252 Z M36.9533544,21.6979252 C34.9030049,21.6979252 33.2626836,22.4489828 33.2626836,23.3670127 C33.2626836,24.2850426 34.9030049,25.0361001 36.9533544,25.0361001 C39.003704,25.0361001 40.6440253,24.2850426 40.6440253,23.3670127 C40.6440253,22.4489828 39.003704,21.6979252 36.9533544,21.6979252 Z M22.6006994,34.2159753 C26.0043088,34.2159753 28.7518522,37.0117021 28.7518522,40.4750003 C28.7518522,43.9382985 26.0043088,46.7340254 22.6006994,46.7340254 C19.19709,46.7340254 16.4495466,43.9382985 16.4495466,40.4750003 C16.4495466,37.0117021 19.1969859,34.2159753 22.6006994,34.2159753 Z" id="Shape" fill="#D4B053"></path>
                            <path d="M22.6006994,35.8850627 C25.102205,35.8850627 27.1115309,37.929626 27.1115309,40.4750003 C27.1115309,43.0203746 25.102205,45.0649379 22.6006994,45.0649379 C20.0991938,45.0649379 18.0898679,43.0203746 18.0898679,40.4750003 C18.0897638,37.929626 20.0991938,35.8850627 22.6006994,35.8850627 Z" id="Shape" fill="#E4E7E7"></path>
                            <path d="M22.6006994,38.388588 C23.0517513,38.388588 23.42086,38.7641698 23.42086,39.2231317 L23.42086,41.7267629 C23.42086,42.1857249 23.0517513,42.5613067 22.6006994,42.5613067 C22.1496475,42.5613067 21.7805388,42.1857249 21.7805388,41.7267629 L21.7805388,39.2231317 C21.7805388,38.7641698 22.1495434,38.388588 22.6006994,38.388588 Z" id="Shape" fill="#324D5B"></path>
                            <path d="M22.6006994,0 C13.0868568,0 5.37743005,7.84462635 5.37743005,17.5252065 L5.37743005,22.5324689 C5.37743005,23.4504988 6.6486426,24.2015564 8.24794023,24.2015564 C9.84723787,24.2015564 11.1184504,23.4504988 11.1184504,22.5324689 L11.1184504,17.5252065 C11.1184504,11.0575721 16.2444284,5.8417002 22.6005953,5.8417002 C28.9567622,5.8417002 34.0827401,11.0575721 34.0827401,17.5252065 L34.0827401,22.5324689 C34.0827401,23.4504988 35.3539527,24.2015564 36.9532503,24.2015564 C38.552548,24.2015564 39.8237605,23.4504988 39.8237605,22.5324689 L39.8237605,17.5252065 C39.8238646,7.84462635 32.1144379,0 22.6006994,0 Z" id="Shape" fill="#E4E7E7"></path>
                            <path d="M22.6006994,3.33817494 C14.8912727,3.33817494 8.65807262,9.68068613 8.65807262,17.5253125 L8.65807262,24.2015564 C10.0523561,24.0763272 11.1185545,23.4087558 11.1185545,22.5324689 L11.1185545,17.5252065 C11.1185545,11.0575721 16.2445325,5.8417002 22.6006994,5.8417002 C28.9568663,5.8417002 34.0828443,11.0575721 34.0828443,17.5252065 L34.0828443,22.5324689 C34.0828443,23.3670127 35.1490427,24.0763272 36.5433262,24.2015564 L36.5433262,17.5253125 C36.5432221,9.68058019 30.3101261,3.33817494 22.6006994,3.33817494 Z" id="Shape" fill="#CDCFCF"></path>
                        </g>
                    </g>
                    <g id="Group-2" transform="translate(237.900030, 79.493780) rotate(-54.000000) translate(-237.900030, -79.493780) translate(218.400030, 59.993780)">
                        <g id="browser-(1)" transform="translate(0.000000, 0.000000)">
                            <path d="M37.8946065,38.2165605 L0.468748387,38.2165605 C0.271380645,38.2165605 0.111019355,38.0562975 0.111019355,37.8590507 L0.111019355,0.468461064 C0.111019355,0.2712143 0.271380645,0.110951305 0.468748387,0.110951305 L37.882271,0.110951305 C38.0796387,0.110951305 38.24,0.2712143 38.24,0.468461064 L38.24,37.8590507 C38.24,38.0562975 38.0796387,38.2165605 37.8946065,38.2165605 Z" id="Shape" fill="#324A5E"></path>
                            <rect id="Rectangle-path" fill="#FFFFFF" x="2.14637419" y="7.21183481" width="34.058271" height="28.9706185"></rect>
                            <path d="M33.5155097,25.9626053 C33.3428129,25.9626053 33.1947871,26.0612287 33.1207742,26.2091638 L31.2951226,30.0554757 L28.8280258,21.2779947 C28.7786839,21.0930758 28.6183226,20.9697966 28.4209548,20.9574687 C28.2482581,20.9697966 28.0632258,21.06842 27.9892129,21.2410109 L26.2745806,25.9379495 L22.6479484,25.9379495 C22.4752516,25.9379495 22.3148903,26.0365728 22.2532129,26.1968358 L19.860129,31.7813848 L16.9366194,19.46579 C16.8996129,19.2931991 16.7515871,19.1699199 16.5788903,19.1329361 C16.4061935,19.1082803 16.2334968,19.1822478 16.1348129,19.3301829 L11.7433806,26.5420177 L2.2203871,26.5420177 C2.19571613,26.5420177 2.17104516,26.5543456 2.14637419,26.5543456 L2.14637419,27.3926443 C2.17104516,27.3926443 2.19571613,27.4049723 2.2203871,27.4049723 L11.9900903,27.4049723 C12.1381161,27.4049723 12.2861419,27.3310047 12.3601548,27.1953976 L16.3321806,20.6739264 L19.3173677,33.2484076 C19.3667097,33.4333265 19.5147355,33.5689336 19.6997677,33.5812616 L19.7367742,33.5812616 C19.909471,33.5812616 20.0698323,33.4826382 20.1315097,33.3223752 L22.9316645,26.7885761 L26.5829677,26.7885761 C26.768,26.7885761 26.9283613,26.6776248 26.9900387,26.5050339 L28.3469419,22.7820012 L30.7646968,31.3745634 C30.8140387,31.5471543 30.9620645,31.6704335 31.1470968,31.6950894 C31.332129,31.7074173 31.5048258,31.6087939 31.5788387,31.4485309 L33.7745548,26.7885761 L36.2046452,26.7885761 L36.2046452,25.9132936 L33.5155097,25.9132936 L33.5155097,25.9626053 L33.5155097,25.9626053 Z" id="Shape" fill="#FF7058"></path>
                            <g id="Group" transform="translate(24.054194, 2.219026)" fill="#ACB3BA">
                                <ellipse id="Oval" cx="10.1027613" cy="1.34374358" rx="1.25821935" ry="1.25744812"></ellipse>
                                <ellipse id="Oval" cx="5.71132903" cy="1.34374358" rx="1.25821935" ry="1.25744812"></ellipse>
                                <ellipse id="Oval" cx="1.31989677" cy="1.34374358" rx="1.25821935" ry="1.25744812"></ellipse>
                            </g>
                            <g id="Group" transform="translate(4.194065, 9.369221)" fill="#E6E9EE">
                                <rect id="Rectangle-path" x="0.0740129032" y="0.0246558455" width="11.064929" height="1.26977604"></rect>
                                <rect id="Rectangle-path" x="0.0740129032" y="2.46558455" width="11.064929" height="1.26977604"></rect>
                                <rect id="Rectangle-path" x="0.0740129032" y="4.90651325" width="6.9572129" height="1.26977604"></rect>
                            </g>
                        </g>
                    </g>
                    <g id="Group-28" transform="translate(396.334904, 49.736231) rotate(-331.000000) translate(-396.334904, -49.736231) translate(367.334904, 26.736231)">
                        <path d="M57.2482989,38.0999112 C57.2482989,38.9010574 56.6009025,39.5503839 55.8017759,39.5503839 L1.44652304,39.5503839 C0.647508304,39.5503839 -5.68434189e-13,38.9010574 -5.68434189e-13,38.1000234 L-5.68434189e-13,1.4506969 C-5.68434189e-13,0.649774968 0.647508304,2.84217094e-13 1.44652304,2.84217094e-13 L55.8017759,2.84217094e-13 C56.6007906,2.84217094e-13 57.2482989,0.649774968 57.2482989,1.4506969 L57.2482989,38.0999112 L57.2482989,38.0999112 Z" id="Shape" fill="#E2E5E7"></path>
                        <path d="M35.1169549,39.5503839 L28.6242054,39.5503839 L22.1313441,39.5503839 C22.1313441,39.5503839 21.8682484,43.9019139 21.3422807,44.824942 L28.6242054,44.824942 L35.9060182,44.824942 C35.3799387,43.9018018 35.1169549,39.5503839 35.1169549,39.5503839 Z" id="Shape" fill="#D1D5D5"></path>
                        <path d="M37.122095,45.1876723 C36.3330316,45.0886643 35.9059064,44.8250541 35.9059064,44.8250541 L28.6240936,44.8250541 L21.3421689,44.8250541 C21.3421689,44.8250541 20.9150437,45.0887764 20.1259804,45.1876723 C19.3371406,45.2866803 18.8110611,45.3523866 18.8110611,45.7480822 L28.6240936,45.7480822 L38.4370143,45.7480822 C38.4370143,45.3523866 37.9110465,45.2865681 37.122095,45.1876723 Z" id="Shape" fill="#C6CBCB"></path>
                        <path d="M55.8017759,6.25277607e-13 L1.44652304,6.25277607e-13 C0.647508304,6.25277607e-13 -1.1937118e-12,0.649774968 -1.1937118e-12,1.4506969 L-1.1937118e-12,34.3638453 L57.2481871,34.3638453 L57.2481871,1.4506969 C57.2482989,0.649774968 56.6007906,6.25277607e-13 55.8017759,6.25277607e-13 Z M54.8789843,32.3023936 L26.1491158,32.3023936 L2.36931462,32.3023936 L2.36931462,2.06190024 L44.5879518,2.06190024 L54.8789843,2.06190024 L54.8789843,32.3023936 L54.8789843,32.3023936 Z" id="Shape" fill="#2D404E"></path>
                        <polygon id="Shape" fill="#DF584C" points="2.36931462 2.06190024 2.36931462 32.3023936 26.1491158 32.3023936 54.8789843 32.3023936 54.8789843 2.06190024 44.5879518 2.06190024"></polygon>
                        <path d="M35.1169549,39.5503839 L28.6242054,39.5503839 L22.1313441,39.5503839 C22.1313441,39.5503839 22.0920978,40.1976921 22.0139406,41.0450345 L35.2343584,41.0450345 C35.1560894,40.1976921 35.1169549,39.5503839 35.1169549,39.5503839 Z" id="Shape" fill="#C6CBCB"></path>
                        <ellipse id="Oval" fill="#2D404E" cx="28.631585" cy="37.0789965" rx="0.940569825" ry="0.943210876"></ellipse>
                        <g id="Group" transform="translate(15.114089, 7.641753)">
                            <path d="M26.6271685,17.0969254 C26.6271685,17.9151586 25.9733979,18.5786765 25.1670985,18.5786765 L1.48180981,18.5786765 C0.675510316,18.5786765 0.0217397558,17.9153344 0.0217397558,17.0969254 L0.0217397558,1.62257724 C0.0217397558,0.804344013 0.675510316,0.140826132 1.48180981,0.140826132 L25.1670985,0.140826132 C25.9735733,0.140826132 26.6271685,0.8041682 26.6271685,1.62257724 L26.6271685,17.0969254 L26.6271685,17.0969254 Z" id="Shape" fill="#E2E5E7"></path>
                            <path d="M0.656225049,18.3191766 C0.509657018,18.2168535 0.382374254,18.0885101 0.28103894,17.940124 L10.7692439,10.8379862 L11.0939377,11.16324 L0.656225049,18.3191766 Z" id="Shape" fill="#D1D5D5"></path>
                            <path d="M26.0016246,18.3191766 C26.1481926,18.2168535 26.2754754,18.0885101 26.376986,17.940124 L15.8886057,10.8379862 L15.5640873,11.16324 L26.0016246,18.3191766 Z" id="Shape" fill="#D1D5D5"></path>
                            <path d="M0.0869590233,1.18462731 C0.271045665,0.580182567 0.825935401,0.141001945 1.48180981,0.141001945 L25.1670985,0.141001945 C25.7717792,0.141001945 26.2905529,0.51425273 26.5123335,1.04573512 C26.5351252,1.10058875 26.5547611,1.15702469 26.5710659,1.21469132 L17.1232135,10.8376345 C17.1232135,10.8376345 15.09528,13.4268311 13.3287495,13.4268311 C11.6479508,13.4268311 9.57951821,10.8376345 9.57951821,10.8376345 L0.0869590233,1.18462731 Z" id="Shape" fill="#C6CBCB"></path>
                            <path d="M0.0869590233,1.18462731 C0.271045665,0.580182567 0.825935401,0.141001945 1.48180981,0.141001945 L25.1670985,0.141001945 C25.7717792,0.141001945 26.2905529,0.51425273 26.5123335,1.04573512 C26.5351252,1.10058875 26.5547611,1.15702469 26.5710659,1.21469132 L16.3931785,10.8376345 C16.3931785,10.8376345 14.7707615,12.288091 13.3287495,12.288091 C11.8506214,12.288091 10.2283798,10.8376345 10.2283798,10.8376345 L0.0869590233,1.18462731 Z" id="Shape" fill="#E2E5E7"></path>
                        </g>
                        <path d="M55.8017759,1.98951966e-13 L45.8439457,1.98951966e-13 L24.8926746,34.3638453 L57.2481871,34.3638453 L57.2481871,1.4506969 C57.2482989,0.649774968 56.6007906,1.98951966e-13 55.8017759,1.98951966e-13 Z" id="Shape" fill="#E2E5E7" opacity="0.16"></path>
                    </g>
                    <g id="smartphone-(1)" transform="translate(419.499828, 222.528928) scale(-1, 1) rotate(-56.000000) translate(-419.499828, -222.528928) translate(389.999828, 195.028928)">
                        <g id="Group" transform="translate(0.000000, 0.000000)">
                            <g transform="translate(7.839905, 0.000000)">
                                <path d="M3.24083509,47.1616003 C5.58246712,48.0280593 41.2483555,12.7076871 41.2483555,12.7076871 C41.2483555,12.7076871 42.8006568,8.52538018 39.4430185,7.28270303 C36.8313074,6.31628981 20.9174357,0.426819268 20.9174357,0.426819268 C17.8698713,-0.700814092 15.9948841,0.793166799 15.4032553,2.38766919 C14.8113992,3.98205812 0.993736413,41.2093889 0.254285627,43.2021198 C-0.485392403,45.1949642 0.899316683,46.2951413 3.24083509,47.1616003 Z" id="Shape" fill="#C6CBCB"></path>
                                <path d="M26.5648945,52.2677747 C25.9295213,53.97959 24.0246515,54.8530832 22.3100983,54.2186405 L3.09233137,47.1065744 C1.37777815,46.4721318 0.503003784,44.5698248 1.13860423,42.8580096 L15.821838,3.29792197 C16.4572112,1.58587978 18.3623082,0.712386545 20.0768615,1.34705613 L39.2944011,8.45912221 C41.0089543,9.09356489 41.8837287,10.9956449 41.2483555,12.7076871 L26.5648945,52.2677747 Z" id="Shape" fill="#E2E5E7"></path>
                                <rect id="Rectangle-path" fill="#2D404E" transform="translate(21.707505, 26.394439) rotate(20.334081) translate(-21.707505, -26.394439) " x="9.88339959" y="7.50347471" width="23.6482118" height="37.7819293"></rect>
                                <path d="M32.5244724,8.30402866 C32.4336886,8.54886545 32.1447483,8.66742635 31.8793277,8.56906051 L25.6287643,6.25581807 C25.3633438,6.15767914 25.221771,5.87982683 25.3125548,5.6351035 L25.3125548,5.6351035 C25.4033386,5.39049363 25.6922789,5.27193272 25.9576995,5.37007166 L32.2080356,7.68331409 C32.4734562,7.78167994 32.615029,8.05930533 32.5244724,8.30402866 L32.5244724,8.30402866 Z" id="Shape" fill="#586A73"></path>
                                <path d="M32.2071267,8.585625 C32.1044125,8.61330812 31.9898817,8.61001791 31.8793277,8.56906051 L25.6287643,6.25581807 C25.3633438,6.15767914 25.221771,5.87982683 25.3125548,5.6351035 L25.3125548,5.6351035 C25.4033386,5.39049363 25.6922789,5.27193272 25.9576995,5.37007166 C25.9576995,5.37007166 25.699778,5.50565088 25.6847799,5.77272492 C25.6696682,6.04013933 26.4019608,6.33206011 26.7344182,6.45527269 C27.0673301,6.57848527 32.2071267,8.585625 32.2071267,8.585625 Z" id="Shape" fill="#2D404E"></path>
                                <polygon id="Shape" fill="#E2E5E7" opacity="0.19" points="17.1983663 4.57395502 5.69347563 35.5707683 38.5440426 15.0086764 39.3713231 12.7797313"></polygon>
                                <g transform="translate(11.816669, 45.268710)">
                                    <ellipse id="Oval" fill="#C6CBCB" cx="2.1008674" cy="2.07827627" rx="1.99349478" ry="1.99057524"></ellipse>
                                    <ellipse id="Oval" fill="#D1D5D5" cx="2.1008674" cy="2.07827627" rx="1.70285017" ry="1.70035629"></ellipse>
                                    <path d="M3.3325279,2.53391322 C3.58465471,1.85476911 3.2377673,1.09995024 2.55739986,0.848306131 C1.87725966,0.596548567 1.12133371,0.942927946 0.869320523,1.62229896 C0.616966467,2.30189689 0.964308362,3.05648885 1.64444856,3.30813296 C2.32458876,3.55977707 3.08040108,3.21351115 3.3325279,2.53391322 Z" id="Shape" fill="#E2E5E7"></path>
                                </g>
                                <path d="M33.7810161,6.06192277 L37.5300816,7.44948248 C37.5300816,7.44948248 37.8041374,7.30630175 37.7235795,6.92781449 L33.974514,5.54025478 C33.974514,5.54025478 33.6418293,5.71406847 33.7810161,6.06192277 Z" id="Shape" fill="#D1D5D5"></path>
                                <path d="M37.7235795,6.92792795 L33.974514,5.54036823 C33.974514,5.54036823 33.7265912,5.66982086 33.7484066,5.92906648 L37.6301824,7.3649582 C37.6989236,7.2853125 37.7699372,7.14576234 37.7235795,6.92792795 Z" id="Shape" fill="#E2E5E7"></path>
                                <ellipse id="Oval" fill="#E2E5E7" transform="translate(22.744747, 1.445650) rotate(200.334081) translate(-22.744747, -1.445650) " cx="22.7447472" cy="1.22373475" rx="0.929557533" ry="0.278084439"></ellipse>
                            </g>
                            <g transform="translate(45.335105, 23.031449)" id="Shape" fill="#DF584C">
                                <path d="M9.7893149,11.4510549 C8.45664461,15.041465 5.60598684,17.6273408 2.23323682,18.7570163 L3.26355945,20.8173666 C7.13624547,19.4237938 10.3917378,16.4010012 11.9342676,12.2450159 C13.4770246,8.08903065 12.9806109,3.67822452 10.9524614,0.101088774 L8.82648362,0.992961783 C10.6469324,4.04479896 11.1218716,7.86098527 9.7893149,11.4510549 Z"></path>
                                <path d="M5.21580952,9.75875398 C4.33035469,12.144381 2.32686119,13.7910729 0.0178386253,14.3283977 L1.19336995,16.6781728 C4.06345705,15.8197691 6.51053012,13.6739869 7.63186383,10.6528961 C8.75319755,7.63123806 8.2978013,4.41171377 6.68096285,1.89311704 L4.25604603,2.91024482 C5.65654854,4.82038018 6.10149158,7.37290008 5.21580952,9.75875398 Z"></path>
                            </g>
                            <g transform="translate(0.000000, 6.466959)" id="Shape" fill="#DF584C">
                                <path d="M3.04995044,9.41816083 C1.71728014,13.0084574 2.1919921,16.8250975 4.01289534,19.8767078 L1.88669027,20.7685808 C-0.141231919,17.191672 -0.637645638,12.780412 0.904884152,8.62442675 C2.44741394,4.46844148 5.70279262,1.44598925 9.57559226,0.0523029459 L10.6059149,2.11265326 C7.23339212,3.24255573 4.38262073,5.82786425 3.04995044,9.41816083 Z"></path>
                                <path d="M7.62345582,11.1106887 C6.73777376,13.4967695 7.18271679,16.0492894 8.58321931,17.9591979 L6.15830249,18.9767795 C4.54146403,16.4577289 4.08606779,13.2382046 5.2074015,10.2165466 C6.32896246,7.19534236 8.77580829,5.04967357 11.6461226,4.19161027 L12.8214267,6.54115844 C10.5124041,7.07836982 8.50891064,8.7250617 7.62345582,11.1106887 Z"></path>
                            </g>
                        </g>
                    </g>
                    <g id="signing" transform="translate(310.632074, 32.342354) rotate(-24.000000) translate(-310.632074, -32.342354) translate(286.632074, 8.342354)">
                        <polygon id="Shape" fill="#ECE7EA" points="-6.53699317e-13 2.84217094e-14 -6.53699317e-13 40.3397442 5.31112148 42.4628346 7.43560742 47.7707006 32.4905562 47.7707006 32.4905562 2.84217094e-14"></polygon>
                        <g id="Group" transform="translate(4.481250, 6.624453)" fill="#8B7E7F">
                            <path d="M22.6981848,35.5730307 L15.8573699,35.5730307 C15.4173672,35.5730307 15.0607344,35.2165232 15.0607344,34.7768835 C15.0607344,34.3372437 15.4174605,33.9807362 15.8573699,33.9807362 L22.6981848,33.9807362 C23.1381875,33.9807362 23.4948203,34.3372437 23.4948203,34.7768835 C23.4948203,35.2165232 23.1381875,35.5730307 22.6981848,35.5730307 Z" id="Shape"></path>
                            <path d="M22.6981848,1.60274433 L0.829871484,1.60274433 C0.38986875,1.60274433 0.0332359375,1.24623681 0.0332359375,0.806597084 C0.0332359375,0.366864053 0.389962109,0.0104498408 0.829871484,0.0104498408 L22.6981848,0.0104498408 C23.1381875,0.0104498408 23.4948203,0.366957355 23.4948203,0.806597084 C23.4948203,1.24623681 23.1381875,1.60274433 22.6981848,1.60274433 Z" id="Shape"></path>
                            <path d="M22.6981848,5.84901846 L0.829871484,5.84901846 C0.38986875,5.84901846 0.0332359375,5.49251095 0.0332359375,5.05287122 C0.0332359375,4.61323149 0.389962109,4.25672397 0.829871484,4.25672397 L22.6981848,4.25672397 C23.1381875,4.25672397 23.4948203,4.61323149 23.4948203,5.05287122 C23.4948203,5.49251095 23.1381875,5.84901846 22.6981848,5.84901846 Z" id="Shape"></path>
                            <path d="M22.6981848,10.0952926 L0.829871484,10.0952926 C0.38986875,10.0952926 0.0332359375,9.73878508 0.0332359375,9.29914535 C0.0332359375,8.85950562 0.389962109,8.50299811 0.829871484,8.50299811 L22.6981848,8.50299811 C23.1381875,8.50299811 23.4948203,8.85950562 23.4948203,9.29914535 C23.4948203,9.73878508 23.1381875,10.0952926 22.6981848,10.0952926 Z" id="Shape"></path>
                            <path d="M22.6981848,14.3415667 L0.829871484,14.3415667 C0.38986875,14.3415667 0.0332359375,13.9850592 0.0332359375,13.5454195 C0.0332359375,13.1057798 0.389962109,12.7492722 0.829871484,12.7492722 L22.6981848,12.7492722 C23.1381875,12.7492722 23.4948203,13.1057798 23.4948203,13.5454195 C23.4948203,13.9850592 23.1381875,14.3415667 22.6981848,14.3415667 Z" id="Shape"></path>
                            <path d="M22.6981848,18.5878409 L0.829871484,18.5878409 C0.38986875,18.5878409 0.0332359375,18.2313333 0.0332359375,17.7916936 C0.0332359375,17.3520539 0.389962109,16.9955464 0.829871484,16.9955464 L22.6981848,16.9955464 C23.1381875,16.9955464 23.4948203,17.3520539 23.4948203,17.7916936 C23.4948203,18.2313333 23.1381875,18.5878409 22.6981848,18.5878409 Z" id="Shape"></path>
                            <path d="M22.6981848,22.834115 L0.829871484,22.834115 C0.38986875,22.834115 0.0332359375,22.4776075 0.0332359375,22.0379678 C0.0332359375,21.598328 0.389962109,21.2418205 0.829871484,21.2418205 L22.6981848,21.2418205 C23.1381875,21.2418205 23.4948203,21.598328 23.4948203,22.0379678 C23.4948203,22.4776075 23.1381875,22.834115 22.6981848,22.834115 Z" id="Shape"></path>
                        </g>
                        <polygon id="Shape" fill="#C2B8B9" points="44.4826613 15.9540145 43.9568613 12.4259803 40.4267566 11.9005026 38.1734348 14.1525366 38.6992348 17.6805708 42.2294328 18.2059552"></polygon>
                        <path d="M17.3366492,38.2792596 C17.129298,38.4864836 17.129298,38.8226513 17.3366492,39.0298753 C17.5440937,39.2371927 17.8803742,39.2370994 18.0877254,39.0298753 L21.3969418,37.0826595 L21.8431996,34.5260873 L19.2850594,34.9720716 L17.3366492,38.2792596 Z" id="Shape" fill="#463836"></path>
                        <polygon id="Shape" fill="#F99D88" points="22.0686625 30.2474373 19.2850594 34.9720716 21.3970352 37.0826595 26.1245672 34.3008559 25.5988605 30.7728217"></polygon>
                        <path d="M46.9612594,13.4768424 C48.0794246,12.3593626 48.0796113,10.540997 46.9612594,9.42333051 C45.8429074,8.30566406 44.0234266,8.30585067 42.9052613,9.42333051 L40.4265699,11.9005026 L44.482568,15.9540145 L46.9612594,13.4768424 Z" id="Shape" fill="#F14742"></path>
                        <rect id="Rectangle-path" fill="#FFD24D" transform="translate(32.148723, 24.226789) rotate(135.000000) translate(-32.148723, -24.226789) " x="20.7613691" y="21.3606215" width="22.7747078" height="5.7323358"></rect>
                        <polygon id="Shape" fill="#D6CED1" points="-5.68434189e-13 40.3397442 7.43560742 47.7707006 7.43560742 40.3397442"></polygon>
                    </g>
                    <g id="offices" transform="translate(446.861277, 135.098200) rotate(-280.000000) translate(-446.861277, -135.098200) translate(418.361277, 109.098200)">
                        <path d="M44.3442757,26.8925522 L28.9361663,26.8925522 L28.9361663,19.2332652 C28.9361663,18.7023987 28.5050297,18.271934 27.9721152,18.271934 C27.4393099,18.271934 27.0080641,18.7023987 27.0080641,19.2332652 L27.0080641,26.8925522 L11.5680672,26.8925522 C8.91037442,26.8925522 6.74803008,29.0487957 6.74803008,31.6989901 L6.74803008,37.466759 C6.74803008,37.9976255 7.17916666,38.4280902 7.71208118,38.4280902 C8.2449957,38.4280902 8.67613228,37.9976255 8.67613228,37.466759 L8.67613228,31.6989901 C8.67613228,30.1087863 9.97347336,28.8151056 11.5681764,28.8151056 L27.0082825,28.8151056 L27.0082825,37.4666501 C27.0082825,37.9975166 27.4394191,38.4279813 27.9723336,38.4279813 C28.5051389,38.4279813 28.9363847,37.9975166 28.9363847,37.4666501 L28.9363847,28.8151056 L44.3444941,28.8151056 C45.9391971,28.8151056 47.2365382,30.1087863 47.2365382,31.6989901 L47.2365382,37.466759 C47.2365382,37.9976255 47.6676748,38.4280902 48.2005893,38.4280902 C48.7333946,38.4280902 49.1646404,37.9976255 49.1646404,37.466759 L49.1646404,31.6989901 C49.1643128,29.0487957 47.0019684,26.8925522 44.3442757,26.8925522 Z" id="Shape" fill="#E4EAF6"></path>
                        <path d="M39.5242386,19.2332652 L16.3881043,19.2332652 L16.3881043,0.968844929 C16.3881043,0.437978454 16.8197869,0.00751380242 17.3521554,0.00751380242 L38.5602967,0.00751380242 C39.0926652,0.00751380242 39.5243478,0.437978454 39.5243478,0.968844929 L39.5243478,19.2332652 L39.5242386,19.2332652 Z" id="Shape" fill="#C7CFE2"></path>
                        <rect id="Rectangle-path" fill="#AFB9D2" x="16.3881043" y="13.4654962" width="23.1361343" height="4.80643784"></rect>
                        <g id="Group" transform="translate(19.219868, 15.354292)" fill="#707487">
                            <path d="M1.02422239,0.033757663 L1.02422239,0.033757663 C0.491853891,0.033757663 0.0601712908,0.464222315 0.0601712908,0.99508879 L0.0601712908,2.91764215 C0.0601712908,3.44850862 0.491853891,3.87897327 1.02422239,3.87897327 L1.02422239,3.87897327 C1.55659089,3.87897327 1.98827349,3.44850862 1.98827349,2.91764215 L1.98827349,0.99508879 C1.98827349,0.464222315 1.55659089,0.033757663 1.02422239,0.033757663 Z" id="Shape"></path>
                            <path d="M8.73630357,0.033757663 L8.73630357,0.033757663 C8.20393507,0.033757663 7.77225247,0.464222315 7.77225247,0.99508879 L7.77225247,2.91764215 C7.77225247,3.44850862 8.20393507,3.87897327 8.73630357,3.87897327 L8.73630357,3.87897327 C9.26867207,3.87897327 9.70035467,3.44850862 9.70035467,2.91764215 L9.70035467,0.99508879 C9.70035467,0.464222315 9.26867207,0.033757663 8.73630357,0.033757663 Z" id="Shape"></path>
                            <path d="M12.5922896,0.033757663 L12.5922896,0.033757663 C12.0599211,0.033757663 11.6282385,0.464222315 11.6282385,0.99508879 L11.6282385,2.91764215 C11.6282385,3.44850862 12.0599211,3.87897327 12.5922896,3.87897327 L12.5922896,3.87897327 C13.1246581,3.87897327 13.5563407,3.44850862 13.5563407,2.91764215 L13.5563407,0.99508879 C13.5563407,0.464222315 13.1246581,0.033757663 12.5922896,0.033757663 Z" id="Shape"></path>
                            <path d="M16.4483848,0.033757663 L16.4483848,0.033757663 C15.9160163,0.033757663 15.4843337,0.464222315 15.4843337,0.99508879 L15.4843337,2.91764215 C15.4843337,3.44850862 15.9160163,3.87897327 16.4483848,3.87897327 L16.4483848,3.87897327 C16.9807533,3.87897327 17.4124359,3.44850862 17.4124359,2.91764215 L17.4124359,0.99508879 C17.4123266,0.464222315 16.9807533,0.033757663 16.4483848,0.033757663 Z" id="Shape"></path>
                            <path d="M4.88031758,0.033757663 L4.88031758,0.033757663 C4.34794908,0.033757663 3.91626648,0.464222315 3.91626648,0.99508879 L3.91626648,2.91764215 C3.91626648,3.44850862 4.34794908,3.87897327 4.88031758,3.87897327 L4.88031758,3.87897327 C5.41268608,3.87897327 5.84436868,3.44850862 5.84436868,2.91764215 L5.84436868,0.99508879 C5.84425948,0.464222315 5.41268608,0.033757663 4.88031758,0.033757663 Z" id="Shape"></path>
                        </g>
                        <g id="Group" transform="translate(14.414901, 1.851227)" fill="#8F96AC">
                            <path d="M26.0733888,18.3432607 L1.00915227,18.3432607 C0.476783767,18.3432607 0.0451011672,17.9127961 0.0451011672,17.3819296 L0.0451011672,17.3819296 C0.0451011672,16.8510631 0.476783767,16.4205985 1.00915227,16.4205985 L26.0732796,16.4205985 C26.6056481,16.4205985 27.0373307,16.8510631 27.0373307,17.3819296 L27.0373307,17.3819296 C27.0373307,17.912905 26.6057573,18.3432607 26.0733888,18.3432607 Z" id="Shape"></path>
                            <path d="M5.82918935,0.0788404775 L5.82918935,0.0788404775 C5.29682086,0.0788404775 4.86513826,0.509305129 4.86513826,1.0401716 L4.86513826,8.73049393 C4.86513826,9.2613604 5.29682086,9.69182506 5.82918935,9.69182506 L5.82918935,9.69182506 C6.36155785,9.69182506 6.79324045,9.2613604 6.79324045,8.73049393 L6.79324045,1.0401716 C6.79324045,0.509305129 6.36155785,0.0788404775 5.82918935,0.0788404775 Z" id="Shape"></path>
                            <path d="M9.68528455,0.0788404775 L9.68528455,0.0788404775 C9.15291605,0.0788404775 8.72123345,0.509305129 8.72123345,1.0401716 L8.72123345,8.73049393 C8.72123345,9.2613604 9.15291605,9.69182506 9.68528455,9.69182506 L9.68528455,9.69182506 C10.217653,9.69182506 10.6493356,9.2613604 10.6493356,8.73049393 L10.6493356,1.0401716 C10.6492264,0.509305129 10.217653,0.0788404775 9.68528455,0.0788404775 Z" id="Shape"></path>
                            <path d="M13.5412705,0.0788404775 L13.5412705,0.0788404775 C13.008902,0.0788404775 12.5772194,0.509305129 12.5772194,1.0401716 L12.5772194,8.73049393 C12.5772194,9.2613604 13.008902,9.69182506 13.5412705,9.69182506 L13.5412705,9.69182506 C14.073639,9.69182506 14.5053216,9.2613604 14.5053216,8.73049393 L14.5053216,1.0401716 C14.5053216,0.509305129 14.073639,0.0788404775 13.5412705,0.0788404775 Z" id="Shape"></path>
                            <path d="M17.3972565,0.0788404775 L17.3972565,0.0788404775 C16.864888,0.0788404775 16.4332054,0.509305129 16.4332054,1.0401716 L16.4332054,8.73049393 C16.4332054,9.2613604 16.864888,9.69182506 17.3972565,9.69182506 L17.3972565,9.69182506 C17.929625,9.69182506 18.3613076,9.2613604 18.3613076,8.73049393 L18.3613076,1.0401716 C18.3613076,0.509305129 17.929625,0.0788404775 17.3972565,0.0788404775 Z" id="Shape"></path>
                            <path d="M21.2533517,0.0788404775 L21.2533517,0.0788404775 C20.7209832,0.0788404775 20.2893006,0.509305129 20.2893006,1.0401716 L20.2893006,8.73049393 C20.2893006,9.2613604 20.7209832,9.69182506 21.2533517,9.69182506 L21.2533517,9.69182506 C21.7857202,9.69182506 22.2174028,9.2613604 22.2174028,8.73049393 L22.2174028,1.0401716 C22.2172936,0.509305129 21.7857202,0.0788404775 21.2533517,0.0788404775 Z" id="Shape"></path>
                        </g>
                        <g id="Group" transform="translate(19.219868, 3.811349)" fill="#707487">
                            <rect id="Rectangle-path" x="11.6283477" y="3.88648708" width="1.92799299" height="1.92255336"></rect>
                            <rect id="Rectangle-path" x="15.4843337" y="3.88648708" width="1.92799299" height="1.92255336"></rect>
                            <rect id="Rectangle-path" x="3.91626648" y="3.88648708" width="1.92799299" height="1.92255336"></rect>
                            <rect id="Rectangle-path" x="0.0602804946" y="3.88648708" width="1.92799299" height="1.92255336"></rect>
                            <rect id="Rectangle-path" x="7.77225247" y="3.88648708" width="1.92799299" height="1.92255336"></rect>
                            <rect id="Rectangle-path" x="11.6283477" y="0.0412714654" width="1.92799299" height="1.92255336"></rect>
                            <rect id="Rectangle-path" x="15.4843337" y="0.0412714654" width="1.92799299" height="1.92255336"></rect>
                            <rect id="Rectangle-path" x="3.91626648" y="0.0412714654" width="1.92799299" height="1.92255336"></rect>
                            <rect id="Rectangle-path" x="0.0602804946" y="0.0412714654" width="1.92799299" height="1.92255336"></rect>
                            <rect id="Rectangle-path" x="7.77225247" y="0.0412714654" width="1.92799299" height="1.92255336"></rect>
                        </g>
                        <path d="M14.4601113,49.9943367 L0.964051099,49.9943367 L0.964051099,36.5363543 C0.964051099,36.0054878 1.3957337,35.5750232 1.9281022,35.5750232 L13.4961694,35.5750232 C14.0285379,35.5750232 14.4602205,36.0054878 14.4602205,36.5363543 L14.4602205,49.9943367 L14.4601113,49.9943367 Z" id="Shape" fill="#AFB9D2"></path>
                        <g id="Group" transform="translate(0.000000, 37.460116)" fill="#8F96AC">
                            <path d="M14.4601113,13.4955514 L0.964051099,13.4955514 C0.4316826,13.4955514 1.70530257e-13,13.0650868 1.70530257e-13,12.5342203 L1.70530257e-13,12.5342203 C1.70530257e-13,12.0033538 0.4316826,11.5728892 0.964051099,11.5728892 L14.4601113,11.5728892 C14.9924798,11.5728892 15.4241624,12.0033538 15.4241624,12.5342203 L15.4241624,12.5342203 C15.4240532,13.0650868 14.9924798,13.4955514 14.4601113,13.4955514 Z" id="Shape"></path>
                            <rect id="Rectangle-path" x="0.964051099" y="7.72789134" width="13.4960602" height="1.92255336"></rect>
                            <rect id="Rectangle-path" x="0.964051099" y="3.88267573" width="13.4960602" height="1.92255336"></rect>
                            <rect id="Rectangle-path" x="0.964051099" y="0.0375690121" width="13.4960602" height="1.92255336"></rect>
                        </g>
                        <g id="Group" transform="translate(0.873630, 37.460116)" fill="#707487">
                            <rect id="Rectangle-path" x="5.87439973" y="0.0375690121" width="1.92799299" height="1.92255336"></rect>
                            <rect id="Rectangle-path" x="5.87439973" y="3.88267573" width="1.92799299" height="1.92255336"></rect>
                            <rect id="Rectangle-path" x="5.87439973" y="7.72789134" width="1.92799299" height="1.92255336"></rect>
                            <rect id="Rectangle-path" x="0.090420742" y="0.0375690121" width="1.92799299" height="1.92255336"></rect>
                            <rect id="Rectangle-path" x="0.090420742" y="3.88267573" width="1.92799299" height="1.92255336"></rect>
                            <rect id="Rectangle-path" x="0.090420742" y="7.72789134" width="1.92799299" height="1.92255336"></rect>
                            <rect id="Rectangle-path" x="11.6584879" y="0.0375690121" width="1.92799299" height="1.92255336"></rect>
                            <rect id="Rectangle-path" x="11.6584879" y="3.88267573" width="1.92799299" height="1.92255336"></rect>
                            <rect id="Rectangle-path" x="11.6584879" y="7.72789134" width="1.92799299" height="1.92255336"></rect>
                        </g>
                        <path d="M34.7042015,49.9943367 L21.2081413,49.9943367 L21.2081413,36.5363543 C21.2081413,36.0054878 21.6398239,35.5750232 22.1721924,35.5750232 L33.7402596,35.5750232 C34.2726281,35.5750232 34.7043107,36.0054878 34.7043107,36.5363543 L34.7043107,49.9943367 L34.7042015,49.9943367 Z" id="Shape" fill="#AFB9D2"></path>
                        <g id="Group" transform="translate(20.202702, 37.460116)" fill="#8F96AC">
                            <path d="M14.5014995,13.4955514 L1.00543934,13.4955514 C0.473070838,13.4955514 0.0413882382,13.0650868 0.0413882382,12.5342203 L0.0413882382,12.5342203 C0.0413882382,12.0033538 0.473070838,11.5728892 1.00543934,11.5728892 L14.5014995,11.5728892 C15.033868,11.5728892 15.4655506,12.0033538 15.4655506,12.5342203 L15.4655506,12.5342203 C15.4655506,13.0650868 15.033868,13.4955514 14.5014995,13.4955514 Z" id="Shape"></path>
                            <rect id="Rectangle-path" x="1.00543934" y="7.72789134" width="13.4960602" height="1.92255336"></rect>
                            <rect id="Rectangle-path" x="1.00543934" y="3.88267573" width="13.4960602" height="1.92255336"></rect>
                            <rect id="Rectangle-path" x="1.00543934" y="0.0375690121" width="13.4960602" height="1.92255336"></rect>
                        </g>
                        <g id="Group" transform="translate(21.185536, 37.460116)" fill="#707487">
                            <rect id="Rectangle-path" x="5.80658417" y="0.0375690121" width="1.92799299" height="1.92255336"></rect>
                            <rect id="Rectangle-path" x="5.80658417" y="3.88267573" width="1.92799299" height="1.92255336"></rect>
                            <rect id="Rectangle-path" x="5.80658417" y="7.72789134" width="1.92799299" height="1.92255336"></rect>
                            <rect id="Rectangle-path" x="0.0226051855" y="0.0375690121" width="1.92799299" height="1.92255336"></rect>
                            <rect id="Rectangle-path" x="0.0226051855" y="3.88267573" width="1.92799299" height="1.92255336"></rect>
                            <rect id="Rectangle-path" x="0.0226051855" y="7.72789134" width="1.92799299" height="1.92255336"></rect>
                            <rect id="Rectangle-path" x="11.5906724" y="0.0375690121" width="1.92799299" height="1.92255336"></rect>
                            <rect id="Rectangle-path" x="11.5906724" y="3.88267573" width="1.92799299" height="1.92255336"></rect>
                            <rect id="Rectangle-path" x="11.5906724" y="7.72789134" width="1.92799299" height="1.92255336"></rect>
                        </g>
                        <path d="M54.9482918,49.9943367 L41.4522316,49.9943367 L41.4522316,36.5363543 C41.4522316,36.0054878 41.8839142,35.5750232 42.4162827,35.5750232 L53.9843499,35.5750232 C54.5167184,35.5750232 54.948401,36.0054878 54.948401,36.5363543 L54.948401,49.9943367 L54.9482918,49.9943367 Z" id="Shape" fill="#AFB9D2"></path>
                        <g id="Group" transform="translate(40.405404, 37.460116)" fill="#8F96AC">
                            <path d="M14.5428877,13.4955514 L1.04682758,13.4955514 C0.514459077,13.4955514 0.0827764763,13.0650868 0.0827764763,12.5342203 L0.0827764763,12.5342203 C0.0827764763,12.0033538 0.514459077,11.5728892 1.04682758,11.5728892 L14.5428877,11.5728892 C15.0752562,11.5728892 15.5069388,12.0033538 15.5069388,12.5342203 L15.5069388,12.5342203 C15.5069388,13.0650868 15.0752562,13.4955514 14.5428877,13.4955514 Z" id="Shape"></path>
                            <rect id="Rectangle-path" x="1.04682758" y="7.72789134" width="13.4960602" height="1.92255336"></rect>
                            <rect id="Rectangle-path" x="1.04682758" y="3.88267573" width="13.4960602" height="1.92255336"></rect>
                            <rect id="Rectangle-path" x="1.04682758" y="0.0375690121" width="13.4960602" height="1.92255336"></rect>
                        </g>
                        <g id="Group" transform="translate(41.388238, 37.460116)" fill="#707487">
                            <rect id="Rectangle-path" x="5.84808161" y="0.0375690121" width="1.92799299" height="1.92255336"></rect>
                            <rect id="Rectangle-path" x="5.84808161" y="3.88267573" width="1.92799299" height="1.92255336"></rect>
                            <rect id="Rectangle-path" x="5.84808161" y="7.72789134" width="1.92799299" height="1.92255336"></rect>
                            <rect id="Rectangle-path" x="0.0639934237" y="0.0375690121" width="1.92799299" height="1.92255336"></rect>
                            <rect id="Rectangle-path" x="0.0639934237" y="3.88267573" width="1.92799299" height="1.92255336"></rect>
                            <rect id="Rectangle-path" x="0.0639934237" y="7.72789134" width="1.92799299" height="1.92255336"></rect>
                            <rect id="Rectangle-path" x="11.6320606" y="0.0375690121" width="1.92799299" height="1.92255336"></rect>
                            <rect id="Rectangle-path" x="11.6320606" y="3.88267573" width="1.92799299" height="1.92255336"></rect>
                            <rect id="Rectangle-path" x="11.6320606" y="7.72789134" width="1.92799299" height="1.92255336"></rect>
                        </g>
                    </g>
                </g>
            </g>
        </g>
    </g>
</svg>