<?xml version="1.0" encoding="UTF-8"?>
<svg width="73px" height="76px" viewBox="0 0 73 76" version="1.1" xmlns="http://www.w3.org/2000/svg" xmlns:xlink="http://www.w3.org/1999/xlink">
    <!-- Generator: Sketch 41.2 (35397) - http://www.bohemiancoding.com/sketch -->
    <title>Group</title>
    <desc>Created with Sketch.</desc>
    <defs>
        <linearGradient x1="49.2991503%" y1="106.638013%" x2="51.0538861%" y2="-3.12648205%" id="linearGradient-1">
            <stop stop-color="#D5D5D5" offset="0%"></stop>
            <stop stop-color="#EBEBEB" offset="100%"></stop>
        </linearGradient>
        <linearGradient x1="10.2795404%" y1="59.80264%" x2="102.752014%" y2="34.2139428%" id="linearGradient-2">
            <stop stop-color="#00736C" offset="0%"></stop>
            <stop stop-color="#00837B" offset="10.28%"></stop>
            <stop stop-color="#009087" offset="22.05%"></stop>
            <stop stop-color="#009990" offset="35.14%"></stop>
            <stop stop-color="#00A097" offset="50.06%"></stop>
            <stop stop-color="#00A59B" offset="68.37%"></stop>
            <stop stop-color="#00A79D" offset="100%"></stop>
        </linearGradient>
        <linearGradient x1="49.9888214%" y1="99.9931477%" x2="49.9888214%" y2="0.00396962025%" id="linearGradient-3">
            <stop stop-color="#00A79D" offset="0%"></stop>
            <stop stop-color="#00A298" offset="16.69%"></stop>
            <stop stop-color="#00978E" offset="42.58%"></stop>
            <stop stop-color="#00857D" offset="74.25%"></stop>
            <stop stop-color="#00736C" offset="100%"></stop>
        </linearGradient>
        <linearGradient x1="50.0136767%" y1="99.9909682%" x2="50.0136767%" y2="-0.0201301186%" id="linearGradient-4">
            <stop stop-color="#00A79D" offset="0%"></stop>
            <stop stop-color="#00A39A" offset="17.87%"></stop>
            <stop stop-color="#009C93" offset="39.1%"></stop>
            <stop stop-color="#009088" offset="62.02%"></stop>
            <stop stop-color="#007F78" offset="85.99%"></stop>
            <stop stop-color="#00736C" offset="100%"></stop>
        </linearGradient>
    </defs>
    <g id="Page-1" stroke="none" stroke-width="1" fill="none" fill-rule="evenodd">
        <g id="04.Contacts" transform="translate(-1063.000000, -1501.000000)">
            <g id="Group" transform="translate(1063.000000, 1501.000000)">
                <path d="M62.2878767,60.3435897 C62.1344078,60.3333333 60.773651,60.2615385 60.6201822,60.2512821 C60.4667134,60.2410256 60.3081289,60.2358974 60.1546601,60.225641 C60.1546601,60.225641 60.1546601,60.225641 60.1495445,60.225641 C60.0523476,60.2205128 59.950035,60.2153846 59.8477225,60.2153846 L59.8016819,60.2153846 C59.7147162,60.2102564 59.6277505,60.2102564 59.5356692,60.2051282 L59.5100911,60.2051282 C59.4128942,60.2 59.3156973,60.2 59.2185004,60.1948718 L59.2185004,60.1948718 C59.1161878,60.1897436 59.0138753,60.1897436 58.9064471,60.1897436 L58.9064471,60.1897436 L58.9064471,60.1897436 C46.8949544,59.9333333 30.0543097,63.4512821 26.3915207,67.1487179 L24.2634198,75.6102564 C24.2378416,75.9179487 27.552768,76.1025641 29.3176594,75.9179487 L29.3330063,75.9179487 C29.4455501,75.9076923 29.5529783,75.8923077 29.6501752,75.8769231 L65.9557814,69.1897436 L65.960897,69.1897436 C77.1999299,65.7948718 74.166363,61.1025641 62.2878767,60.3435897 Z M55.8984583,62.9282051 C59.6942537,63.4 60.9833917,64.7230769 58.5483532,66.0974359 C55.9393833,67.4871795 49.8824807,68.4410256 44.4138753,68.4051282 L44.6798879,68.4051282 C40.3776454,67.9128205 39.4312544,66.6102564 42.5722495,65.2615385 C45.5802383,63.9076923 51.1971969,62.9487179 55.8984583,62.9282051 Z M54.5018921,62.8 C54.54185,62.8 54.5760996,62.8108571 54.6103492,62.8108571 C54.5760996,62.8 54.5361417,62.8 54.5018921,62.8 Z M54.7167484,62.8102564 C54.7627891,62.8211136 54.8037141,62.8211136 54.8497547,62.8319707 C54.8088297,62.8319707 54.7627891,62.8211136 54.7167484,62.8102564 Z M54.9316048,62.825641 C54.982761,62.8364982 55.0339173,62.8473553 55.0850736,62.8473553 C55.0288017,62.8473553 54.982761,62.8364982 54.9316048,62.825641 Z M55.1362299,62.8461538 C55.1925018,62.857011 55.2487737,62.8678681 55.2999299,62.8787253 C55.243658,62.8678681 55.1873861,62.857011 55.1362299,62.8461538 Z M55.3306237,62.8615385 C55.3920112,62.8723956 55.4482831,62.8832527 55.504555,62.8941099 C55.4482831,62.8941099 55.3920112,62.8723956 55.3306237,62.8615385 Z M55.5250175,62.8820513 C55.586405,62.8929084 55.6477926,62.9146227 55.7040645,62.9254799 C55.6477926,62.9146227 55.586405,62.8929084 55.5250175,62.8820513 Z M55.7142957,62.9025641 C55.7756833,62.9134212 55.8370708,62.9351355 55.8984583,62.9459927 C55.8370708,62.9351355 55.7756833,62.9242784 55.7142957,62.9025641 Z M43.2730904,68.3852161 C43.2168185,68.3852161 43.1656622,68.374359 43.1093903,68.374359 C43.1605466,68.374359 43.2168185,68.374359 43.2730904,68.3852161 Z M42.9661528,68.3749597 C42.9252278,68.3749597 42.8843027,68.3641026 42.8433777,68.3641026 C42.8843027,68.3641026 42.9252278,68.3641026 42.9661528,68.3749597 Z M44.403644,68.4 L44.1529783,68.4 L44.403644,68.4 Z M44.1274001,68.4057289 C44.0506657,68.4057289 43.9688157,68.4057289 43.8920813,68.3948718 C43.9688157,68.3948718 44.0506657,68.3948718 44.1274001,68.4057289 Z M43.8511563,68.4006007 C43.7795375,68.4006007 43.7079187,68.3897436 43.6311843,68.3897436 C43.7028031,68.3897436 43.7744219,68.4006007 43.8511563,68.4006007 Z M43.5646811,68.3903443 C43.498178,68.3903443 43.4367905,68.3794872 43.3702873,68.3794872 C43.4316748,68.3903443 43.498178,68.3903443 43.5646811,68.3903443 Z" id="Shape" fill="url(#linearGradient-1)"></path>
                <path d="M25.8492642,0.041025641 C25.619061,0.0358974359 25.3888577,0.0307692308 25.1586545,0.0307692308 C24.9284513,0.0307692308 24.6982481,0.0358974359 24.4680448,0.041025641 C6.55823406,0.523076923 -5.05935529,20.3179487 2.23552908,37.6820513 L23.3528381,74.8974359 C24.1713385,76.3435897 27.951787,76.3435897 28.7754029,74.8974359 L49.892712,37.6820513 C57.1824807,20.3179487 43.759075,0.523076923 25.8492642,0.041025641 Z M22.6673441,39.2974359 C15.6947442,39.2974359 10.0419762,33.2974359 10.0419762,25.8974359 C10.0419762,18.4974359 15.6947442,12.4974359 22.6673441,12.4974359 C29.6399439,12.4974359 35.292712,18.4974359 35.292712,25.8974359 C35.2978276,33.2974359 29.6450596,39.2974359 22.6673441,39.2974359 Z" id="Shape" fill="url(#linearGradient-2)"></path>
                <path d="M27.6550806,0.041025641 C27.4248774,0.0358974359 25.3888577,0.0307692308 25.1586545,0.0307692308 C24.9284513,0.0307692308 24.6982481,0.0358974359 24.4680448,0.041025641 C23.8592852,0.0564102564 23.2607568,0.0974358974 22.6724597,0.153846154 C39.5489138,1.85641026 50.153609,20.9025641 43.1093903,37.6820513 L23.32726,72.5487179 C22.9231254,73.2615385 22.9231254,74.1487179 23.32726,74.8615385 L23.3528381,74.9076923 C24.1713385,76.3538462 27.951787,76.3538462 28.7754029,74.9076923 L49.892712,37.6923077 C57.1824807,20.3179487 45.5648914,0.523076923 27.6550806,0.041025641 Z" id="Shape" fill="url(#linearGradient-3)"></path>
                <path d="M22.6673441,39.2974359 C23.4807288,39.2974359 24.273651,39.2153846 25.0409951,39.0615385 C19.2040645,37.8820513 14.7892782,32.4358974 14.7892782,25.8974359 C14.7892782,19.3589744 19.2040645,13.9128205 25.0409951,12.7333333 C24.273651,12.5794872 23.4756132,12.4974359 22.6673441,12.4974359 C15.6947442,12.4974359 10.0419762,18.4974359 10.0419762,25.8974359 C10.0419762,33.2974359 15.6947442,39.2974359 22.6673441,39.2974359 Z" id="Shape" fill="url(#linearGradient-4)"></path>
            </g>
        </g>
    </g>
</svg>